<ttFont>
<head>
    <!-- Most of this table will be recalculated by the compiler -->
    <tableVersion value="1.0"/>
    <fontRevision value="1.0"/>
    <checkSumAdjustment value="0x127b004b"/>
    <magicNumber value="0x5f0f3cf5"/>
    <flags value="00000000 00011011"/>
    <unitsPerEm value="1000"/>
    <created value="Sat Dec  6 13:43:36 2025"/>
    <modified value="Sat Dec  6 13:51:02 2025"/>
    <xMin value="-55"/>
    <yMin value="-250"/>
    <xMax value="1289"/>
    <yMax value="751"/>
    <macStyle value="00000000 00000001"/>
    <lowestRecPPEM value="6"/>
    <fontDirectionHint value="2"/>
    <indexToLocFormat value="0"/>
    <glyphDataFormat value="0"/>
  </head>
    <TTGlyph name="A" xMin="51" yMin="0" xMax="916" yMax="704">
      <contour>
        <pt x="817" y="56" on="1"/>
        <pt x="916" y="56" on="1"/>
        <pt x="916" y="0" on="1"/>
        <pt x="911" y="0" on="0"/>
        <pt x="875" y="2" on="0"/>
        <pt x="828" y="3" on="0"/>
        <pt x="774" y="4" on="0"/>
        <pt x="751" y="4" on="1"/>
        <pt x="731" y="4" on="0"/>
        <pt x="684" y="4" on="0"/>
        <pt x="635" y="3" on="0"/>
        <pt x="589" y="2" on="0"/>
        <pt x="569" y="0" on="1"/>
        <pt x="569" y="56" on="1"/>
        <pt x="659" y="56" on="1"/>
        <pt x="596" y="196" on="1"/>
        <pt x="291" y="196" on="1"/>
        <pt x="237" y="75" on="1"/>
        <pt x="236" y="73" on="0"/>
        <pt x="232" y="65" on="0"/>
        <pt x="232" y="64" on="1"/>
        <pt x="232" y="61" on="0"/>
        <pt x="258" y="58" on="0"/>
        <pt x="290" y="56" on="0"/>
        <pt x="317" y="56" on="0"/>
        <pt x="318" y="56" on="1"/>
        <pt x="318" y="0" on="1"/>
        <pt x="316" y="0" on="0"/>
        <pt x="284" y="1" on="0"/>
        <pt x="240" y="3" on="0"/>
        <pt x="193" y="4" on="0"/>
        <pt x="176" y="4" on="1"/>
        <pt x="159" y="4" on="0"/>
        <pt x="117" y="3" on="0"/>
        <pt x="79" y="1" on="0"/>
        <pt x="53" y="0" on="0"/>
        <pt x="51" y="0" on="1"/>
        <pt x="51" y="56" on="1"/>
        <pt x="81" y="56" on="1"/>
        <pt x="94" y="56" on="0"/>
        <pt x="113" y="56" on="0"/>
        <pt x="127" y="58" on="1"/>
        <pt x="146" y="60" on="0"/>
        <pt x="154" y="65" on="0"/>
        <pt x="159" y="74" on="1"/>
        <pt x="428" y="676" on="1"/>
        <pt x="438" y="697" on="0"/>
        <pt x="461" y="704" on="0"/>
        <pt x="484" y="704" on="1"/>
        <pt x="507" y="704" on="0"/>
        <pt x="529" y="697" on="0"/>
        <pt x="539" y="676" on="1"/>
      </contour>
      <contour>
        <pt x="316" y="252" on="1"/>
        <pt x="571" y="252" on="1"/>
        <pt x="443" y="536" on="1"/>
      </contour>
    </TTGlyph>
    <TTGlyph name="AE" xMin="52" yMin="0" xMax="1122" yMax="686">
      <contour>
        <pt x="233" y="63" on="1"/>
        <pt x="242" y="61" on="0"/>
        <pt x="256" y="58" on="0"/>
        <pt x="274" y="57" on="0"/>
        <pt x="298" y="56" on="0"/>
        <pt x="318" y="56" on="1"/>
        <pt x="318" y="0" on="1"/>
        <pt x="314" y="0" on="0"/>
        <pt x="280" y="1" on="0"/>
        <pt x="235" y="3" on="0"/>
        <pt x="190" y="4" on="0"/>
        <pt x="176" y="4" on="1"/>
        <pt x="158" y="4" on="0"/>
        <pt x="116" y="3" on="0"/>
        <pt x="78" y="1" on="0"/>
        <pt x="53" y="0" on="0"/>
        <pt x="52" y="0" on="1"/>
        <pt x="52" y="56" on="1"/>
        <pt x="81" y="56" on="1"/>
        <pt x="92" y="56" on="0"/>
        <pt x="117" y="57" on="0"/>
        <pt x="128" y="58" on="1"/>
        <pt x="147" y="60" on="0"/>
        <pt x="155" y="65" on="0"/>
        <pt x="160" y="74" on="1"/>
        <pt x="415" y="630" on="1"/>
        <pt x="351" y="630" on="1"/>
        <pt x="351" y="686" on="1"/>
        <pt x="1053" y="686" on="1"/>
        <pt x="1087" y="447" on="1"/>
        <pt x="1024" y="447" on="1"/>
        <pt x="1018" y="498" on="0"/>
        <pt x="992" y="568" on="0"/>
        <pt x="946" y="611" on="0"/>
        <pt x="876" y="630" on="0"/>
        <pt x="826" y="630" on="1"/>
        <pt x="679" y="630" on="1"/>
        <pt x="679" y="358" on="1"/>
        <pt x="752" y="358" on="1"/>
        <pt x="784" y="358" on="0"/>
        <pt x="828" y="368" on="0"/>
        <pt x="855" y="393" on="0"/>
        <pt x="867" y="435" on="0"/>
        <pt x="867" y="468" on="1"/>
        <pt x="930" y="468" on="1"/>
        <pt x="930" y="192" on="1"/>
        <pt x="867" y="192" on="1"/>
        <pt x="867" y="225" on="0"/>
        <pt x="855" y="267" on="0"/>
        <pt x="828" y="292" on="0"/>
        <pt x="784" y="302" on="0"/>
        <pt x="752" y="302" on="1"/>
        <pt x="679" y="302" on="1"/>
        <pt x="679" y="56" on="1"/>
        <pt x="829" y="56" on="1"/>
        <pt x="898" y="56" on="0"/>
        <pt x="981" y="89" on="0"/>
        <pt x="1028" y="146" on="0"/>
        <pt x="1050" y="224" on="0"/>
        <pt x="1059" y="269" on="1"/>
        <pt x="1122" y="269" on="1"/>
        <pt x="1071" y="0" on="1"/>
        <pt x="457" y="0" on="1"/>
        <pt x="457" y="56" on="1"/>
        <pt x="537" y="56" on="1"/>
        <pt x="537" y="302" on="1"/>
        <pt x="342" y="302" on="1"/>
      </contour>
      <contour>
        <pt x="368" y="358" on="1"/>
        <pt x="537" y="358" on="1"/>
        <pt x="537" y="630" on="1"/>
        <pt x="493" y="630" on="1"/>
      </contour>
    </TTGlyph>
    <TTGlyph name="B" xMin="59" yMin="0" xMax="838" yMax="686">
      <contour>
        <pt x="528" y="686" on="1"/>
        <pt x="592" y="686" on="0"/>
        <pt x="693" y="659" on="0"/>
        <pt x="764" y="612" on="0"/>
        <pt x="802" y="549" on="0"/>
        <pt x="802" y="512" on="1"/>
        <pt x="802" y="487" on="0"/>
        <pt x="780" y="440" on="0"/>
        <pt x="736" y="399" on="0"/>
        <pt x="668" y="368" on="0"/>
        <pt x="621" y="359" on="1"/>
        <pt x="679" y="352" on="0"/>
        <pt x="761" y="317" on="0"/>
        <pt x="814" y="271" on="0"/>
        <pt x="838" y="215" on="0"/>
        <pt x="838" y="187" on="1"/>
        <pt x="838" y="150" on="0"/>
        <pt x="802" y="82" on="0"/>
        <pt x="732" y="30" on="0"/>
        <pt x="629" y="0" on="0"/>
        <pt x="562" y="0" on="1"/>
        <pt x="59" y="0" on="1"/>
        <pt x="59" y="56" on="1"/>
        <pt x="166" y="56" on="1"/>
        <pt x="166" y="630" on="1"/>
        <pt x="59" y="630" on="1"/>
        <pt x="59" y="686" on="1"/>
      </contour>
      <contour>
        <pt x="487" y="380" on="1"/>
        <pt x="561" y="380" on="0"/>
        <pt x="652" y="451" on="0"/>
        <pt x="652" y="512" on="1"/>
        <pt x="652" y="535" on="0"/>
        <pt x="637" y="577" on="0"/>
        <pt x="604" y="610" on="0"/>
        <pt x="552" y="630" on="0"/>
        <pt x="515" y="630" on="1"/>
        <pt x="304" y="630" on="1"/>
        <pt x="304" y="380" on="1"/>
      </contour>
      <contour>
        <pt x="518" y="56" on="1"/>
        <pt x="562" y="56" on="0"/>
        <pt x="624" y="79" on="0"/>
        <pt x="663" y="116" on="0"/>
        <pt x="682" y="164" on="0"/>
        <pt x="682" y="189" on="1"/>
        <pt x="682" y="203" on="0"/>
        <pt x="674" y="251" on="0"/>
        <pt x="642" y="299" on="0"/>
        <pt x="581" y="334" on="0"/>
        <pt x="528" y="334" on="1"/>
        <pt x="304" y="334" on="1"/>
        <pt x="304" y="56" on="1"/>
      </contour>
    </TTGlyph>
    <TTGlyph name="C" xMin="75" yMin="-12" xMax="855" yMax="698">
      <contour>
        <pt x="855" y="453" on="1"/>
        <pt x="855" y="431" on="0"/>
        <pt x="845" y="421" on="0"/>
        <pt x="823" y="421" on="1"/>
        <pt x="816" y="421" on="1"/>
        <pt x="805" y="421" on="0"/>
        <pt x="793" y="422" on="0"/>
        <pt x="787" y="428" on="0"/>
        <pt x="784" y="440" on="0"/>
        <pt x="782" y="450" on="1"/>
        <pt x="775" y="489" on="0"/>
        <pt x="734" y="559" on="0"/>
        <pt x="671" y="611" on="0"/>
        <pt x="589" y="642" on="0"/>
        <pt x="541" y="642" on="1"/>
        <pt x="518" y="642" on="0"/>
        <pt x="464" y="637" on="0"/>
        <pt x="408" y="623" on="0"/>
        <pt x="352" y="598" on="0"/>
        <pt x="326" y="578" on="1"/>
        <pt x="275" y="538" on="0"/>
        <pt x="238" y="415" on="0"/>
        <pt x="238" y="343" on="1"/>
        <pt x="238" y="313" on="0"/>
        <pt x="244" y="253" on="0"/>
        <pt x="260" y="196" on="0"/>
        <pt x="288" y="144" on="0"/>
        <pt x="309" y="123" on="1"/>
        <pt x="332" y="101" on="0"/>
        <pt x="387" y="71" on="0"/>
        <pt x="448" y="52" on="0"/>
        <pt x="512" y="44" on="0"/>
        <pt x="543" y="44" on="1"/>
        <pt x="576" y="44" on="0"/>
        <pt x="659" y="61" on="0"/>
        <pt x="734" y="104" on="0"/>
        <pt x="789" y="179" on="0"/>
        <pt x="792" y="236" on="1"/>
        <pt x="793" y="249" on="0"/>
        <pt x="812" y="253" on="0"/>
        <pt x="823" y="253" on="1"/>
        <pt x="839" y="253" on="0"/>
        <pt x="855" y="247" on="0"/>
        <pt x="855" y="228" on="1"/>
        <pt x="855" y="182" on="0"/>
        <pt x="808" y="95" on="0"/>
        <pt x="720" y="28" on="0"/>
        <pt x="595" y="-12" on="0"/>
        <pt x="518" y="-12" on="1"/>
        <pt x="407" y="-12" on="0"/>
        <pt x="241" y="46" on="0"/>
        <pt x="130" y="143" on="0"/>
        <pt x="75" y="272" on="0"/>
        <pt x="75" y="343" on="1"/>
        <pt x="75" y="415" on="0"/>
        <pt x="132" y="544" on="0"/>
        <pt x="243" y="641" on="0"/>
        <pt x="408" y="698" on="0"/>
        <pt x="517" y="698" on="1"/>
        <pt x="528" y="698" on="0"/>
        <pt x="573" y="696" on="0"/>
        <pt x="633" y="683" on="0"/>
        <pt x="704" y="656" on="0"/>
        <pt x="741" y="630" on="1"/>
        <pt x="808" y="688" on="1"/>
        <pt x="816" y="695" on="0"/>
        <pt x="823" y="698" on="0"/>
        <pt x="832" y="698" on="1"/>
        <pt x="849" y="698" on="0"/>
        <pt x="855" y="681" on="0"/>
        <pt x="855" y="666" on="1"/>
      </contour>
    </TTGlyph>
    <TTGlyph name="D" xMin="57" yMin="0" xMax="909" yMax="686">
      <contour>
        <pt x="525" y="686" on="1"/>
        <pt x="611" y="686" on="0"/>
        <pt x="752" y="636" on="0"/>
        <pt x="853" y="545" on="0"/>
        <pt x="909" y="416" on="0"/>
        <pt x="909" y="338" on="1"/>
        <pt x="909" y="259" on="0"/>
        <pt x="851" y="133" on="0"/>
        <pt x="749" y="46" on="0"/>
        <pt x="609" y="0" on="0"/>
        <pt x="526" y="0" on="1"/>
        <pt x="57" y="0" on="1"/>
        <pt x="57" y="56" on="1"/>
        <pt x="164" y="56" on="1"/>
        <pt x="164" y="630" on="1"/>
        <pt x="57" y="630" on="1"/>
        <pt x="57" y="686" on="1"/>
      </contour>
      <contour>
        <pt x="484" y="56" on="1"/>
        <pt x="551" y="56" on="0"/>
        <pt x="643" y="85" on="0"/>
        <pt x="703" y="133" on="0"/>
        <pt x="736" y="194" on="0"/>
        <pt x="751" y="256" on="0"/>
        <pt x="753" y="316" on="0"/>
        <pt x="753" y="338" on="1"/>
        <pt x="753" y="361" on="0"/>
        <pt x="751" y="422" on="0"/>
        <pt x="736" y="487" on="0"/>
        <pt x="703" y="550" on="0"/>
        <pt x="643" y="599" on="0"/>
        <pt x="550" y="630" on="0"/>
        <pt x="483" y="630" on="1"/>
        <pt x="308" y="630" on="1"/>
        <pt x="308" y="56" on="1"/>
      </contour>
    </TTGlyph>
    <TTGlyph name="E" xMin="57" yMin="0" xMax="803" yMax="679">
      <contour>
        <pt x="752" y="0" on="1"/>
        <pt x="57" y="0" on="1"/>
        <pt x="57" y="56" on="1"/>
        <pt x="164" y="56" on="1"/>
        <pt x="164" y="623" on="1"/>
        <pt x="57" y="623" on="1"/>
        <pt x="57" y="679" on="1"/>
        <pt x="734" y="679" on="1"/>
        <pt x="768" y="440" on="1"/>
        <pt x="705" y="440" on="1"/>
        <pt x="698" y="494" on="0"/>
        <pt x="667" y="565" on="0"/>
        <pt x="616" y="606" on="0"/>
        <pt x="541" y="623" on="0"/>
        <pt x="488" y="623" on="1"/>
        <pt x="315" y="623" on="1"/>
        <pt x="315" y="380" on="1"/>
        <pt x="381" y="380" on="1"/>
        <pt x="413" y="380" on="0"/>
        <pt x="457" y="390" on="0"/>
        <pt x="484" y="415" on="0"/>
        <pt x="495" y="458" on="0"/>
        <pt x="495" y="490" on="1"/>
        <pt x="558" y="490" on="1"/>
        <pt x="558" y="214" on="1"/>
        <pt x="495" y="214" on="1"/>
        <pt x="495" y="247" on="0"/>
        <pt x="483" y="289" on="0"/>
        <pt x="456" y="314" on="0"/>
        <pt x="413" y="324" on="0"/>
        <pt x="381" y="324" on="1"/>
        <pt x="315" y="324" on="1"/>
        <pt x="315" y="56" on="1"/>
        <pt x="498" y="56" on="1"/>
        <pt x="563" y="56" on="0"/>
        <pt x="647" y="82" on="0"/>
        <pt x="700" y="135" on="0"/>
        <pt x="730" y="215" on="0"/>
        <pt x="740" y="269" on="1"/>
        <pt x="803" y="269" on="1"/>
      </contour>
    </TTGlyph>
    <TTGlyph name="F" xMin="57" yMin="0" xMax="751" yMax="679">
      <contour>
        <pt x="751" y="440" on="1"/>
        <pt x="688" y="440" on="1"/>
        <pt x="681" y="491" on="0"/>
        <pt x="653" y="561" on="0"/>
        <pt x="605" y="604" on="0"/>
        <pt x="531" y="623" on="0"/>
        <pt x="478" y="623" on="1"/>
        <pt x="315" y="623" on="1"/>
        <pt x="315" y="368" on="1"/>
        <pt x="377" y="368" on="1"/>
        <pt x="410" y="368" on="0"/>
        <pt x="453" y="380" on="0"/>
        <pt x="478" y="406" on="0"/>
        <pt x="488" y="448" on="0"/>
        <pt x="488" y="478" on="1"/>
        <pt x="551" y="478" on="1"/>
        <pt x="551" y="202" on="1"/>
        <pt x="488" y="202" on="1"/>
        <pt x="488" y="233" on="0"/>
        <pt x="478" y="275" on="0"/>
        <pt x="453" y="301" on="0"/>
        <pt x="410" y="312" on="0"/>
        <pt x="377" y="312" on="1"/>
        <pt x="315" y="312" on="1"/>
        <pt x="315" y="56" on="1"/>
        <pt x="449" y="56" on="1"/>
        <pt x="449" y="0" on="1"/>
        <pt x="429" y="2" on="0"/>
        <pt x="373" y="2" on="0"/>
        <pt x="353" y="3" on="1"/>
        <pt x="325" y="3" on="0"/>
        <pt x="270" y="4" on="0"/>
        <pt x="242" y="4" on="1"/>
        <pt x="239" y="4" on="0"/>
        <pt x="188" y="3" on="0"/>
        <pt x="125" y="2" on="0"/>
        <pt x="67" y="1" on="0"/>
        <pt x="57" y="0" on="1"/>
        <pt x="57" y="56" on="1"/>
        <pt x="164" y="56" on="1"/>
        <pt x="164" y="623" on="1"/>
        <pt x="57" y="623" on="1"/>
        <pt x="57" y="679" on="1"/>
        <pt x="717" y="679" on="1"/>
      </contour>
    </TTGlyph>
    <TTGlyph name="G" xMin="75" yMin="-12" xMax="945" yMax="698">
      <contour>
        <pt x="856" y="32" on="1"/>
        <pt x="856" y="21" on="0"/>
        <pt x="852" y="0" on="0"/>
        <pt x="838" y="0" on="1"/>
        <pt x="835" y="0" on="0"/>
        <pt x="812" y="9" on="0"/>
        <pt x="784" y="21" on="0"/>
        <pt x="756" y="36" on="0"/>
        <pt x="747" y="42" on="1"/>
        <pt x="728" y="23" on="0"/>
        <pt x="669" y="1" on="0"/>
        <pt x="606" y="-10" on="0"/>
        <pt x="546" y="-12" on="0"/>
        <pt x="526" y="-12" on="1"/>
        <pt x="400" y="-12" on="0"/>
        <pt x="228" y="54" on="0"/>
        <pt x="121" y="157" on="0"/>
        <pt x="75" y="283" on="0"/>
        <pt x="75" y="343" on="1"/>
        <pt x="75" y="415" on="0"/>
        <pt x="132" y="544" on="0"/>
        <pt x="243" y="641" on="0"/>
        <pt x="409" y="698" on="0"/>
        <pt x="517" y="698" on="1"/>
        <pt x="529" y="698" on="0"/>
        <pt x="574" y="696" on="0"/>
        <pt x="633" y="683" on="0"/>
        <pt x="704" y="656" on="0"/>
        <pt x="742" y="630" on="1"/>
        <pt x="809" y="688" on="1"/>
        <pt x="817" y="695" on="0"/>
        <pt x="824" y="698" on="0"/>
        <pt x="833" y="698" on="1"/>
        <pt x="850" y="698" on="0"/>
        <pt x="856" y="681" on="0"/>
        <pt x="856" y="666" on="1"/>
        <pt x="856" y="453" on="1"/>
        <pt x="856" y="431" on="0"/>
        <pt x="846" y="421" on="0"/>
        <pt x="824" y="421" on="1"/>
        <pt x="817" y="421" on="1"/>
        <pt x="796" y="421" on="0"/>
        <pt x="787" y="429" on="0"/>
        <pt x="784" y="445" on="1"/>
        <pt x="775" y="493" on="0"/>
        <pt x="728" y="567" on="0"/>
        <pt x="662" y="617" on="0"/>
        <pt x="583" y="642" on="0"/>
        <pt x="541" y="642" on="1"/>
        <pt x="518" y="642" on="0"/>
        <pt x="460" y="636" on="0"/>
        <pt x="398" y="620" on="0"/>
        <pt x="339" y="591" on="0"/>
        <pt x="314" y="568" on="1"/>
        <pt x="274" y="530" on="0"/>
        <pt x="238" y="420" on="0"/>
        <pt x="238" y="344" on="1"/>
        <pt x="238" y="297" on="0"/>
        <pt x="251" y="225" on="0"/>
        <pt x="273" y="170" on="0"/>
        <pt x="303" y="130" on="0"/>
        <pt x="321" y="115" on="1"/>
        <pt x="351" y="90" on="0"/>
        <pt x="419" y="61" on="0"/>
        <pt x="483" y="47" on="0"/>
        <pt x="538" y="44" on="0"/>
        <pt x="555" y="44" on="1"/>
        <pt x="611" y="44" on="0"/>
        <pt x="672" y="62" on="0"/>
        <pt x="700" y="88" on="0"/>
        <pt x="705" y="116" on="0"/>
        <pt x="705" y="126" on="1"/>
        <pt x="705" y="219" on="1"/>
        <pt x="545" y="219" on="1"/>
        <pt x="545" y="275" on="1"/>
        <pt x="567" y="273" on="0"/>
        <pt x="631" y="272" on="0"/>
        <pt x="653" y="272" on="1"/>
        <pt x="684" y="272" on="0"/>
        <pt x="745" y="271" on="0"/>
        <pt x="775" y="271" on="1"/>
        <pt x="798" y="271" on="0"/>
        <pt x="853" y="272" on="0"/>
        <pt x="902" y="273" on="0"/>
        <pt x="939" y="275" on="0"/>
        <pt x="945" y="275" on="1"/>
        <pt x="945" y="219" on="1"/>
        <pt x="856" y="219" on="1"/>
      </contour>
    </TTGlyph>
    <TTGlyph name="Gamma" xMin="57" yMin="0" xMax="715" yMax="679">
      <contour>
        <pt x="715" y="440" on="1"/>
        <pt x="652" y="440" on="1"/>
        <pt x="646" y="489" on="0"/>
        <pt x="621" y="559" on="0"/>
        <pt x="576" y="603" on="0"/>
        <pt x="507" y="623" on="0"/>
        <pt x="456" y="623" on="1"/>
        <pt x="315" y="623" on="1"/>
        <pt x="315" y="56" on="1"/>
        <pt x="449" y="56" on="1"/>
        <pt x="449" y="0" on="1"/>
        <pt x="429" y="2" on="0"/>
        <pt x="373" y="2" on="0"/>
        <pt x="353" y="3" on="1"/>
        <pt x="325" y="3" on="0"/>
        <pt x="270" y="4" on="0"/>
        <pt x="242" y="4" on="1"/>
        <pt x="239" y="4" on="0"/>
        <pt x="188" y="3" on="0"/>
        <pt x="125" y="2" on="0"/>
        <pt x="67" y="1" on="0"/>
        <pt x="57" y="0" on="1"/>
        <pt x="57" y="56" on="1"/>
        <pt x="164" y="56" on="1"/>
        <pt x="164" y="623" on="1"/>
        <pt x="57" y="623" on="1"/>
        <pt x="57" y="679" on="1"/>
        <pt x="681" y="679" on="1"/>
      </contour>
    </TTGlyph>
    <TTGlyph name="H" xMin="57" yMin="0" xMax="944" yMax="686">
      <contour>
        <pt x="837" y="56" on="1"/>
        <pt x="944" y="56" on="1"/>
        <pt x="944" y="0" on="1"/>
        <pt x="936" y="1" on="0"/>
        <pt x="883" y="2" on="0"/>
        <pt x="822" y="3" on="0"/>
        <pt x="769" y="4" on="0"/>
        <pt x="761" y="4" on="1"/>
        <pt x="755" y="4" on="0"/>
        <pt x="703" y="3" on="0"/>
        <pt x="642" y="2" on="0"/>
        <pt x="588" y="1" on="0"/>
        <pt x="579" y="0" on="1"/>
        <pt x="579" y="56" on="1"/>
        <pt x="686" y="56" on="1"/>
        <pt x="686" y="329" on="1"/>
        <pt x="315" y="329" on="1"/>
        <pt x="315" y="56" on="1"/>
        <pt x="422" y="56" on="1"/>
        <pt x="422" y="0" on="1"/>
        <pt x="414" y="1" on="0"/>
        <pt x="361" y="2" on="0"/>
        <pt x="300" y="3" on="0"/>
        <pt x="247" y="4" on="0"/>
        <pt x="239" y="4" on="1"/>
        <pt x="233" y="4" on="0"/>
        <pt x="181" y="3" on="0"/>
        <pt x="120" y="2" on="0"/>
        <pt x="66" y="1" on="0"/>
        <pt x="57" y="0" on="1"/>
        <pt x="57" y="56" on="1"/>
        <pt x="164" y="56" on="1"/>
        <pt x="164" y="630" on="1"/>
        <pt x="57" y="630" on="1"/>
        <pt x="57" y="686" on="1"/>
        <pt x="65" y="685" on="0"/>
        <pt x="118" y="684" on="0"/>
        <pt x="179" y="683" on="0"/>
        <pt x="232" y="682" on="0"/>
        <pt x="240" y="682" on="1"/>
        <pt x="246" y="682" on="0"/>
        <pt x="298" y="683" on="0"/>
        <pt x="359" y="684" on="0"/>
        <pt x="413" y="685" on="0"/>
        <pt x="422" y="686" on="1"/>
        <pt x="422" y="630" on="1"/>
        <pt x="315" y="630" on="1"/>
        <pt x="315" y="385" on="1"/>
        <pt x="686" y="385" on="1"/>
        <pt x="686" y="630" on="1"/>
        <pt x="579" y="630" on="1"/>
        <pt x="579" y="686" on="1"/>
        <pt x="587" y="685" on="0"/>
        <pt x="640" y="684" on="0"/>
        <pt x="701" y="683" on="0"/>
        <pt x="754" y="682" on="0"/>
        <pt x="762" y="682" on="1"/>
        <pt x="768" y="682" on="0"/>
        <pt x="820" y="683" on="0"/>
        <pt x="881" y="684" on="0"/>
        <pt x="935" y="685" on="0"/>
        <pt x="944" y="686" on="1"/>
        <pt x="944" y="630" on="1"/>
        <pt x="837" y="630" on="1"/>
      </contour>
    </TTGlyph>
    <TTGlyph name="I" xMin="51" yMin="0" xMax="428" yMax="686">
      <contour>
        <pt x="315" y="56" on="1"/>
        <pt x="428" y="56" on="1"/>
        <pt x="428" y="0" on="1"/>
        <pt x="409" y="2" on="0"/>
        <pt x="360" y="3" on="0"/>
        <pt x="309" y="4" on="0"/>
        <pt x="259" y="4" on="0"/>
        <pt x="239" y="4" on="1"/>
        <pt x="219" y="4" on="0"/>
        <pt x="169" y="4" on="0"/>
        <pt x="118" y="3" on="0"/>
        <pt x="70" y="2" on="0"/>
        <pt x="51" y="0" on="1"/>
        <pt x="51" y="56" on="1"/>
        <pt x="164" y="56" on="1"/>
        <pt x="164" y="630" on="1"/>
        <pt x="51" y="630" on="1"/>
        <pt x="51" y="686" on="1"/>
        <pt x="70" y="685" on="0"/>
        <pt x="119" y="683" on="0"/>
        <pt x="170" y="682" on="0"/>
        <pt x="220" y="682" on="0"/>
        <pt x="240" y="682" on="1"/>
        <pt x="260" y="682" on="0"/>
        <pt x="310" y="682" on="0"/>
        <pt x="361" y="683" on="0"/>
        <pt x="409" y="685" on="0"/>
        <pt x="428" y="686" on="1"/>
        <pt x="428" y="630" on="1"/>
        <pt x="315" y="630" on="1"/>
      </contour>
    </TTGlyph>
    <TTGlyph name="J" xMin="36" yMin="-12" xMax="580" yMax="686">
      <contour>
        <pt x="500" y="150" on="1"/>
        <pt x="500" y="75" on="0"/>
        <pt x="368" y="-12" on="0"/>
        <pt x="251" y="-12" on="1"/>
        <pt x="143" y="-12" on="0"/>
        <pt x="36" y="57" on="0"/>
        <pt x="36" y="114" on="1"/>
        <pt x="36" y="153" on="0"/>
        <pt x="86" y="196" on="0"/>
        <pt x="118" y="196" on="1"/>
        <pt x="132" y="196" on="0"/>
        <pt x="161" y="186" on="0"/>
        <pt x="184" y="165" on="0"/>
        <pt x="199" y="135" on="0"/>
        <pt x="199" y="114" on="1"/>
        <pt x="199" y="72" on="0"/>
        <pt x="166" y="48" on="1"/>
        <pt x="179" y="43" on="0"/>
        <pt x="206" y="37" on="0"/>
        <pt x="229" y="34" on="0"/>
        <pt x="246" y="34" on="0"/>
        <pt x="247" y="34" on="1"/>
        <pt x="288" y="34" on="0"/>
        <pt x="332" y="64" on="0"/>
        <pt x="353" y="104" on="0"/>
        <pt x="356" y="143" on="0"/>
        <pt x="356" y="151" on="1"/>
        <pt x="356" y="630" on="1"/>
        <pt x="217" y="630" on="1"/>
        <pt x="217" y="686" on="1"/>
        <pt x="237" y="684" on="0"/>
        <pt x="293" y="683" on="0"/>
        <pt x="313" y="683" on="1"/>
        <pt x="341" y="683" on="0"/>
        <pt x="396" y="682" on="0"/>
        <pt x="423" y="682" on="1"/>
        <pt x="439" y="682" on="0"/>
        <pt x="491" y="683" on="0"/>
        <pt x="541" y="685" on="0"/>
        <pt x="579" y="686" on="0"/>
        <pt x="580" y="686" on="1"/>
        <pt x="580" y="630" on="1"/>
        <pt x="500" y="630" on="1"/>
      </contour>
    </TTGlyph>
    <TTGlyph name="K" xMin="57" yMin="0" xMax="944" yMax="686">
      <contour>
        <pt x="845" y="70" on="1"/>
        <pt x="848" y="66" on="0"/>
        <pt x="854" y="60" on="0"/>
        <pt x="866" y="57" on="0"/>
        <pt x="887" y="56" on="0"/>
        <pt x="905" y="56" on="1"/>
        <pt x="944" y="56" on="1"/>
        <pt x="944" y="0" on="1"/>
        <pt x="943" y="0" on="0"/>
        <pt x="909" y="1" on="0"/>
        <pt x="863" y="3" on="0"/>
        <pt x="813" y="4" on="0"/>
        <pt x="797" y="4" on="1"/>
        <pt x="777" y="4" on="0"/>
        <pt x="730" y="4" on="0"/>
        <pt x="681" y="3" on="0"/>
        <pt x="634" y="2" on="0"/>
        <pt x="614" y="0" on="1"/>
        <pt x="614" y="56" on="1"/>
        <pt x="629" y="56" on="0"/>
        <pt x="647" y="56" on="0"/>
        <pt x="659" y="57" on="0"/>
        <pt x="670" y="60" on="0"/>
        <pt x="678" y="62" on="1"/>
        <pt x="438" y="337" on="1"/>
        <pt x="315" y="246" on="1"/>
        <pt x="315" y="56" on="1"/>
        <pt x="422" y="56" on="1"/>
        <pt x="422" y="0" on="1"/>
        <pt x="414" y="1" on="0"/>
        <pt x="361" y="2" on="0"/>
        <pt x="300" y="3" on="0"/>
        <pt x="247" y="4" on="0"/>
        <pt x="239" y="4" on="1"/>
        <pt x="233" y="4" on="0"/>
        <pt x="181" y="3" on="0"/>
        <pt x="120" y="2" on="0"/>
        <pt x="66" y="1" on="0"/>
        <pt x="57" y="0" on="1"/>
        <pt x="57" y="56" on="1"/>
        <pt x="164" y="56" on="1"/>
        <pt x="164" y="630" on="1"/>
        <pt x="57" y="630" on="1"/>
        <pt x="57" y="686" on="1"/>
        <pt x="65" y="685" on="0"/>
        <pt x="118" y="684" on="0"/>
        <pt x="179" y="683" on="0"/>
        <pt x="232" y="682" on="0"/>
        <pt x="240" y="682" on="1"/>
        <pt x="246" y="682" on="0"/>
        <pt x="298" y="683" on="0"/>
        <pt x="359" y="684" on="0"/>
        <pt x="413" y="685" on="0"/>
        <pt x="422" y="686" on="1"/>
        <pt x="422" y="630" on="1"/>
        <pt x="315" y="630" on="1"/>
        <pt x="315" y="324" on="1"/>
        <pt x="717" y="624" on="1"/>
        <pt x="699" y="629" on="0"/>
        <pt x="673" y="630" on="0"/>
        <pt x="659" y="630" on="1"/>
        <pt x="659" y="686" on="1"/>
        <pt x="661" y="686" on="0"/>
        <pt x="696" y="685" on="0"/>
        <pt x="745" y="683" on="0"/>
        <pt x="799" y="682" on="0"/>
        <pt x="820" y="682" on="1"/>
        <pt x="837" y="682" on="0"/>
        <pt x="874" y="683" on="0"/>
        <pt x="906" y="685" on="0"/>
        <pt x="927" y="686" on="0"/>
        <pt x="927" y="686" on="1"/>
        <pt x="927" y="630" on="1"/>
        <pt x="900" y="630" on="1"/>
        <pt x="875" y="630" on="0"/>
        <pt x="845" y="628" on="0"/>
        <pt x="828" y="625" on="0"/>
        <pt x="819" y="619" on="0"/>
        <pt x="814" y="616" on="1"/>
        <pt x="544" y="415" on="1"/>
      </contour>
    </TTGlyph>
    <TTGlyph name="L" xMin="57" yMin="0" xMax="715" yMax="686">
      <contour>
        <pt x="681" y="0" on="1"/>
        <pt x="57" y="0" on="1"/>
        <pt x="57" y="56" on="1"/>
        <pt x="164" y="56" on="1"/>
        <pt x="164" y="630" on="1"/>
        <pt x="57" y="630" on="1"/>
        <pt x="57" y="686" on="1"/>
        <pt x="99" y="683" on="0"/>
        <pt x="195" y="682" on="0"/>
        <pt x="242" y="682" on="1"/>
        <pt x="268" y="682" on="0"/>
        <pt x="322" y="683" on="0"/>
        <pt x="349" y="683" on="1"/>
        <pt x="358" y="683" on="0"/>
        <pt x="385" y="683" on="0"/>
        <pt x="414" y="684" on="0"/>
        <pt x="440" y="685" on="0"/>
        <pt x="449" y="686" on="1"/>
        <pt x="449" y="630" on="1"/>
        <pt x="315" y="630" on="1"/>
        <pt x="315" y="56" on="1"/>
        <pt x="433" y="56" on="1"/>
        <pt x="499" y="56" on="0"/>
        <pt x="581" y="98" on="0"/>
        <pt x="628" y="161" on="0"/>
        <pt x="648" y="236" on="0"/>
        <pt x="652" y="269" on="1"/>
        <pt x="715" y="269" on="1"/>
      </contour>
    </TTGlyph>
    <TTGlyph name="Lambda" xMin="50" yMin="0" xMax="846" yMax="704">
      <contour>
        <pt x="758" y="56" on="1"/>
        <pt x="846" y="56" on="1"/>
        <pt x="846" y="0" on="1"/>
        <pt x="839" y="0" on="0"/>
        <pt x="801" y="2" on="0"/>
        <pt x="754" y="3" on="0"/>
        <pt x="705" y="4" on="0"/>
        <pt x="688" y="4" on="1"/>
        <pt x="668" y="4" on="0"/>
        <pt x="620" y="4" on="0"/>
        <pt x="571" y="3" on="0"/>
        <pt x="524" y="2" on="0"/>
        <pt x="504" y="0" on="1"/>
        <pt x="504" y="56" on="1"/>
        <pt x="595" y="56" on="1"/>
        <pt x="405" y="516" on="1"/>
        <pt x="223" y="76" on="1"/>
        <pt x="219" y="65" on="0"/>
        <pt x="219" y="65" on="1"/>
        <pt x="219" y="62" on="0"/>
        <pt x="242" y="58" on="0"/>
        <pt x="272" y="56" on="0"/>
        <pt x="301" y="56" on="0"/>
        <pt x="306" y="56" on="1"/>
        <pt x="306" y="0" on="1"/>
        <pt x="304" y="0" on="0"/>
        <pt x="272" y="1" on="0"/>
        <pt x="228" y="3" on="0"/>
        <pt x="181" y="4" on="0"/>
        <pt x="164" y="4" on="1"/>
        <pt x="154" y="4" on="0"/>
        <pt x="119" y="3" on="0"/>
        <pt x="84" y="2" on="0"/>
        <pt x="55" y="0" on="0"/>
        <pt x="50" y="0" on="1"/>
        <pt x="50" y="56" on="1"/>
        <pt x="74" y="56" on="1"/>
        <pt x="84" y="56" on="0"/>
        <pt x="107" y="57" on="0"/>
        <pt x="117" y="58" on="1"/>
        <pt x="133" y="60" on="0"/>
        <pt x="140" y="64" on="0"/>
        <pt x="145" y="75" on="1"/>
        <pt x="394" y="675" on="1"/>
        <pt x="402" y="695" on="0"/>
        <pt x="421" y="704" on="0"/>
        <pt x="441" y="704" on="1"/>
        <pt x="455" y="704" on="1"/>
        <pt x="470" y="704" on="0"/>
        <pt x="494" y="697" on="0"/>
        <pt x="503" y="675" on="1"/>
      </contour>
    </TTGlyph>
    <TTGlyph name="M" xMin="63" yMin="0" xMax="1151" yMax="686">
      <contour>
        <pt x="871" y="659" on="1"/>
        <pt x="881" y="679" on="0"/>
        <pt x="907" y="686" on="0"/>
        <pt x="921" y="686" on="1"/>
        <pt x="1151" y="686" on="1"/>
        <pt x="1151" y="630" on="1"/>
        <pt x="1044" y="630" on="1"/>
        <pt x="1044" y="56" on="1"/>
        <pt x="1151" y="56" on="1"/>
        <pt x="1151" y="0" on="1"/>
        <pt x="1147" y="0" on="0"/>
        <pt x="1107" y="2" on="0"/>
        <pt x="1055" y="3" on="0"/>
        <pt x="1000" y="4" on="0"/>
        <pt x="979" y="4" on="1"/>
        <pt x="962" y="4" on="0"/>
        <pt x="909" y="3" on="0"/>
        <pt x="855" y="2" on="0"/>
        <pt x="812" y="0" on="0"/>
        <pt x="806" y="0" on="1"/>
        <pt x="806" y="56" on="1"/>
        <pt x="913" y="56" on="1"/>
        <pt x="913" y="627" on="1"/>
        <pt x="912" y="627" on="1"/>
        <pt x="615" y="27" on="1"/>
        <pt x="605" y="7" on="0"/>
        <pt x="580" y="0" on="0"/>
        <pt x="573" y="0" on="1"/>
        <pt x="553" y="0" on="0"/>
        <pt x="536" y="17" on="0"/>
        <pt x="531" y="28" on="1"/>
        <pt x="241" y="613" on="1"/>
        <pt x="240" y="613" on="1"/>
        <pt x="240" y="81" on="1"/>
        <pt x="240" y="66" on="0"/>
        <pt x="247" y="60" on="0"/>
        <pt x="264" y="58" on="1"/>
        <pt x="275" y="57" on="0"/>
        <pt x="303" y="56" on="0"/>
        <pt x="314" y="56" on="1"/>
        <pt x="347" y="56" on="1"/>
        <pt x="347" y="0" on="1"/>
        <pt x="344" y="0" on="0"/>
        <pt x="310" y="1" on="0"/>
        <pt x="265" y="3" on="0"/>
        <pt x="219" y="4" on="0"/>
        <pt x="205" y="4" on="1"/>
        <pt x="191" y="4" on="0"/>
        <pt x="146" y="3" on="0"/>
        <pt x="103" y="2" on="0"/>
        <pt x="68" y="0" on="0"/>
        <pt x="63" y="0" on="1"/>
        <pt x="63" y="56" on="1"/>
        <pt x="96" y="56" on="1"/>
        <pt x="101" y="56" on="0"/>
        <pt x="121" y="56" on="0"/>
        <pt x="144" y="57" on="0"/>
        <pt x="164" y="60" on="0"/>
        <pt x="167" y="62" on="1"/>
        <pt x="169" y="64" on="0"/>
        <pt x="170" y="69" on="0"/>
        <pt x="170" y="81" on="1"/>
        <pt x="170" y="630" on="1"/>
        <pt x="63" y="630" on="1"/>
        <pt x="63" y="686" on="1"/>
        <pt x="293" y="686" on="1"/>
        <pt x="309" y="686" on="0"/>
        <pt x="332" y="679" on="0"/>
        <pt x="343" y="658" on="1"/>
        <pt x="607" y="125" on="1"/>
      </contour>
    </TTGlyph>
    <TTGlyph name="N" xMin="57" yMin="0" xMax="944" yMax="686">
      <contour>
        <pt x="767" y="204" on="1"/>
        <pt x="767" y="605" on="1"/>
        <pt x="767" y="620" on="0"/>
        <pt x="760" y="626" on="0"/>
        <pt x="743" y="628" on="1"/>
        <pt x="732" y="629" on="0"/>
        <pt x="704" y="630" on="0"/>
        <pt x="693" y="630" on="1"/>
        <pt x="660" y="630" on="1"/>
        <pt x="660" y="686" on="1"/>
        <pt x="663" y="686" on="0"/>
        <pt x="697" y="685" on="0"/>
        <pt x="742" y="683" on="0"/>
        <pt x="788" y="682" on="0"/>
        <pt x="802" y="682" on="1"/>
        <pt x="816" y="682" on="0"/>
        <pt x="861" y="683" on="0"/>
        <pt x="904" y="684" on="0"/>
        <pt x="939" y="686" on="0"/>
        <pt x="944" y="686" on="1"/>
        <pt x="944" y="630" on="1"/>
        <pt x="911" y="630" on="1"/>
        <pt x="907" y="630" on="0"/>
        <pt x="886" y="630" on="0"/>
        <pt x="863" y="629" on="0"/>
        <pt x="843" y="626" on="0"/>
        <pt x="840" y="624" on="1"/>
        <pt x="838" y="622" on="0"/>
        <pt x="837" y="617" on="0"/>
        <pt x="837" y="605" on="1"/>
        <pt x="837" y="35" on="1"/>
        <pt x="837" y="12" on="0"/>
        <pt x="825" y="0" on="0"/>
        <pt x="802" y="0" on="1"/>
        <pt x="787" y="0" on="0"/>
        <pt x="776" y="3" on="0"/>
        <pt x="768" y="12" on="1"/>
        <pt x="234" y="581" on="1"/>
        <pt x="234" y="81" on="1"/>
        <pt x="234" y="66" on="0"/>
        <pt x="241" y="60" on="0"/>
        <pt x="258" y="58" on="1"/>
        <pt x="269" y="57" on="0"/>
        <pt x="297" y="56" on="0"/>
        <pt x="308" y="56" on="1"/>
        <pt x="341" y="56" on="1"/>
        <pt x="341" y="0" on="1"/>
        <pt x="338" y="0" on="0"/>
        <pt x="304" y="1" on="0"/>
        <pt x="259" y="3" on="0"/>
        <pt x="213" y="4" on="0"/>
        <pt x="199" y="4" on="1"/>
        <pt x="185" y="4" on="0"/>
        <pt x="140" y="3" on="0"/>
        <pt x="97" y="2" on="0"/>
        <pt x="62" y="0" on="0"/>
        <pt x="57" y="0" on="1"/>
        <pt x="57" y="56" on="1"/>
        <pt x="90" y="56" on="1"/>
        <pt x="95" y="56" on="0"/>
        <pt x="115" y="56" on="0"/>
        <pt x="138" y="57" on="0"/>
        <pt x="158" y="60" on="0"/>
        <pt x="161" y="62" on="1"/>
        <pt x="163" y="64" on="0"/>
        <pt x="164" y="69" on="0"/>
        <pt x="164" y="81" on="1"/>
        <pt x="164" y="630" on="1"/>
        <pt x="57" y="630" on="1"/>
        <pt x="57" y="686" on="1"/>
        <pt x="292" y="686" on="1"/>
        <pt x="308" y="686" on="0"/>
        <pt x="318" y="683" on="0"/>
        <pt x="327" y="673" on="1"/>
      </contour>
    </TTGlyph>
    <TTGlyph name="O" xMin="75" yMin="-12" xMax="892" yMax="698">
      <contour>
        <pt x="892" y="339" on="1"/>
        <pt x="892" y="268" on="0"/>
        <pt x="841" y="140" on="0"/>
        <pt x="739" y="44" on="0"/>
        <pt x="586" y="-12" on="0"/>
        <pt x="483" y="-12" on="1"/>
        <pt x="383" y="-12" on="0"/>
        <pt x="230" y="43" on="0"/>
        <pt x="127" y="138" on="0"/>
        <pt x="75" y="266" on="0"/>
        <pt x="75" y="339" on="1"/>
        <pt x="75" y="411" on="0"/>
        <pt x="125" y="541" on="0"/>
        <pt x="227" y="640" on="0"/>
        <pt x="381" y="698" on="0"/>
        <pt x="484" y="698" on="1"/>
        <pt x="585" y="698" on="0"/>
        <pt x="738" y="641" on="0"/>
        <pt x="840" y="543" on="0"/>
        <pt x="892" y="413" on="0"/>
      </contour>
      <contour>
        <pt x="483" y="41" on="1"/>
        <pt x="539" y="41" on="0"/>
        <pt x="646" y="86" on="0"/>
        <pt x="681" y="140" on="1"/>
        <pt x="710" y="187" on="0"/>
        <pt x="729" y="297" on="0"/>
        <pt x="729" y="354" on="1"/>
        <pt x="729" y="369" on="0"/>
        <pt x="727" y="425" on="0"/>
        <pt x="713" y="490" on="0"/>
        <pt x="683" y="557" on="0"/>
        <pt x="629" y="612" on="0"/>
        <pt x="545" y="647" on="0"/>
        <pt x="483" y="647" on="1"/>
        <pt x="424" y="647" on="0"/>
        <pt x="326" y="605" on="0"/>
        <pt x="294" y="566" on="1"/>
        <pt x="275" y="542" on="0"/>
        <pt x="253" y="489" on="0"/>
        <pt x="241" y="434" on="0"/>
        <pt x="238" y="379" on="0"/>
        <pt x="238" y="354" on="1"/>
        <pt x="238" y="333" on="0"/>
        <pt x="241" y="280" on="0"/>
        <pt x="251" y="221" on="0"/>
        <pt x="271" y="163" on="0"/>
        <pt x="288" y="137" on="1"/>
        <pt x="308" y="109" on="0"/>
        <pt x="356" y="72" on="0"/>
        <pt x="408" y="50" on="0"/>
        <pt x="460" y="41" on="0"/>
      </contour>
    </TTGlyph>
    <TTGlyph name="OE" xMin="93" yMin="-12" xMax="1264" yMax="698">
      <contour>
        <pt x="1213" y="0" on="1"/>
        <pt x="720" y="0" on="1"/>
        <pt x="717" y="0" on="0"/>
        <pt x="670" y="-2" on="0"/>
        <pt x="611" y="-7" on="1"/>
        <pt x="569" y="-11" on="0"/>
        <pt x="527" y="-12" on="0"/>
        <pt x="519" y="-12" on="1"/>
        <pt x="411" y="-12" on="0"/>
        <pt x="250" y="45" on="0"/>
        <pt x="145" y="142" on="0"/>
        <pt x="93" y="269" on="0"/>
        <pt x="93" y="339" on="1"/>
        <pt x="93" y="409" on="0"/>
        <pt x="144" y="539" on="0"/>
        <pt x="249" y="638" on="0"/>
        <pt x="410" y="698" on="0"/>
        <pt x="519" y="698" on="1"/>
        <pt x="525" y="698" on="0"/>
        <pt x="570" y="697" on="0"/>
        <pt x="612" y="693" on="1"/>
        <pt x="670" y="688" on="0"/>
        <pt x="715" y="686" on="0"/>
        <pt x="720" y="686" on="1"/>
        <pt x="1195" y="686" on="1"/>
        <pt x="1229" y="447" on="1"/>
        <pt x="1166" y="447" on="1"/>
        <pt x="1159" y="498" on="0"/>
        <pt x="1133" y="567" on="0"/>
        <pt x="1085" y="611" on="0"/>
        <pt x="1013" y="630" on="0"/>
        <pt x="959" y="630" on="1"/>
        <pt x="794" y="630" on="1"/>
        <pt x="794" y="384" on="1"/>
        <pt x="897" y="384" on="1"/>
        <pt x="926" y="384" on="0"/>
        <pt x="974" y="391" on="0"/>
        <pt x="1008" y="414" on="0"/>
        <pt x="1027" y="457" on="0"/>
        <pt x="1027" y="494" on="1"/>
        <pt x="1090" y="494" on="1"/>
        <pt x="1090" y="218" on="1"/>
        <pt x="1027" y="218" on="1"/>
        <pt x="1027" y="255" on="0"/>
        <pt x="1008" y="298" on="0"/>
        <pt x="974" y="321" on="0"/>
        <pt x="926" y="328" on="0"/>
        <pt x="897" y="328" on="1"/>
        <pt x="794" y="328" on="1"/>
        <pt x="794" y="56" on="1"/>
        <pt x="965" y="56" on="1"/>
        <pt x="1032" y="56" on="0"/>
        <pt x="1115" y="85" on="0"/>
        <pt x="1166" y="140" on="0"/>
        <pt x="1192" y="219" on="0"/>
        <pt x="1201" y="269" on="1"/>
        <pt x="1264" y="269" on="1"/>
      </contour>
      <contour>
        <pt x="661" y="486" on="1"/>
        <pt x="661" y="542" on="0"/>
        <pt x="645" y="608" on="0"/>
        <pt x="612" y="642" on="0"/>
        <pt x="561" y="652" on="0"/>
        <pt x="526" y="652" on="1"/>
        <pt x="457" y="652" on="0"/>
        <pt x="353" y="606" on="0"/>
        <pt x="284" y="527" on="0"/>
        <pt x="249" y="418" on="0"/>
        <pt x="249" y="355" on="1"/>
        <pt x="249" y="289" on="0"/>
        <pt x="283" y="172" on="0"/>
        <pt x="352" y="85" on="0"/>
        <pt x="456" y="34" on="0"/>
        <pt x="526" y="34" on="1"/>
        <pt x="561" y="34" on="0"/>
        <pt x="611" y="44" on="0"/>
        <pt x="645" y="78" on="0"/>
        <pt x="661" y="144" on="0"/>
        <pt x="661" y="200" on="1"/>
      </contour>
    </TTGlyph>
    <TTGlyph name="Oslash" xMin="75" yMin="-65" xMax="926" yMax="751">
      <contour>
        <pt x="760" y="635" on="1"/>
        <pt x="805" y="609" on="0"/>
        <pt x="869" y="539" on="0"/>
        <pt x="908" y="461" on="0"/>
        <pt x="926" y="378" on="0"/>
        <pt x="926" y="339" on="1"/>
        <pt x="926" y="270" on="0"/>
        <pt x="874" y="143" on="0"/>
        <pt x="769" y="46" on="0"/>
        <pt x="609" y="-12" on="0"/>
        <pt x="500" y="-12" on="1"/>
        <pt x="446" y="-12" on="0"/>
        <pt x="337" y="6" on="0"/>
        <pt x="287" y="26" on="1"/>
        <pt x="216" y="-65" on="1"/>
        <pt x="177" y="-33" on="1"/>
        <pt x="240" y="50" on="1"/>
        <pt x="188" y="80" on="0"/>
        <pt x="124" y="155" on="0"/>
        <pt x="88" y="234" on="0"/>
        <pt x="75" y="309" on="0"/>
        <pt x="75" y="339" on="1"/>
        <pt x="75" y="409" on="0"/>
        <pt x="126" y="538" on="0"/>
        <pt x="231" y="638" on="0"/>
        <pt x="392" y="698" on="0"/>
        <pt x="501" y="698" on="1"/>
        <pt x="558" y="698" on="0"/>
        <pt x="668" y="679" on="0"/>
        <pt x="714" y="659" on="1"/>
        <pt x="784" y="751" on="1"/>
        <pt x="825" y="719" on="1"/>
      </contour>
      <contour>
        <pt x="673" y="607" on="1"/>
        <pt x="635" y="632" on="0"/>
        <pt x="545" y="652" on="0"/>
        <pt x="500" y="652" on="1"/>
        <pt x="425" y="652" on="0"/>
        <pt x="321" y="607" on="0"/>
        <pt x="292" y="575" on="1"/>
        <pt x="273" y="554" on="0"/>
        <pt x="247" y="507" on="0"/>
        <pt x="232" y="450" on="0"/>
        <pt x="226" y="381" on="0"/>
        <pt x="226" y="339" on="1"/>
        <pt x="226" y="311" on="0"/>
        <pt x="229" y="250" on="0"/>
        <pt x="242" y="191" on="0"/>
        <pt x="267" y="135" on="0"/>
        <pt x="288" y="111" on="1"/>
      </contour>
      <contour>
        <pt x="328" y="78" on="1"/>
        <pt x="351" y="63" on="0"/>
        <pt x="400" y="46" on="0"/>
        <pt x="447" y="37" on="0"/>
        <pt x="487" y="34" on="0"/>
        <pt x="501" y="34" on="1"/>
        <pt x="570" y="34" on="0"/>
        <pt x="663" y="67" on="0"/>
        <pt x="724" y="119" on="0"/>
        <pt x="757" y="186" on="0"/>
        <pt x="772" y="253" on="0"/>
        <pt x="775" y="316" on="0"/>
        <pt x="775" y="339" on="1"/>
        <pt x="775" y="411" on="0"/>
        <pt x="752" y="528" on="0"/>
        <pt x="712" y="573" on="1"/>
      </contour>
    </TTGlyph>
    <TTGlyph name="P" xMin="57" yMin="0" xMax="803" yMax="686">
      <contour>
        <pt x="315" y="56" on="1"/>
        <pt x="422" y="56" on="1"/>
        <pt x="422" y="0" on="1"/>
        <pt x="414" y="1" on="0"/>
        <pt x="361" y="2" on="0"/>
        <pt x="300" y="3" on="0"/>
        <pt x="247" y="4" on="0"/>
        <pt x="239" y="4" on="1"/>
        <pt x="233" y="4" on="0"/>
        <pt x="181" y="3" on="0"/>
        <pt x="120" y="2" on="0"/>
        <pt x="66" y="1" on="0"/>
        <pt x="57" y="0" on="1"/>
        <pt x="57" y="56" on="1"/>
        <pt x="164" y="56" on="1"/>
        <pt x="164" y="630" on="1"/>
        <pt x="57" y="630" on="1"/>
        <pt x="57" y="686" on="1"/>
        <pt x="510" y="686" on="1"/>
        <pt x="580" y="686" on="0"/>
        <pt x="689" y="654" on="0"/>
        <pt x="764" y="600" on="0"/>
        <pt x="803" y="528" on="0"/>
        <pt x="803" y="487" on="1"/>
        <pt x="803" y="446" on="0"/>
        <pt x="763" y="375" on="0"/>
        <pt x="687" y="322" on="0"/>
        <pt x="579" y="292" on="0"/>
        <pt x="510" y="292" on="1"/>
        <pt x="315" y="292" on="1"/>
      </contour>
      <contour>
        <pt x="308" y="630" on="1"/>
        <pt x="308" y="343" on="1"/>
        <pt x="474" y="343" on="1"/>
        <pt x="536" y="343" on="0"/>
        <pt x="604" y="370" on="0"/>
        <pt x="635" y="412" on="0"/>
        <pt x="640" y="463" on="0"/>
        <pt x="640" y="487" on="1"/>
        <pt x="640" y="511" on="0"/>
        <pt x="635" y="562" on="0"/>
        <pt x="604" y="603" on="0"/>
        <pt x="538" y="630" on="0"/>
        <pt x="476" y="630" on="1"/>
      </contour>
    </TTGlyph>
    <TTGlyph name="Phi" xMin="75" yMin="0" xMax="855" yMax="686">
      <contour>
        <pt x="528" y="630" on="1"/>
        <pt x="528" y="544" on="1"/>
        <pt x="528" y="531" on="0"/>
        <pt x="532" y="526" on="0"/>
        <pt x="541" y="525" on="1"/>
        <pt x="617" y="520" on="0"/>
        <pt x="734" y="487" on="0"/>
        <pt x="814" y="439" on="0"/>
        <pt x="855" y="378" on="0"/>
        <pt x="855" y="343" on="1"/>
        <pt x="855" y="312" on="0"/>
        <pt x="818" y="251" on="0"/>
        <pt x="740" y="201" on="0"/>
        <pt x="621" y="167" on="0"/>
        <pt x="539" y="161" on="1"/>
        <pt x="531" y="160" on="0"/>
        <pt x="528" y="155" on="0"/>
        <pt x="528" y="142" on="1"/>
        <pt x="528" y="56" on="1"/>
        <pt x="662" y="56" on="1"/>
        <pt x="662" y="0" on="1"/>
        <pt x="644" y="2" on="0"/>
        <pt x="591" y="3" on="0"/>
        <pt x="533" y="4" on="0"/>
        <pt x="479" y="4" on="0"/>
        <pt x="459" y="4" on="1"/>
        <pt x="440" y="4" on="0"/>
        <pt x="385" y="4" on="0"/>
        <pt x="327" y="3" on="0"/>
        <pt x="274" y="2" on="0"/>
        <pt x="256" y="0" on="1"/>
        <pt x="256" y="56" on="1"/>
        <pt x="390" y="56" on="1"/>
        <pt x="390" y="161" on="1"/>
        <pt x="298" y="168" on="0"/>
        <pt x="176" y="207" on="0"/>
        <pt x="104" y="259" on="0"/>
        <pt x="75" y="317" on="0"/>
        <pt x="75" y="343" on="1"/>
        <pt x="75" y="370" on="0"/>
        <pt x="105" y="428" on="0"/>
        <pt x="177" y="479" on="0"/>
        <pt x="299" y="518" on="0"/>
        <pt x="390" y="525" on="1"/>
        <pt x="390" y="630" on="1"/>
        <pt x="256" y="630" on="1"/>
        <pt x="256" y="686" on="1"/>
        <pt x="274" y="685" on="0"/>
        <pt x="327" y="683" on="0"/>
        <pt x="385" y="682" on="0"/>
        <pt x="440" y="682" on="0"/>
        <pt x="459" y="682" on="1"/>
        <pt x="479" y="682" on="0"/>
        <pt x="533" y="682" on="0"/>
        <pt x="591" y="683" on="0"/>
        <pt x="644" y="685" on="0"/>
        <pt x="662" y="686" on="1"/>
        <pt x="662" y="630" on="1"/>
      </contour>
      <contour>
        <pt x="390" y="479" on="1"/>
        <pt x="301" y="472" on="0"/>
        <pt x="231" y="400" on="0"/>
        <pt x="231" y="343" on="1"/>
        <pt x="231" y="285" on="0"/>
        <pt x="303" y="215" on="0"/>
        <pt x="390" y="207" on="1"/>
      </contour>
      <contour>
        <pt x="528" y="206" on="1"/>
        <pt x="577" y="209" on="0"/>
        <pt x="642" y="231" on="0"/>
        <pt x="682" y="266" on="0"/>
        <pt x="699" y="314" on="0"/>
        <pt x="699" y="343" on="1"/>
        <pt x="699" y="372" on="0"/>
        <pt x="682" y="420" on="0"/>
        <pt x="642" y="455" on="0"/>
        <pt x="577" y="477" on="0"/>
        <pt x="528" y="480" on="1"/>
      </contour>
    </TTGlyph>
    <TTGlyph name="Pi" xMin="57" yMin="0" xMax="944" yMax="679">
      <contour>
        <pt x="837" y="56" on="1"/>
        <pt x="944" y="56" on="1"/>
        <pt x="944" y="0" on="1"/>
        <pt x="936" y="1" on="0"/>
        <pt x="883" y="2" on="0"/>
        <pt x="822" y="3" on="0"/>
        <pt x="769" y="4" on="0"/>
        <pt x="761" y="4" on="1"/>
        <pt x="755" y="4" on="0"/>
        <pt x="703" y="3" on="0"/>
        <pt x="642" y="2" on="0"/>
        <pt x="588" y="1" on="0"/>
        <pt x="579" y="0" on="1"/>
        <pt x="579" y="56" on="1"/>
        <pt x="686" y="56" on="1"/>
        <pt x="686" y="623" on="1"/>
        <pt x="315" y="623" on="1"/>
        <pt x="315" y="56" on="1"/>
        <pt x="422" y="56" on="1"/>
        <pt x="422" y="0" on="1"/>
        <pt x="414" y="1" on="0"/>
        <pt x="361" y="2" on="0"/>
        <pt x="300" y="3" on="0"/>
        <pt x="247" y="4" on="0"/>
        <pt x="239" y="4" on="1"/>
        <pt x="233" y="4" on="0"/>
        <pt x="181" y="3" on="0"/>
        <pt x="120" y="2" on="0"/>
        <pt x="66" y="1" on="0"/>
        <pt x="57" y="0" on="1"/>
        <pt x="57" y="56" on="1"/>
        <pt x="164" y="56" on="1"/>
        <pt x="164" y="623" on="1"/>
        <pt x="57" y="623" on="1"/>
        <pt x="57" y="679" on="1"/>
        <pt x="944" y="679" on="1"/>
        <pt x="944" y="623" on="1"/>
        <pt x="837" y="623" on="1"/>
      </contour>
    </TTGlyph>
    <TTGlyph name="Psi" xMin="75" yMin="0" xMax="926" yMax="686">
      <contour>
        <pt x="563" y="211" on="1"/>
        <pt x="605" y="219" on="0"/>
        <pt x="663" y="254" on="0"/>
        <pt x="699" y="305" on="0"/>
        <pt x="715" y="366" on="0"/>
        <pt x="715" y="399" on="1"/>
        <pt x="716" y="464" on="0"/>
        <pt x="762" y="543" on="0"/>
        <pt x="818" y="543" on="1"/>
        <pt x="891" y="543" on="1"/>
        <pt x="902" y="543" on="0"/>
        <pt x="926" y="537" on="0"/>
        <pt x="926" y="520" on="1"/>
        <pt x="926" y="505" on="0"/>
        <pt x="907" y="498" on="0"/>
        <pt x="901" y="497" on="1"/>
        <pt x="884" y="495" on="0"/>
        <pt x="864" y="470" on="0"/>
        <pt x="855" y="439" on="0"/>
        <pt x="853" y="408" on="0"/>
        <pt x="853" y="399" on="1"/>
        <pt x="853" y="391" on="0"/>
        <pt x="847" y="348" on="0"/>
        <pt x="827" y="294" on="0"/>
        <pt x="787" y="238" on="0"/>
        <pt x="754" y="217" on="1"/>
        <pt x="711" y="190" on="0"/>
        <pt x="616" y="165" on="0"/>
        <pt x="563" y="161" on="1"/>
        <pt x="563" y="56" on="1"/>
        <pt x="697" y="56" on="1"/>
        <pt x="697" y="0" on="1"/>
        <pt x="679" y="2" on="0"/>
        <pt x="626" y="3" on="0"/>
        <pt x="568" y="4" on="0"/>
        <pt x="514" y="4" on="0"/>
        <pt x="494" y="4" on="1"/>
        <pt x="475" y="4" on="0"/>
        <pt x="420" y="4" on="0"/>
        <pt x="362" y="3" on="0"/>
        <pt x="309" y="2" on="0"/>
        <pt x="291" y="0" on="1"/>
        <pt x="291" y="56" on="1"/>
        <pt x="425" y="56" on="1"/>
        <pt x="425" y="161" on="1"/>
        <pt x="407" y="163" on="0"/>
        <pt x="358" y="170" on="0"/>
        <pt x="304" y="185" on="0"/>
        <pt x="249" y="211" on="0"/>
        <pt x="225" y="231" on="1"/>
        <pt x="203" y="250" on="0"/>
        <pt x="174" y="296" on="0"/>
        <pt x="156" y="342" on="0"/>
        <pt x="148" y="383" on="0"/>
        <pt x="148" y="397" on="1"/>
        <pt x="148" y="412" on="0"/>
        <pt x="145" y="445" on="0"/>
        <pt x="135" y="474" on="0"/>
        <pt x="114" y="495" on="0"/>
        <pt x="94" y="497" on="1"/>
        <pt x="90" y="498" on="0"/>
        <pt x="75" y="507" on="0"/>
        <pt x="75" y="520" on="1"/>
        <pt x="75" y="537" on="0"/>
        <pt x="100" y="543" on="0"/>
        <pt x="111" y="543" on="1"/>
        <pt x="183" y="543" on="1"/>
        <pt x="221" y="543" on="0"/>
        <pt x="263" y="506" on="0"/>
        <pt x="283" y="460" on="0"/>
        <pt x="286" y="422" on="0"/>
        <pt x="286" y="420" on="1"/>
        <pt x="286" y="399" on="0"/>
        <pt x="291" y="337" on="0"/>
        <pt x="318" y="275" on="0"/>
        <pt x="374" y="223" on="0"/>
        <pt x="425" y="212" on="1"/>
        <pt x="425" y="630" on="1"/>
        <pt x="291" y="630" on="1"/>
        <pt x="291" y="686" on="1"/>
        <pt x="309" y="685" on="0"/>
        <pt x="362" y="683" on="0"/>
        <pt x="420" y="682" on="0"/>
        <pt x="475" y="682" on="0"/>
        <pt x="494" y="682" on="1"/>
        <pt x="514" y="682" on="0"/>
        <pt x="568" y="682" on="0"/>
        <pt x="626" y="683" on="0"/>
        <pt x="679" y="685" on="0"/>
        <pt x="697" y="686" on="1"/>
        <pt x="697" y="630" on="1"/>
        <pt x="563" y="630" on="1"/>
      </contour>
    </TTGlyph>
    <TTGlyph name="Q" xMin="75" yMin="-194" xMax="899" yMax="698">
      <contour>
        <pt x="669" y="19" on="1"/>
        <pt x="684" y="0" on="0"/>
        <pt x="710" y="-20" on="0"/>
        <pt x="735" y="-29" on="0"/>
        <pt x="757" y="-31" on="0"/>
        <pt x="767" y="-31" on="1"/>
        <pt x="816" y="-31" on="0"/>
        <pt x="853" y="-16" on="0"/>
        <pt x="855" y="-2" on="1"/>
        <pt x="856" y="3" on="0"/>
        <pt x="863" y="22" on="0"/>
        <pt x="877" y="22" on="1"/>
        <pt x="885" y="22" on="0"/>
        <pt x="894" y="15" on="0"/>
        <pt x="898" y="5" on="0"/>
        <pt x="899" y="-4" on="0"/>
        <pt x="899" y="-7" on="1"/>
        <pt x="899" y="-36" on="0"/>
        <pt x="880" y="-102" on="0"/>
        <pt x="842" y="-158" on="0"/>
        <pt x="784" y="-194" on="0"/>
        <pt x="746" y="-194" on="1"/>
        <pt x="709" y="-194" on="0"/>
        <pt x="658" y="-162" on="0"/>
        <pt x="622" y="-108" on="0"/>
        <pt x="598" y="-39" on="0"/>
        <pt x="587" y="-3" on="1"/>
        <pt x="556" y="-9" on="0"/>
        <pt x="501" y="-12" on="0"/>
        <pt x="483" y="-12" on="1"/>
        <pt x="383" y="-12" on="0"/>
        <pt x="230" y="43" on="0"/>
        <pt x="127" y="138" on="0"/>
        <pt x="75" y="266" on="0"/>
        <pt x="75" y="339" on="1"/>
        <pt x="75" y="411" on="0"/>
        <pt x="125" y="541" on="0"/>
        <pt x="227" y="640" on="0"/>
        <pt x="381" y="698" on="0"/>
        <pt x="484" y="698" on="1"/>
        <pt x="585" y="698" on="0"/>
        <pt x="738" y="641" on="0"/>
        <pt x="840" y="543" on="0"/>
        <pt x="892" y="413" on="0"/>
        <pt x="892" y="339" on="1"/>
        <pt x="892" y="302" on="0"/>
        <pt x="874" y="212" on="0"/>
        <pt x="824" y="124" on="0"/>
        <pt x="738" y="45" on="0"/>
      </contour>
      <contour>
        <pt x="373" y="60" on="1"/>
        <pt x="372" y="64" on="0"/>
        <pt x="372" y="75" on="1"/>
        <pt x="372" y="95" on="0"/>
        <pt x="390" y="126" on="0"/>
        <pt x="421" y="148" on="0"/>
        <pt x="461" y="160" on="0"/>
        <pt x="483" y="160" on="1"/>
        <pt x="507" y="160" on="0"/>
        <pt x="547" y="145" on="0"/>
        <pt x="580" y="121" on="0"/>
        <pt x="609" y="91" on="0"/>
        <pt x="623" y="75" on="1"/>
        <pt x="662" y="98" on="0"/>
        <pt x="707" y="164" on="0"/>
        <pt x="730" y="237" on="0"/>
        <pt x="736" y="309" on="0"/>
        <pt x="736" y="339" on="1"/>
        <pt x="736" y="360" on="0"/>
        <pt x="733" y="413" on="0"/>
        <pt x="723" y="468" on="0"/>
        <pt x="704" y="524" on="0"/>
        <pt x="687" y="549" on="1"/>
        <pt x="668" y="577" on="0"/>
        <pt x="618" y="615" on="0"/>
        <pt x="564" y="637" on="0"/>
        <pt x="509" y="647" on="0"/>
        <pt x="483" y="647" on="1"/>
        <pt x="461" y="647" on="0"/>
        <pt x="409" y="639" on="0"/>
        <pt x="355" y="618" on="0"/>
        <pt x="303" y="580" on="0"/>
        <pt x="281" y="550" on="1"/>
        <pt x="263" y="525" on="0"/>
        <pt x="243" y="464" on="0"/>
        <pt x="233" y="406" on="0"/>
        <pt x="231" y="355" on="0"/>
        <pt x="231" y="339" on="1"/>
        <pt x="231" y="311" on="0"/>
        <pt x="237" y="232" on="0"/>
        <pt x="265" y="153" on="0"/>
        <pt x="322" y="81" on="0"/>
      </contour>
      <contour>
        <pt x="566" y="50" on="1"/>
        <pt x="550" y="85" on="0"/>
        <pt x="510" y="114" on="0"/>
        <pt x="483" y="114" on="1"/>
        <pt x="473" y="114" on="0"/>
        <pt x="451" y="110" on="0"/>
        <pt x="431" y="100" on="0"/>
        <pt x="418" y="86" on="0"/>
        <pt x="418" y="75" on="1"/>
        <pt x="418" y="62" on="0"/>
        <pt x="435" y="47" on="0"/>
        <pt x="458" y="40" on="0"/>
        <pt x="480" y="39" on="0"/>
        <pt x="484" y="39" on="1"/>
        <pt x="515" y="39" on="0"/>
        <pt x="561" y="48" on="0"/>
      </contour>
    </TTGlyph>
    <TTGlyph name="R" xMin="57" yMin="-12" xMax="951" yMax="686">
      <contour>
        <pt x="630" y="339" on="1"/>
        <pt x="665" y="326" on="0"/>
        <pt x="706" y="291" on="0"/>
        <pt x="729" y="249" on="0"/>
        <pt x="738" y="202" on="0"/>
        <pt x="742" y="177" on="1"/>
        <pt x="746" y="148" on="0"/>
        <pt x="755" y="96" on="0"/>
        <pt x="772" y="57" on="0"/>
        <pt x="802" y="34" on="0"/>
        <pt x="826" y="34" on="1"/>
        <pt x="834" y="34" on="0"/>
        <pt x="854" y="40" on="0"/>
        <pt x="872" y="55" on="0"/>
        <pt x="886" y="81" on="0"/>
        <pt x="888" y="101" on="1"/>
        <pt x="890" y="118" on="0"/>
        <pt x="908" y="124" on="0"/>
        <pt x="919" y="124" on="1"/>
        <pt x="930" y="124" on="0"/>
        <pt x="951" y="118" on="0"/>
        <pt x="951" y="99" on="1"/>
        <pt x="951" y="91" on="0"/>
        <pt x="942" y="54" on="0"/>
        <pt x="914" y="17" on="0"/>
        <pt x="861" y="-12" on="0"/>
        <pt x="816" y="-12" on="1"/>
        <pt x="729" y="-12" on="0"/>
        <pt x="636" y="20" on="0"/>
        <pt x="592" y="71" on="0"/>
        <pt x="585" y="133" on="0"/>
        <pt x="585" y="163" on="1"/>
        <pt x="585" y="190" on="0"/>
        <pt x="584" y="228" on="0"/>
        <pt x="577" y="255" on="0"/>
        <pt x="563" y="277" on="0"/>
        <pt x="549" y="287" on="1"/>
        <pt x="518" y="312" on="0"/>
        <pt x="461" y="320" on="0"/>
        <pt x="447" y="320" on="1"/>
        <pt x="308" y="320" on="1"/>
        <pt x="308" y="56" on="1"/>
        <pt x="415" y="56" on="1"/>
        <pt x="415" y="0" on="1"/>
        <pt x="405" y="1" on="0"/>
        <pt x="347" y="2" on="0"/>
        <pt x="286" y="3" on="0"/>
        <pt x="237" y="4" on="0"/>
        <pt x="236" y="4" on="1"/>
        <pt x="233" y="4" on="0"/>
        <pt x="183" y="3" on="0"/>
        <pt x="122" y="2" on="0"/>
        <pt x="66" y="1" on="0"/>
        <pt x="57" y="0" on="1"/>
        <pt x="57" y="56" on="1"/>
        <pt x="164" y="56" on="1"/>
        <pt x="164" y="630" on="1"/>
        <pt x="57" y="630" on="1"/>
        <pt x="57" y="686" on="1"/>
        <pt x="467" y="686" on="1"/>
        <pt x="541" y="686" on="0"/>
        <pt x="662" y="658" on="0"/>
        <pt x="748" y="607" on="0"/>
        <pt x="795" y="539" on="0"/>
        <pt x="795" y="498" on="1"/>
        <pt x="795" y="462" on="0"/>
        <pt x="759" y="408" on="0"/>
        <pt x="707" y="369" on="0"/>
        <pt x="651" y="345" on="0"/>
      </contour>
      <contour>
        <pt x="453" y="366" on="1"/>
        <pt x="515" y="366" on="0"/>
        <pt x="587" y="390" on="0"/>
        <pt x="623" y="427" on="0"/>
        <pt x="632" y="474" on="0"/>
        <pt x="632" y="498" on="1"/>
        <pt x="632" y="522" on="0"/>
        <pt x="623" y="570" on="0"/>
        <pt x="587" y="607" on="0"/>
        <pt x="517" y="630" on="0"/>
        <pt x="457" y="630" on="1"/>
        <pt x="308" y="630" on="1"/>
        <pt x="308" y="366" on="1"/>
      </contour>
    </TTGlyph>
    <TTGlyph name="S" xMin="75" yMin="-12" xMax="642" yMax="698">
      <contour>
        <pt x="450" y="414" on="1"/>
        <pt x="486" y="407" on="0"/>
        <pt x="555" y="372" on="0"/>
        <pt x="609" y="318" on="0"/>
        <pt x="642" y="246" on="0"/>
        <pt x="642" y="203" on="1"/>
        <pt x="642" y="167" on="0"/>
        <pt x="616" y="91" on="0"/>
        <pt x="557" y="28" on="0"/>
        <pt x="461" y="-12" on="0"/>
        <pt x="390" y="-12" on="1"/>
        <pt x="338" y="-12" on="0"/>
        <pt x="218" y="8" on="0"/>
        <pt x="166" y="40" on="1"/>
        <pt x="158" y="33" on="0"/>
        <pt x="127" y="3" on="0"/>
        <pt x="119" y="-5" on="1"/>
        <pt x="114" y="-10" on="0"/>
        <pt x="107" y="-12" on="0"/>
        <pt x="98" y="-12" on="1"/>
        <pt x="81" y="-12" on="0"/>
        <pt x="75" y="5" on="0"/>
        <pt x="75" y="20" on="1"/>
        <pt x="75" y="196" on="1"/>
        <pt x="75" y="218" on="0"/>
        <pt x="85" y="228" on="0"/>
        <pt x="107" y="228" on="1"/>
        <pt x="129" y="228" on="0"/>
        <pt x="137" y="217" on="0"/>
        <pt x="138" y="202" on="1"/>
        <pt x="141" y="153" on="0"/>
        <pt x="190" y="91" on="0"/>
        <pt x="262" y="56" on="0"/>
        <pt x="348" y="44" on="0"/>
        <pt x="389" y="44" on="1"/>
        <pt x="446" y="44" on="0"/>
        <pt x="507" y="76" on="0"/>
        <pt x="535" y="117" on="0"/>
        <pt x="540" y="153" on="0"/>
        <pt x="540" y="157" on="1"/>
        <pt x="540" y="179" on="0"/>
        <pt x="523" y="215" on="0"/>
        <pt x="495" y="242" on="0"/>
        <pt x="459" y="261" on="0"/>
        <pt x="441" y="266" on="1"/>
        <pt x="438" y="267" on="0"/>
        <pt x="419" y="271" on="0"/>
        <pt x="393" y="275" on="0"/>
        <pt x="366" y="280" on="0"/>
        <pt x="355" y="282" on="1"/>
        <pt x="308" y="291" on="0"/>
        <pt x="241" y="306" on="0"/>
        <pt x="189" y="324" on="0"/>
        <pt x="148" y="350" on="0"/>
        <pt x="128" y="370" on="1"/>
        <pt x="105" y="393" on="0"/>
        <pt x="75" y="457" on="0"/>
        <pt x="75" y="497" on="1"/>
        <pt x="75" y="532" on="0"/>
        <pt x="102" y="603" on="0"/>
        <pt x="161" y="661" on="0"/>
        <pt x="256" y="698" on="0"/>
        <pt x="324" y="698" on="1"/>
        <pt x="367" y="698" on="0"/>
        <pt x="462" y="679" on="0"/>
        <pt x="505" y="650" on="1"/>
        <pt x="510" y="646" on="0"/>
        <pt x="512" y="645" on="0"/>
        <pt x="513" y="645" on="1"/>
        <pt x="514" y="645" on="0"/>
        <pt x="517" y="647" on="0"/>
        <pt x="523" y="653" on="1"/>
        <pt x="557" y="685" on="1"/>
        <pt x="567" y="695" on="0"/>
        <pt x="575" y="698" on="0"/>
        <pt x="583" y="698" on="1"/>
        <pt x="600" y="698" on="0"/>
        <pt x="606" y="681" on="0"/>
        <pt x="606" y="666" on="1"/>
        <pt x="606" y="490" on="1"/>
        <pt x="606" y="468" on="0"/>
        <pt x="596" y="458" on="0"/>
        <pt x="574" y="458" on="1"/>
        <pt x="553" y="458" on="0"/>
        <pt x="545" y="468" on="0"/>
        <pt x="541" y="487" on="1"/>
        <pt x="532" y="536" on="0"/>
        <pt x="486" y="598" on="0"/>
        <pt x="425" y="634" on="0"/>
        <pt x="356" y="647" on="0"/>
        <pt x="324" y="647" on="1"/>
        <pt x="280" y="647" on="0"/>
        <pt x="223" y="627" on="0"/>
        <pt x="190" y="597" on="0"/>
        <pt x="177" y="561" on="0"/>
        <pt x="177" y="545" on="1"/>
        <pt x="177" y="513" on="0"/>
        <pt x="231" y="457" on="0"/>
        <pt x="286" y="446" on="1"/>
      </contour>
    </TTGlyph>
    <TTGlyph name="Sigma" xMin="75" yMin="0" xMax="855" yMax="686">
      <contour>
        <pt x="238" y="75" on="1"/>
        <pt x="516" y="75" on="1"/>
        <pt x="566" y="75" on="0"/>
        <pt x="658" y="84" on="0"/>
        <pt x="732" y="121" on="0"/>
        <pt x="783" y="194" on="0"/>
        <pt x="792" y="258" on="1"/>
        <pt x="855" y="258" on="1"/>
        <pt x="821" y="0" on="1"/>
        <pt x="111" y="0" on="1"/>
        <pt x="106" y="0" on="0"/>
        <pt x="93" y="1" on="0"/>
        <pt x="82" y="5" on="0"/>
        <pt x="75" y="14" on="0"/>
        <pt x="75" y="22" on="1"/>
        <pt x="75" y="30" on="0"/>
        <pt x="82" y="37" on="0"/>
        <pt x="91" y="45" on="1"/>
        <pt x="393" y="297" on="1"/>
        <pt x="86" y="631" on="1"/>
        <pt x="78" y="640" on="0"/>
        <pt x="75" y="650" on="0"/>
        <pt x="75" y="658" on="1"/>
        <pt x="75" y="679" on="0"/>
        <pt x="97" y="686" on="0"/>
        <pt x="111" y="686" on="1"/>
        <pt x="821" y="686" on="1"/>
        <pt x="855" y="447" on="1"/>
        <pt x="792" y="447" on="1"/>
        <pt x="784" y="502" on="0"/>
        <pt x="733" y="585" on="0"/>
        <pt x="692" y="605" on="1"/>
        <pt x="666" y="617" on="0"/>
        <pt x="573" y="630" on="0"/>
        <pt x="513" y="630" on="1"/>
        <pt x="292" y="630" on="1"/>
        <pt x="529" y="372" on="1"/>
        <pt x="543" y="358" on="0"/>
        <pt x="548" y="349" on="0"/>
        <pt x="548" y="343" on="1"/>
        <pt x="548" y="335" on="0"/>
        <pt x="541" y="328" on="0"/>
        <pt x="532" y="320" on="1"/>
      </contour>
    </TTGlyph>
    <TTGlyph name="T" xMin="50" yMin="0" xMax="846" yMax="673">
      <contour>
        <pt x="846" y="434" on="1"/>
        <pt x="783" y="434" on="1"/>
        <pt x="779" y="475" on="0"/>
        <pt x="766" y="543" on="0"/>
        <pt x="731" y="591" on="0"/>
        <pt x="667" y="617" on="0"/>
        <pt x="613" y="617" on="1"/>
        <pt x="524" y="617" on="1"/>
        <pt x="524" y="56" on="1"/>
        <pt x="676" y="56" on="1"/>
        <pt x="676" y="0" on="1"/>
        <pt x="654" y="2" on="0"/>
        <pt x="593" y="3" on="0"/>
        <pt x="571" y="3" on="1"/>
        <pt x="329" y="3" on="1"/>
        <pt x="319" y="3" on="0"/>
        <pt x="290" y="3" on="0"/>
        <pt x="259" y="2" on="0"/>
        <pt x="231" y="1" on="0"/>
        <pt x="221" y="0" on="1"/>
        <pt x="221" y="56" on="1"/>
        <pt x="373" y="56" on="1"/>
        <pt x="373" y="617" on="1"/>
        <pt x="283" y="617" on="1"/>
        <pt x="229" y="617" on="0"/>
        <pt x="165" y="590" on="0"/>
        <pt x="131" y="542" on="0"/>
        <pt x="117" y="475" on="0"/>
        <pt x="113" y="434" on="1"/>
        <pt x="50" y="434" on="1"/>
        <pt x="74" y="673" on="1"/>
        <pt x="822" y="673" on="1"/>
      </contour>
    </TTGlyph>
    <TTGlyph name="Theta" xMin="75" yMin="-12" xMax="926" yMax="698">
      <contour>
        <pt x="926" y="339" on="1"/>
        <pt x="926" y="270" on="0"/>
        <pt x="874" y="143" on="0"/>
        <pt x="769" y="46" on="0"/>
        <pt x="609" y="-12" on="0"/>
        <pt x="500" y="-12" on="1"/>
        <pt x="393" y="-12" on="0"/>
        <pt x="233" y="45" on="0"/>
        <pt x="127" y="141" on="0"/>
        <pt x="75" y="269" on="0"/>
        <pt x="75" y="339" on="1"/>
        <pt x="75" y="409" on="0"/>
        <pt x="126" y="538" on="0"/>
        <pt x="231" y="638" on="0"/>
        <pt x="392" y="698" on="0"/>
        <pt x="501" y="698" on="1"/>
        <pt x="609" y="698" on="0"/>
        <pt x="769" y="639" on="0"/>
        <pt x="874" y="539" on="0"/>
        <pt x="926" y="410" on="0"/>
      </contour>
      <contour>
        <pt x="500" y="36" on="1"/>
        <pt x="562" y="36" on="0"/>
        <pt x="652" y="66" on="0"/>
        <pt x="713" y="116" on="0"/>
        <pt x="750" y="180" on="0"/>
        <pt x="770" y="247" on="0"/>
        <pt x="776" y="313" on="0"/>
        <pt x="776" y="339" on="1"/>
        <pt x="776" y="357" on="0"/>
        <pt x="773" y="411" on="0"/>
        <pt x="761" y="471" on="0"/>
        <pt x="738" y="531" on="0"/>
        <pt x="718" y="556" on="1"/>
        <pt x="696" y="585" on="0"/>
        <pt x="642" y="622" on="0"/>
        <pt x="585" y="643" on="0"/>
        <pt x="527" y="652" on="0"/>
        <pt x="500" y="652" on="1"/>
        <pt x="439" y="652" on="0"/>
        <pt x="327" y="609" on="0"/>
        <pt x="289" y="564" on="1"/>
        <pt x="250" y="516" on="0"/>
        <pt x="225" y="399" on="0"/>
        <pt x="225" y="339" on="1"/>
        <pt x="225" y="320" on="0"/>
        <pt x="228" y="268" on="0"/>
        <pt x="240" y="212" on="0"/>
        <pt x="262" y="155" on="0"/>
        <pt x="281" y="131" on="1"/>
        <pt x="305" y="101" on="0"/>
        <pt x="362" y="63" on="0"/>
        <pt x="421" y="43" on="0"/>
        <pt x="477" y="36" on="0"/>
      </contour>
      <contour>
        <pt x="704" y="245" on="1"/>
        <pt x="641" y="245" on="1"/>
        <pt x="641" y="279" on="1"/>
        <pt x="360" y="279" on="1"/>
        <pt x="360" y="245" on="1"/>
        <pt x="297" y="245" on="1"/>
        <pt x="297" y="443" on="1"/>
        <pt x="360" y="443" on="1"/>
        <pt x="360" y="409" on="1"/>
        <pt x="641" y="409" on="1"/>
        <pt x="641" y="443" on="1"/>
        <pt x="704" y="443" on="1"/>
      </contour>
    </TTGlyph>
    <TTGlyph name="U" xMin="57" yMin="-12" xMax="927" yMax="686">
      <contour>
        <pt x="820" y="230" on="1"/>
        <pt x="820" y="187" on="0"/>
        <pt x="786" y="100" on="0"/>
        <pt x="712" y="31" on="0"/>
        <pt x="594" y="-12" on="0"/>
        <pt x="510" y="-12" on="1"/>
        <pt x="420" y="-12" on="0"/>
        <pt x="290" y="29" on="0"/>
        <pt x="205" y="96" on="0"/>
        <pt x="164" y="184" on="0"/>
        <pt x="164" y="231" on="1"/>
        <pt x="164" y="630" on="1"/>
        <pt x="57" y="630" on="1"/>
        <pt x="57" y="686" on="1"/>
        <pt x="65" y="685" on="0"/>
        <pt x="118" y="684" on="0"/>
        <pt x="179" y="683" on="0"/>
        <pt x="232" y="682" on="0"/>
        <pt x="240" y="682" on="1"/>
        <pt x="246" y="682" on="0"/>
        <pt x="298" y="683" on="0"/>
        <pt x="359" y="684" on="0"/>
        <pt x="413" y="685" on="0"/>
        <pt x="422" y="686" on="1"/>
        <pt x="422" y="630" on="1"/>
        <pt x="315" y="630" on="1"/>
        <pt x="315" y="228" on="1"/>
        <pt x="315" y="202" on="0"/>
        <pt x="325" y="138" on="0"/>
        <pt x="364" y="82" on="0"/>
        <pt x="444" y="44" on="0"/>
        <pt x="514" y="44" on="1"/>
        <pt x="557" y="44" on="0"/>
        <pt x="641" y="62" on="0"/>
        <pt x="708" y="105" on="0"/>
        <pt x="749" y="179" on="0"/>
        <pt x="749" y="234" on="1"/>
        <pt x="749" y="605" on="1"/>
        <pt x="749" y="620" on="0"/>
        <pt x="742" y="626" on="0"/>
        <pt x="725" y="628" on="1"/>
        <pt x="714" y="629" on="0"/>
        <pt x="686" y="630" on="0"/>
        <pt x="675" y="630" on="1"/>
        <pt x="642" y="630" on="1"/>
        <pt x="642" y="686" on="1"/>
        <pt x="646" y="686" on="0"/>
        <pt x="680" y="685" on="0"/>
        <pt x="725" y="683" on="0"/>
        <pt x="770" y="682" on="0"/>
        <pt x="785" y="682" on="1"/>
        <pt x="799" y="682" on="0"/>
        <pt x="844" y="683" on="0"/>
        <pt x="887" y="684" on="0"/>
        <pt x="922" y="686" on="0"/>
        <pt x="927" y="686" on="1"/>
        <pt x="927" y="630" on="1"/>
        <pt x="894" y="630" on="1"/>
        <pt x="890" y="630" on="0"/>
        <pt x="869" y="630" on="0"/>
        <pt x="846" y="629" on="0"/>
        <pt x="826" y="626" on="0"/>
        <pt x="823" y="624" on="1"/>
        <pt x="821" y="622" on="0"/>
        <pt x="820" y="617" on="0"/>
        <pt x="820" y="605" on="1"/>
      </contour>
    </TTGlyph>
    <TTGlyph name="Upsilon" xMin="75" yMin="0" xMax="926" yMax="698">
      <contour>
        <pt x="576" y="56" on="1"/>
        <pt x="710" y="56" on="1"/>
        <pt x="710" y="0" on="1"/>
        <pt x="692" y="2" on="0"/>
        <pt x="637" y="3" on="0"/>
        <pt x="577" y="4" on="0"/>
        <pt x="520" y="4" on="0"/>
        <pt x="500" y="4" on="1"/>
        <pt x="481" y="4" on="0"/>
        <pt x="424" y="4" on="0"/>
        <pt x="364" y="3" on="0"/>
        <pt x="309" y="2" on="0"/>
        <pt x="291" y="0" on="1"/>
        <pt x="291" y="56" on="1"/>
        <pt x="425" y="56" on="1"/>
        <pt x="425" y="343" on="1"/>
        <pt x="425" y="369" on="0"/>
        <pt x="411" y="448" on="0"/>
        <pt x="371" y="523" on="0"/>
        <pt x="299" y="576" on="0"/>
        <pt x="241" y="576" on="1"/>
        <pt x="209" y="576" on="0"/>
        <pt x="172" y="571" on="0"/>
        <pt x="152" y="564" on="0"/>
        <pt x="147" y="555" on="0"/>
        <pt x="146" y="551" on="1"/>
        <pt x="143" y="533" on="0"/>
        <pt x="128" y="527" on="0"/>
        <pt x="111" y="527" on="1"/>
        <pt x="96" y="527" on="0"/>
        <pt x="75" y="533" on="0"/>
        <pt x="75" y="553" on="1"/>
        <pt x="75" y="580" on="0"/>
        <pt x="101" y="633" on="0"/>
        <pt x="149" y="673" on="0"/>
        <pt x="214" y="698" on="0"/>
        <pt x="253" y="698" on="1"/>
        <pt x="302" y="698" on="0"/>
        <pt x="382" y="660" on="0"/>
        <pt x="444" y="597" on="0"/>
        <pt x="488" y="513" on="0"/>
        <pt x="500" y="467" on="1"/>
        <pt x="501" y="467" on="1"/>
        <pt x="511" y="508" on="0"/>
        <pt x="551" y="590" on="0"/>
        <pt x="613" y="656" on="0"/>
        <pt x="696" y="698" on="0"/>
        <pt x="748" y="698" on="1"/>
        <pt x="787" y="698" on="0"/>
        <pt x="852" y="673" on="0"/>
        <pt x="900" y="633" on="0"/>
        <pt x="926" y="580" on="0"/>
        <pt x="926" y="553" on="1"/>
        <pt x="926" y="533" on="0"/>
        <pt x="905" y="527" on="0"/>
        <pt x="890" y="527" on="1"/>
        <pt x="872" y="527" on="0"/>
        <pt x="858" y="534" on="0"/>
        <pt x="855" y="551" on="1"/>
        <pt x="854" y="555" on="0"/>
        <pt x="849" y="564" on="0"/>
        <pt x="830" y="571" on="0"/>
        <pt x="793" y="576" on="0"/>
        <pt x="760" y="576" on="1"/>
        <pt x="721" y="576" on="0"/>
        <pt x="664" y="551" on="0"/>
        <pt x="623" y="510" on="0"/>
        <pt x="597" y="460" on="0"/>
        <pt x="582" y="408" on="0"/>
        <pt x="576" y="360" on="0"/>
        <pt x="576" y="343" on="1"/>
      </contour>
    </TTGlyph>
    <TTGlyph name="V" xMin="35" yMin="-12" xMax="932" yMax="686">
      <contour>
        <pt x="541" y="18" on="1"/>
        <pt x="533" y="1" on="0"/>
        <pt x="516" y="-12" on="0"/>
        <pt x="491" y="-12" on="1"/>
        <pt x="476" y="-12" on="1"/>
        <pt x="459" y="-12" on="0"/>
        <pt x="437" y="-5" on="0"/>
        <pt x="426" y="17" on="1"/>
        <pt x="129" y="630" on="1"/>
        <pt x="35" y="630" on="1"/>
        <pt x="35" y="686" on="1"/>
        <pt x="41" y="686" on="0"/>
        <pt x="79" y="684" on="0"/>
        <pt x="127" y="683" on="0"/>
        <pt x="177" y="682" on="0"/>
        <pt x="195" y="682" on="1"/>
        <pt x="236" y="682" on="0"/>
        <pt x="338" y="683" on="0"/>
        <pt x="378" y="686" on="1"/>
        <pt x="378" y="630" on="1"/>
        <pt x="290" y="630" on="1"/>
        <pt x="524" y="145" on="1"/>
        <pt x="755" y="624" on="1"/>
        <pt x="735" y="628" on="0"/>
        <pt x="700" y="630" on="0"/>
        <pt x="671" y="630" on="1"/>
        <pt x="671" y="686" on="1"/>
        <pt x="673" y="686" on="0"/>
        <pt x="707" y="685" on="0"/>
        <pt x="752" y="683" on="0"/>
        <pt x="799" y="682" on="0"/>
        <pt x="813" y="682" on="1"/>
        <pt x="826" y="682" on="0"/>
        <pt x="862" y="683" on="0"/>
        <pt x="897" y="684" on="0"/>
        <pt x="926" y="686" on="0"/>
        <pt x="932" y="686" on="1"/>
        <pt x="932" y="630" on="1"/>
        <pt x="905" y="630" on="1"/>
        <pt x="880" y="630" on="0"/>
        <pt x="852" y="628" on="0"/>
        <pt x="837" y="624" on="0"/>
        <pt x="831" y="617" on="0"/>
        <pt x="829" y="612" on="1"/>
      </contour>
    </TTGlyph>
    <TTGlyph name="W" xMin="33" yMin="-12" xMax="1289" yMax="686">
      <contour>
        <pt x="948" y="17" on="1"/>
        <pt x="940" y="-1" on="0"/>
        <pt x="924" y="-12" on="0"/>
        <pt x="899" y="-12" on="1"/>
        <pt x="881" y="-12" on="0"/>
        <pt x="857" y="-5" on="0"/>
        <pt x="848" y="17" on="1"/>
        <pt x="661" y="471" on="1"/>
        <pt x="473" y="17" on="1"/>
        <pt x="464" y="-4" on="0"/>
        <pt x="445" y="-12" on="0"/>
        <pt x="423" y="-12" on="1"/>
        <pt x="397" y="-12" on="0"/>
        <pt x="382" y="0" on="0"/>
        <pt x="374" y="17" on="1"/>
        <pt x="120" y="630" on="1"/>
        <pt x="33" y="630" on="1"/>
        <pt x="33" y="686" on="1"/>
        <pt x="37" y="686" on="0"/>
        <pt x="75" y="685" on="0"/>
        <pt x="123" y="683" on="0"/>
        <pt x="172" y="682" on="0"/>
        <pt x="187" y="682" on="1"/>
        <pt x="199" y="682" on="0"/>
        <pt x="254" y="683" on="0"/>
        <pt x="312" y="684" on="0"/>
        <pt x="361" y="686" on="0"/>
        <pt x="367" y="686" on="1"/>
        <pt x="367" y="630" on="1"/>
        <pt x="276" y="630" on="1"/>
        <pt x="467" y="167" on="1"/>
        <pt x="627" y="553" on="1"/>
        <pt x="595" y="630" on="1"/>
        <pt x="508" y="630" on="1"/>
        <pt x="508" y="686" on="1"/>
        <pt x="512" y="686" on="0"/>
        <pt x="550" y="685" on="0"/>
        <pt x="598" y="683" on="0"/>
        <pt x="647" y="682" on="0"/>
        <pt x="662" y="682" on="1"/>
        <pt x="703" y="682" on="0"/>
        <pt x="803" y="683" on="0"/>
        <pt x="843" y="686" on="1"/>
        <pt x="843" y="630" on="1"/>
        <pt x="751" y="630" on="1"/>
        <pt x="943" y="167" on="1"/>
        <pt x="1126" y="610" on="1"/>
        <pt x="1127" y="612" on="0"/>
        <pt x="1130" y="620" on="0"/>
        <pt x="1130" y="622" on="1"/>
        <pt x="1130" y="625" on="0"/>
        <pt x="1107" y="628" on="0"/>
        <pt x="1078" y="630" on="0"/>
        <pt x="1053" y="630" on="0"/>
        <pt x="1050" y="630" on="1"/>
        <pt x="1032" y="630" on="1"/>
        <pt x="1032" y="686" on="1"/>
        <pt x="1034" y="686" on="0"/>
        <pt x="1071" y="685" on="0"/>
        <pt x="1119" y="683" on="0"/>
        <pt x="1167" y="682" on="0"/>
        <pt x="1179" y="682" on="1"/>
        <pt x="1207" y="682" on="0"/>
        <pt x="1261" y="684" on="0"/>
        <pt x="1289" y="686" on="1"/>
        <pt x="1289" y="630" on="1"/>
        <pt x="1266" y="630" on="1"/>
        <pt x="1228" y="630" on="0"/>
        <pt x="1199" y="626" on="0"/>
        <pt x="1194" y="612" on="1"/>
      </contour>
    </TTGlyph>
    <TTGlyph name="X" xMin="47" yMin="0" xMax="921" yMax="686">
      <contour>
        <pt x="819" y="56" on="1"/>
        <pt x="921" y="56" on="1"/>
        <pt x="921" y="0" on="1"/>
        <pt x="915" y="0" on="0"/>
        <pt x="880" y="2" on="0"/>
        <pt x="832" y="3" on="0"/>
        <pt x="779" y="4" on="0"/>
        <pt x="755" y="4" on="1"/>
        <pt x="735" y="4" on="0"/>
        <pt x="686" y="4" on="0"/>
        <pt x="635" y="3" on="0"/>
        <pt x="587" y="2" on="0"/>
        <pt x="568" y="0" on="1"/>
        <pt x="568" y="56" on="1"/>
        <pt x="640" y="56" on="1"/>
        <pt x="453" y="283" on="1"/>
        <pt x="266" y="63" on="1"/>
        <pt x="288" y="58" on="0"/>
        <pt x="328" y="56" on="0"/>
        <pt x="348" y="56" on="1"/>
        <pt x="348" y="0" on="1"/>
        <pt x="344" y="0" on="0"/>
        <pt x="309" y="1" on="0"/>
        <pt x="261" y="3" on="0"/>
        <pt x="207" y="4" on="0"/>
        <pt x="186" y="4" on="1"/>
        <pt x="168" y="4" on="0"/>
        <pt x="123" y="3" on="0"/>
        <pt x="81" y="1" on="0"/>
        <pt x="50" y="0" on="0"/>
        <pt x="47" y="0" on="1"/>
        <pt x="47" y="56" on="1"/>
        <pt x="86" y="56" on="1"/>
        <pt x="98" y="56" on="0"/>
        <pt x="127" y="57" on="0"/>
        <pt x="139" y="58" on="1"/>
        <pt x="150" y="59" on="0"/>
        <pt x="162" y="60" on="0"/>
        <pt x="170" y="63" on="0"/>
        <pt x="176" y="69" on="0"/>
        <pt x="180" y="73" on="1"/>
        <pt x="407" y="339" on="1"/>
        <pt x="166" y="630" on="1"/>
        <pt x="64" y="630" on="1"/>
        <pt x="64" y="686" on="1"/>
        <pt x="69" y="686" on="0"/>
        <pt x="105" y="684" on="0"/>
        <pt x="152" y="683" on="0"/>
        <pt x="206" y="682" on="0"/>
        <pt x="229" y="682" on="1"/>
        <pt x="249" y="682" on="0"/>
        <pt x="299" y="682" on="0"/>
        <pt x="350" y="683" on="0"/>
        <pt x="398" y="685" on="0"/>
        <pt x="417" y="686" on="1"/>
        <pt x="417" y="630" on="1"/>
        <pt x="345" y="630" on="1"/>
        <pt x="497" y="445" on="1"/>
        <pt x="648" y="623" on="1"/>
        <pt x="625" y="628" on="0"/>
        <pt x="586" y="630" on="0"/>
        <pt x="566" y="630" on="1"/>
        <pt x="566" y="686" on="1"/>
        <pt x="570" y="686" on="0"/>
        <pt x="605" y="685" on="0"/>
        <pt x="653" y="683" on="0"/>
        <pt x="707" y="682" on="0"/>
        <pt x="728" y="682" on="1"/>
        <pt x="747" y="682" on="0"/>
        <pt x="792" y="683" on="0"/>
        <pt x="833" y="685" on="0"/>
        <pt x="862" y="686" on="0"/>
        <pt x="866" y="686" on="1"/>
        <pt x="866" y="630" on="1"/>
        <pt x="828" y="630" on="1"/>
        <pt x="816" y="630" on="0"/>
        <pt x="786" y="629" on="0"/>
        <pt x="774" y="628" on="1"/>
        <pt x="763" y="627" on="0"/>
        <pt x="751" y="625" on="0"/>
        <pt x="743" y="622" on="0"/>
        <pt x="737" y="617" on="0"/>
        <pt x="733" y="613" on="1"/>
        <pt x="543" y="390" on="1"/>
      </contour>
    </TTGlyph>
    <TTGlyph name="Xi" xMin="57" yMin="0" xMax="802" yMax="673">
      <contour>
        <pt x="795" y="472" on="1"/>
        <pt x="732" y="472" on="1"/>
        <pt x="732" y="479" on="0"/>
        <pt x="730" y="502" on="0"/>
        <pt x="726" y="525" on="0"/>
        <pt x="720" y="544" on="0"/>
        <pt x="714" y="547" on="1"/>
        <pt x="711" y="549" on="0"/>
        <pt x="689" y="551" on="0"/>
        <pt x="662" y="553" on="0"/>
        <pt x="638" y="553" on="0"/>
        <pt x="633" y="553" on="1"/>
        <pt x="226" y="553" on="1"/>
        <pt x="221" y="553" on="0"/>
        <pt x="196" y="553" on="0"/>
        <pt x="168" y="551" on="0"/>
        <pt x="145" y="549" on="0"/>
        <pt x="142" y="546" on="1"/>
        <pt x="138" y="541" on="0"/>
        <pt x="132" y="522" on="0"/>
        <pt x="129" y="501" on="0"/>
        <pt x="127" y="480" on="0"/>
        <pt x="127" y="472" on="1"/>
        <pt x="64" y="472" on="1"/>
        <pt x="74" y="673" on="1"/>
        <pt x="785" y="673" on="1"/>
      </contour>
      <contour>
        <pt x="57" y="211" on="1"/>
        <pt x="120" y="211" on="1"/>
        <pt x="122" y="180" on="0"/>
        <pt x="127" y="140" on="0"/>
        <pt x="135" y="130" on="1"/>
        <pt x="137" y="126" on="0"/>
        <pt x="163" y="122" on="0"/>
        <pt x="193" y="120" on="0"/>
        <pt x="220" y="120" on="0"/>
        <pt x="224" y="120" on="1"/>
        <pt x="635" y="120" on="1"/>
        <pt x="640" y="120" on="0"/>
        <pt x="667" y="120" on="0"/>
        <pt x="695" y="122" on="0"/>
        <pt x="719" y="125" on="0"/>
        <pt x="722" y="128" on="1"/>
        <pt x="727" y="132" on="0"/>
        <pt x="734" y="154" on="0"/>
        <pt x="737" y="179" on="0"/>
        <pt x="739" y="204" on="0"/>
        <pt x="739" y="211" on="1"/>
        <pt x="802" y="211" on="1"/>
        <pt x="792" y="0" on="1"/>
        <pt x="67" y="0" on="1"/>
      </contour>
      <contour>
        <pt x="677" y="249" on="1"/>
        <pt x="614" y="249" on="1"/>
        <pt x="614" y="290" on="1"/>
        <pt x="245" y="290" on="1"/>
        <pt x="245" y="249" on="1"/>
        <pt x="182" y="249" on="1"/>
        <pt x="182" y="451" on="1"/>
        <pt x="245" y="451" on="1"/>
        <pt x="245" y="410" on="1"/>
        <pt x="614" y="410" on="1"/>
        <pt x="614" y="451" on="1"/>
        <pt x="677" y="451" on="1"/>
      </contour>
    </TTGlyph>
    <TTGlyph name="Y" xMin="31" yMin="0" xMax="936" yMax="686">
      <contour>
        <pt x="555" y="274" on="1"/>
        <pt x="555" y="56" on="1"/>
        <pt x="662" y="56" on="1"/>
        <pt x="662" y="0" on="1"/>
        <pt x="655" y="0" on="0"/>
        <pt x="608" y="2" on="0"/>
        <pt x="551" y="3" on="0"/>
        <pt x="497" y="4" on="0"/>
        <pt x="483" y="4" on="1"/>
        <pt x="480" y="4" on="0"/>
        <pt x="430" y="3" on="0"/>
        <pt x="369" y="2" on="0"/>
        <pt x="313" y="1" on="0"/>
        <pt x="304" y="0" on="1"/>
        <pt x="304" y="56" on="1"/>
        <pt x="411" y="56" on="1"/>
        <pt x="411" y="274" on="1"/>
        <pt x="132" y="630" on="1"/>
        <pt x="31" y="630" on="1"/>
        <pt x="31" y="686" on="1"/>
        <pt x="36" y="686" on="0"/>
        <pt x="73" y="684" on="0"/>
        <pt x="121" y="683" on="0"/>
        <pt x="176" y="682" on="0"/>
        <pt x="199" y="682" on="1"/>
        <pt x="219" y="682" on="0"/>
        <pt x="269" y="682" on="0"/>
        <pt x="322" y="683" on="0"/>
        <pt x="372" y="685" on="0"/>
        <pt x="390" y="686" on="1"/>
        <pt x="390" y="630" on="1"/>
        <pt x="315" y="630" on="1"/>
        <pt x="530" y="357" on="1"/>
        <pt x="739" y="624" on="1"/>
        <pt x="721" y="629" on="0"/>
        <pt x="687" y="630" on="0"/>
        <pt x="670" y="630" on="1"/>
        <pt x="670" y="686" on="1"/>
        <pt x="676" y="686" on="0"/>
        <pt x="713" y="684" on="0"/>
        <pt x="756" y="683" on="0"/>
        <pt x="800" y="682" on="0"/>
        <pt x="814" y="682" on="1"/>
        <pt x="845" y="682" on="0"/>
        <pt x="905" y="684" on="0"/>
        <pt x="936" y="686" on="1"/>
        <pt x="936" y="630" on="1"/>
        <pt x="906" y="630" on="1"/>
        <pt x="895" y="630" on="0"/>
        <pt x="867" y="629" on="0"/>
        <pt x="856" y="628" on="1"/>
        <pt x="838" y="626" on="0"/>
        <pt x="829" y="622" on="0"/>
        <pt x="822" y="614" on="1"/>
      </contour>
    </TTGlyph>
    <TTGlyph name="Z" xMin="75" yMin="0" xMax="720" yMax="686">
      <contour>
        <pt x="263" y="61" on="1"/>
        <pt x="420" y="61" on="1"/>
        <pt x="480" y="61" on="0"/>
        <pt x="565" y="84" on="0"/>
        <pt x="622" y="137" on="0"/>
        <pt x="653" y="220" on="0"/>
        <pt x="657" y="280" on="1"/>
        <pt x="720" y="280" on="1"/>
        <pt x="700" y="0" on="1"/>
        <pt x="110" y="0" on="1"/>
        <pt x="93" y="0" on="0"/>
        <pt x="75" y="8" on="0"/>
        <pt x="75" y="31" on="1"/>
        <pt x="75" y="43" on="0"/>
        <pt x="77" y="52" on="0"/>
        <pt x="85" y="61" on="1"/>
        <pt x="526" y="630" on="1"/>
        <pt x="384" y="630" on="1"/>
        <pt x="361" y="630" on="0"/>
        <pt x="287" y="623" on="0"/>
        <pt x="215" y="588" on="0"/>
        <pt x="161" y="514" on="0"/>
        <pt x="156" y="447" on="1"/>
        <pt x="93" y="447" on="1"/>
        <pt x="107" y="686" on="1"/>
        <pt x="678" y="686" on="1"/>
        <pt x="694" y="686" on="0"/>
        <pt x="713" y="679" on="0"/>
        <pt x="713" y="656" on="1"/>
        <pt x="713" y="645" on="0"/>
        <pt x="710" y="637" on="0"/>
        <pt x="702" y="627" on="1"/>
      </contour>
    </TTGlyph>
    <TTGlyph name="a" xMin="41" yMin="-6" xMax="624" yMax="453">
      <contour>
        <pt x="528" y="87" on="1"/>
        <pt x="528" y="78" on="0"/>
        <pt x="530" y="67" on="0"/>
        <pt x="541" y="59" on="0"/>
        <pt x="566" y="56" on="0"/>
        <pt x="588" y="56" on="1"/>
        <pt x="604" y="56" on="0"/>
        <pt x="624" y="49" on="0"/>
        <pt x="624" y="28" on="1"/>
        <pt x="624" y="7" on="0"/>
        <pt x="603" y="0" on="0"/>
        <pt x="589" y="0" on="1"/>
        <pt x="530" y="0" on="1"/>
        <pt x="468" y="0" on="0"/>
        <pt x="421" y="36" on="0"/>
        <pt x="421" y="68" on="1"/>
        <pt x="415" y="58" on="0"/>
        <pt x="390" y="33" on="0"/>
        <pt x="349" y="10" on="0"/>
        <pt x="291" y="-6" on="0"/>
        <pt x="251" y="-6" on="1"/>
        <pt x="214" y="-6" on="0"/>
        <pt x="139" y="6" on="0"/>
        <pt x="79" y="34" on="0"/>
        <pt x="41" y="80" on="0"/>
        <pt x="41" y="115" on="1"/>
        <pt x="41" y="152" on="0"/>
        <pt x="88" y="203" on="0"/>
        <pt x="159" y="237" on="0"/>
        <pt x="246" y="256" on="0"/>
        <pt x="326" y="265" on="0"/>
        <pt x="389" y="267" on="0"/>
        <pt x="401" y="267" on="1"/>
        <pt x="401" y="294" on="1"/>
        <pt x="401" y="326" on="0"/>
        <pt x="383" y="369" on="0"/>
        <pt x="350" y="396" on="0"/>
        <pt x="305" y="407" on="0"/>
        <pt x="279" y="407" on="1"/>
        <pt x="276" y="407" on="0"/>
        <pt x="254" y="406" on="0"/>
        <pt x="228" y="405" on="0"/>
        <pt x="208" y="402" on="0"/>
        <pt x="208" y="400" on="1"/>
        <pt x="208" y="398" on="0"/>
        <pt x="211" y="393" on="1"/>
        <pt x="213" y="391" on="0"/>
        <pt x="223" y="370" on="0"/>
        <pt x="223" y="353" on="1"/>
        <pt x="223" y="324" on="0"/>
        <pt x="186" y="284" on="0"/>
        <pt x="153" y="284" on="1"/>
        <pt x="125" y="284" on="0"/>
        <pt x="84" y="321" on="0"/>
        <pt x="84" y="354" on="1"/>
        <pt x="84" y="391" on="0"/>
        <pt x="130" y="431" on="0"/>
        <pt x="193" y="450" on="0"/>
        <pt x="260" y="453" on="0"/>
        <pt x="282" y="453" on="1"/>
        <pt x="350" y="453" on="0"/>
        <pt x="443" y="427" on="0"/>
        <pt x="502" y="383" on="0"/>
        <pt x="528" y="326" on="0"/>
        <pt x="528" y="295" on="1"/>
      </contour>
      <contour>
        <pt x="401" y="228" on="1"/>
        <pt x="364" y="227" on="0"/>
        <pt x="281" y="215" on="0"/>
        <pt x="212" y="189" on="0"/>
        <pt x="167" y="147" on="0"/>
        <pt x="167" y="116" on="1"/>
        <pt x="167" y="82" on="0"/>
        <pt x="229" y="40" on="0"/>
        <pt x="271" y="40" on="1"/>
        <pt x="273" y="40" on="0"/>
        <pt x="292" y="41" on="0"/>
        <pt x="317" y="45" on="0"/>
        <pt x="348" y="54" on="0"/>
        <pt x="362" y="63" on="1"/>
        <pt x="391" y="81" on="0"/>
        <pt x="401" y="121" on="0"/>
        <pt x="401" y="137" on="1"/>
      </contour>
    </TTGlyph>
    <TTGlyph name="acute" xMin="267" yMin="501" xMax="512" yMax="703">
      <contour>
        <pt x="303" y="501" on="1"/>
        <pt x="267" y="553" on="1"/>
        <pt x="404" y="686" on="1"/>
        <pt x="408" y="690" on="0"/>
        <pt x="429" y="703" on="0"/>
        <pt x="446" y="703" on="1"/>
        <pt x="462" y="703" on="0"/>
        <pt x="486" y="689" on="0"/>
        <pt x="503" y="668" on="0"/>
        <pt x="512" y="644" on="0"/>
        <pt x="512" y="634" on="1"/>
        <pt x="512" y="621" on="0"/>
        <pt x="503" y="601" on="0"/>
        <pt x="490" y="588" on="0"/>
        <pt x="475" y="579" on="0"/>
        <pt x="470" y="577" on="1"/>
      </contour>
    </TTGlyph>
    <TTGlyph name="ae" xMin="48" yMin="-6" xMax="890" yMax="453">
      <contour>
        <pt x="529" y="208" on="1"/>
        <pt x="531" y="176" on="0"/>
        <pt x="549" y="117" on="0"/>
        <pt x="589" y="72" on="0"/>
        <pt x="653" y="45" on="0"/>
        <pt x="700" y="45" on="1"/>
        <pt x="709" y="45" on="0"/>
        <pt x="742" y="48" on="0"/>
        <pt x="780" y="63" on="0"/>
        <pt x="816" y="94" on="0"/>
        <pt x="828" y="121" on="1"/>
        <pt x="833" y="132" on="0"/>
        <pt x="848" y="136" on="0"/>
        <pt x="858" y="136" on="1"/>
        <pt x="862" y="136" on="0"/>
        <pt x="873" y="135" on="0"/>
        <pt x="883" y="131" on="0"/>
        <pt x="890" y="122" on="0"/>
        <pt x="890" y="114" on="1"/>
        <pt x="890" y="108" on="0"/>
        <pt x="873" y="69" on="0"/>
        <pt x="827" y="27" on="0"/>
        <pt x="749" y="-6" on="0"/>
        <pt x="687" y="-6" on="1"/>
        <pt x="637" y="-6" on="0"/>
        <pt x="531" y="19" on="0"/>
        <pt x="483" y="55" on="1"/>
        <pt x="463" y="34" on="0"/>
        <pt x="404" y="9" on="0"/>
        <pt x="341" y="-3" on="0"/>
        <pt x="280" y="-6" on="0"/>
        <pt x="257" y="-6" on="1"/>
        <pt x="248" y="-6" on="0"/>
        <pt x="209" y="-5" on="0"/>
        <pt x="163" y="1" on="0"/>
        <pt x="114" y="15" on="0"/>
        <pt x="74" y="40" on="0"/>
        <pt x="48" y="80" on="0"/>
        <pt x="48" y="108" on="1"/>
        <pt x="48" y="138" on="0"/>
        <pt x="81" y="179" on="0"/>
        <pt x="129" y="206" on="0"/>
        <pt x="184" y="223" on="0"/>
        <pt x="206" y="228" on="1"/>
        <pt x="227" y="233" on="0"/>
        <pt x="261" y="238" on="0"/>
        <pt x="303" y="242" on="0"/>
        <pt x="359" y="245" on="0"/>
        <pt x="402" y="247" on="1"/>
        <pt x="402" y="294" on="1"/>
        <pt x="402" y="355" on="0"/>
        <pt x="337" y="407" on="0"/>
        <pt x="280" y="407" on="1"/>
        <pt x="277" y="407" on="0"/>
        <pt x="254" y="406" on="0"/>
        <pt x="229" y="405" on="0"/>
        <pt x="208" y="402" on="0"/>
        <pt x="208" y="400" on="1"/>
        <pt x="208" y="398" on="0"/>
        <pt x="211" y="393" on="1"/>
        <pt x="213" y="391" on="0"/>
        <pt x="223" y="370" on="0"/>
        <pt x="223" y="353" on="1"/>
        <pt x="223" y="324" on="0"/>
        <pt x="186" y="284" on="0"/>
        <pt x="153" y="284" on="1"/>
        <pt x="125" y="284" on="0"/>
        <pt x="84" y="321" on="0"/>
        <pt x="84" y="354" on="1"/>
        <pt x="84" y="391" on="0"/>
        <pt x="128" y="431" on="0"/>
        <pt x="191" y="450" on="0"/>
        <pt x="258" y="453" on="0"/>
        <pt x="282" y="453" on="1"/>
        <pt x="294" y="453" on="0"/>
        <pt x="342" y="451" on="0"/>
        <pt x="400" y="441" on="0"/>
        <pt x="460" y="418" on="0"/>
        <pt x="484" y="397" on="1"/>
        <pt x="513" y="419" on="0"/>
        <pt x="605" y="453" on="0"/>
        <pt x="670" y="453" on="1"/>
        <pt x="773" y="453" on="0"/>
        <pt x="890" y="344" on="0"/>
        <pt x="890" y="239" on="1"/>
        <pt x="890" y="216" on="0"/>
        <pt x="872" y="208" on="0"/>
        <pt x="855" y="208" on="1"/>
      </contour>
      <contour>
        <pt x="791" y="250" on="1"/>
        <pt x="790" y="275" on="0"/>
        <pt x="781" y="330" on="0"/>
        <pt x="755" y="377" on="0"/>
        <pt x="709" y="407" on="0"/>
        <pt x="671" y="407" on="1"/>
        <pt x="619" y="407" on="0"/>
        <pt x="562" y="366" on="0"/>
        <pt x="535" y="312" on="0"/>
        <pt x="530" y="260" on="0"/>
        <pt x="530" y="250" on="1"/>
      </contour>
      <contour>
        <pt x="403" y="204" on="1"/>
        <pt x="389" y="204" on="0"/>
        <pt x="344" y="200" on="0"/>
        <pt x="293" y="193" on="0"/>
        <pt x="241" y="180" on="0"/>
        <pt x="200" y="159" on="0"/>
        <pt x="174" y="129" on="0"/>
        <pt x="174" y="108" on="1"/>
        <pt x="174" y="82" on="0"/>
        <pt x="225" y="40" on="0"/>
        <pt x="274" y="40" on="1"/>
        <pt x="295" y="40" on="0"/>
        <pt x="346" y="48" on="0"/>
        <pt x="391" y="68" on="0"/>
        <pt x="422" y="101" on="0"/>
        <pt x="422" y="125" on="1"/>
        <pt x="422" y="130" on="0"/>
        <pt x="421" y="135" on="0"/>
        <pt x="418" y="141" on="1"/>
        <pt x="415" y="149" on="0"/>
        <pt x="405" y="181" on="0"/>
      </contour>
    </TTGlyph>
    <TTGlyph name="ampersand" xMin="57" yMin="-12" xMax="933" yMax="706">
      <contour>
        <pt x="238" y="335" on="1"/>
        <pt x="211" y="394" on="0"/>
        <pt x="195" y="490" on="0"/>
        <pt x="195" y="520" on="1"/>
        <pt x="195" y="566" on="0"/>
        <pt x="232" y="635" on="0"/>
        <pt x="290" y="682" on="0"/>
        <pt x="362" y="706" on="0"/>
        <pt x="396" y="706" on="1"/>
        <pt x="428" y="706" on="0"/>
        <pt x="477" y="681" on="0"/>
        <pt x="510" y="641" on="0"/>
        <pt x="528" y="592" on="0"/>
        <pt x="528" y="568" on="1"/>
        <pt x="528" y="558" on="0"/>
        <pt x="523" y="530" on="0"/>
        <pt x="492" y="484" on="0"/>
        <pt x="424" y="417" on="0"/>
        <pt x="362" y="369" on="1"/>
        <pt x="383" y="329" on="0"/>
        <pt x="443" y="253" on="0"/>
        <pt x="500" y="191" on="0"/>
        <pt x="544" y="149" on="0"/>
        <pt x="551" y="143" on="1"/>
        <pt x="592" y="176" on="0"/>
        <pt x="642" y="228" on="0"/>
        <pt x="653" y="241" on="1"/>
        <pt x="671" y="262" on="0"/>
        <pt x="701" y="299" on="0"/>
        <pt x="727" y="333" on="0"/>
        <pt x="752" y="365" on="0"/>
        <pt x="765" y="381" on="1"/>
        <pt x="758" y="383" on="0"/>
        <pt x="748" y="386" on="0"/>
        <pt x="735" y="387" on="0"/>
        <pt x="716" y="388" on="0"/>
        <pt x="701" y="388" on="1"/>
        <pt x="701" y="444" on="1"/>
        <pt x="704" y="444" on="0"/>
        <pt x="733" y="443" on="0"/>
        <pt x="772" y="441" on="0"/>
        <pt x="815" y="440" on="0"/>
        <pt x="831" y="440" on="1"/>
        <pt x="857" y="440" on="0"/>
        <pt x="907" y="442" on="0"/>
        <pt x="933" y="444" on="1"/>
        <pt x="933" y="388" on="1"/>
        <pt x="909" y="388" on="1"/>
        <pt x="905" y="388" on="0"/>
        <pt x="884" y="388" on="0"/>
        <pt x="862" y="386" on="0"/>
        <pt x="843" y="383" on="0"/>
        <pt x="840" y="380" on="1"/>
        <pt x="838" y="378" on="0"/>
        <pt x="834" y="374" on="0"/>
        <pt x="825" y="363" on="1"/>
        <pt x="825" y="363" on="0"/>
        <pt x="823" y="361" on="0"/>
        <pt x="818" y="354" on="0"/>
        <pt x="808" y="340" on="0"/>
        <pt x="798" y="328" on="1"/>
        <pt x="755" y="272" on="0"/>
        <pt x="659" y="158" on="0"/>
        <pt x="594" y="106" on="1"/>
        <pt x="640" y="72" on="0"/>
        <pt x="713" y="44" on="0"/>
        <pt x="750" y="44" on="1"/>
        <pt x="754" y="44" on="0"/>
        <pt x="789" y="46" on="0"/>
        <pt x="828" y="60" on="0"/>
        <pt x="861" y="88" on="0"/>
        <pt x="863" y="115" on="1"/>
        <pt x="926" y="115" on="1"/>
        <pt x="925" y="81" on="0"/>
        <pt x="892" y="33" on="0"/>
        <pt x="840" y="2" on="0"/>
        <pt x="776" y="-12" on="0"/>
        <pt x="744" y="-12" on="1"/>
        <pt x="679" y="-12" on="0"/>
        <pt x="555" y="20" on="0"/>
        <pt x="504" y="46" on="1"/>
        <pt x="445" y="14" on="0"/>
        <pt x="338" y="-12" on="0"/>
        <pt x="288" y="-12" on="1"/>
        <pt x="243" y="-12" on="0"/>
        <pt x="159" y="7" on="0"/>
        <pt x="95" y="46" on="0"/>
        <pt x="57" y="104" on="0"/>
        <pt x="57" y="142" on="1"/>
        <pt x="57" y="163" on="0"/>
        <pt x="71" y="198" on="0"/>
        <pt x="91" y="225" on="0"/>
        <pt x="113" y="245" on="0"/>
        <pt x="122" y="251" on="1"/>
      </contour>
      <contour>
        <pt x="342" y="413" on="1"/>
        <pt x="351" y="420" on="0"/>
        <pt x="391" y="452" on="0"/>
        <pt x="433" y="495" on="0"/>
        <pt x="465" y="544" on="0"/>
        <pt x="465" y="568" on="1"/>
        <pt x="465" y="581" on="0"/>
        <pt x="458" y="613" on="0"/>
        <pt x="441" y="641" on="0"/>
        <pt x="415" y="660" on="0"/>
        <pt x="397" y="660" on="1"/>
        <pt x="385" y="660" on="0"/>
        <pt x="355" y="650" on="0"/>
        <pt x="329" y="626" on="0"/>
        <pt x="311" y="588" on="0"/>
        <pt x="311" y="560" on="1"/>
        <pt x="311" y="544" on="0"/>
        <pt x="322" y="461" on="0"/>
      </contour>
      <contour>
        <pt x="259" y="294" on="1"/>
        <pt x="253" y="290" on="0"/>
        <pt x="232" y="273" on="0"/>
        <pt x="211" y="244" on="0"/>
        <pt x="196" y="202" on="0"/>
        <pt x="196" y="173" on="1"/>
        <pt x="196" y="154" on="0"/>
        <pt x="207" y="108" on="0"/>
        <pt x="233" y="70" on="0"/>
        <pt x="273" y="44" on="0"/>
        <pt x="302" y="44" on="1"/>
        <pt x="309" y="44" on="0"/>
        <pt x="338" y="46" on="0"/>
        <pt x="377" y="53" on="0"/>
        <pt x="424" y="67" on="0"/>
        <pt x="449" y="79" on="1"/>
        <pt x="416" y="101" on="0"/>
        <pt x="358" y="156" on="0"/>
        <pt x="309" y="214" on="0"/>
        <pt x="271" y="271" on="0"/>
      </contour>
    </TTGlyph>
    <TTGlyph name="asterisk" xMin="87" yMin="306" xMax="559" yMax="750">
      <contour>
        <pt x="371" y="367" on="1"/>
        <pt x="374" y="352" on="0"/>
        <pt x="374" y="349" on="1"/>
        <pt x="374" y="332" on="0"/>
        <pt x="345" y="306" on="0"/>
        <pt x="323" y="306" on="1"/>
        <pt x="301" y="306" on="0"/>
        <pt x="272" y="332" on="0"/>
        <pt x="272" y="349" on="1"/>
        <pt x="297" y="488" on="1"/>
        <pt x="173" y="403" on="1"/>
        <pt x="157" y="392" on="0"/>
        <pt x="147" y="387" on="0"/>
        <pt x="137" y="387" on="1"/>
        <pt x="116" y="387" on="0"/>
        <pt x="87" y="419" on="0"/>
        <pt x="87" y="441" on="1"/>
        <pt x="87" y="454" on="0"/>
        <pt x="95" y="470" on="0"/>
        <pt x="106" y="480" on="0"/>
        <pt x="119" y="485" on="0"/>
        <pt x="124" y="486" on="1"/>
        <pt x="262" y="528" on="1"/>
        <pt x="124" y="570" on="1"/>
        <pt x="119" y="572" on="0"/>
        <pt x="106" y="576" on="0"/>
        <pt x="95" y="586" on="0"/>
        <pt x="87" y="602" on="0"/>
        <pt x="87" y="615" on="1"/>
        <pt x="87" y="637" on="0"/>
        <pt x="116" y="669" on="0"/>
        <pt x="137" y="669" on="1"/>
        <pt x="140" y="669" on="0"/>
        <pt x="154" y="667" on="0"/>
        <pt x="165" y="659" on="1"/>
        <pt x="298" y="567" on="1"/>
        <pt x="275" y="689" on="1"/>
        <pt x="272" y="704" on="0"/>
        <pt x="272" y="707" on="1"/>
        <pt x="272" y="724" on="0"/>
        <pt x="301" y="750" on="0"/>
        <pt x="323" y="750" on="1"/>
        <pt x="345" y="750" on="0"/>
        <pt x="374" y="724" on="0"/>
        <pt x="374" y="707" on="1"/>
        <pt x="348" y="567" on="1"/>
        <pt x="482" y="659" on="1"/>
        <pt x="490" y="664" on="0"/>
        <pt x="501" y="669" on="0"/>
        <pt x="509" y="669" on="1"/>
        <pt x="530" y="669" on="0"/>
        <pt x="559" y="637" on="0"/>
        <pt x="559" y="615" on="1"/>
        <pt x="559" y="602" on="0"/>
        <pt x="552" y="586" on="0"/>
        <pt x="541" y="577" on="0"/>
        <pt x="528" y="572" on="0"/>
        <pt x="522" y="570" on="1"/>
        <pt x="387" y="528" on="1"/>
        <pt x="487" y="497" on="1"/>
        <pt x="509" y="490" on="0"/>
        <pt x="537" y="481" on="0"/>
        <pt x="553" y="469" on="0"/>
        <pt x="559" y="454" on="0"/>
        <pt x="559" y="441" on="1"/>
        <pt x="559" y="419" on="0"/>
        <pt x="530" y="387" on="0"/>
        <pt x="509" y="387" on="1"/>
        <pt x="506" y="387" on="0"/>
        <pt x="492" y="389" on="0"/>
        <pt x="481" y="397" on="1"/>
        <pt x="348" y="489" on="1"/>
      </contour>
    </TTGlyph>
    <TTGlyph name="at" xMin="75" yMin="-6" xMax="926" yMax="700">
      <contour>
        <pt x="755" y="226" on="1"/>
        <pt x="755" y="221" on="0"/>
        <pt x="756" y="203" on="0"/>
        <pt x="762" y="185" on="0"/>
        <pt x="775" y="172" on="0"/>
        <pt x="787" y="172" on="1"/>
        <pt x="816" y="172" on="0"/>
        <pt x="846" y="218" on="0"/>
        <pt x="861" y="276" on="0"/>
        <pt x="863" y="333" on="0"/>
        <pt x="863" y="343" on="1"/>
        <pt x="863" y="412" on="0"/>
        <pt x="815" y="526" on="0"/>
        <pt x="722" y="609" on="0"/>
        <pt x="587" y="654" on="0"/>
        <pt x="500" y="654" on="1"/>
        <pt x="409" y="654" on="0"/>
        <pt x="273" y="605" on="0"/>
        <pt x="183" y="521" on="0"/>
        <pt x="138" y="410" on="0"/>
        <pt x="138" y="347" on="1"/>
        <pt x="138" y="293" on="0"/>
        <pt x="176" y="184" on="0"/>
        <pt x="263" y="95" on="0"/>
        <pt x="403" y="40" on="0"/>
        <pt x="505" y="40" on="1"/>
        <pt x="571" y="40" on="0"/>
        <pt x="742" y="64" on="0"/>
        <pt x="829" y="94" on="1"/>
        <pt x="843" y="99" on="0"/>
        <pt x="854" y="101" on="0"/>
        <pt x="865" y="101" on="1"/>
        <pt x="894" y="101" on="1"/>
        <pt x="905" y="101" on="0"/>
        <pt x="926" y="97" on="0"/>
        <pt x="926" y="83" on="1"/>
        <pt x="926" y="79" on="0"/>
        <pt x="922" y="71" on="0"/>
        <pt x="918" y="69" on="1"/>
        <pt x="917" y="68" on="0"/>
        <pt x="853" y="44" on="0"/>
        <pt x="742" y="17" on="0"/>
        <pt x="592" y="-6" on="0"/>
        <pt x="505" y="-6" on="1"/>
        <pt x="387" y="-6" on="0"/>
        <pt x="223" y="58" on="0"/>
        <pt x="121" y="159" on="0"/>
        <pt x="75" y="285" on="0"/>
        <pt x="75" y="347" on="1"/>
        <pt x="75" y="414" on="0"/>
        <pt x="125" y="541" on="0"/>
        <pt x="229" y="640" on="0"/>
        <pt x="390" y="700" on="0"/>
        <pt x="501" y="700" on="1"/>
        <pt x="608" y="700" on="0"/>
        <pt x="767" y="643" on="0"/>
        <pt x="873" y="545" on="0"/>
        <pt x="926" y="417" on="0"/>
        <pt x="926" y="346" on="1"/>
        <pt x="926" y="317" on="0"/>
        <pt x="914" y="241" on="0"/>
        <pt x="881" y="173" on="0"/>
        <pt x="822" y="126" on="0"/>
        <pt x="775" y="126" on="1"/>
        <pt x="768" y="126" on="0"/>
        <pt x="735" y="128" on="0"/>
        <pt x="695" y="136" on="0"/>
        <pt x="656" y="154" on="0"/>
        <pt x="642" y="170" on="1"/>
        <pt x="607" y="144" on="0"/>
        <pt x="531" y="126" on="0"/>
        <pt x="499" y="126" on="1"/>
        <pt x="438" y="126" on="0"/>
        <pt x="344" y="160" on="0"/>
        <pt x="280" y="220" on="0"/>
        <pt x="246" y="301" on="0"/>
        <pt x="246" y="347" on="1"/>
        <pt x="246" y="393" on="0"/>
        <pt x="279" y="473" on="0"/>
        <pt x="344" y="533" on="0"/>
        <pt x="438" y="568" on="0"/>
        <pt x="499" y="568" on="1"/>
        <pt x="562" y="568" on="0"/>
        <pt x="649" y="525" on="0"/>
        <pt x="675" y="494" on="1"/>
        <pt x="681" y="487" on="0"/>
        <pt x="688" y="484" on="0"/>
        <pt x="700" y="484" on="1"/>
        <pt x="722" y="484" on="1"/>
        <pt x="745" y="484" on="0"/>
        <pt x="755" y="473" on="0"/>
        <pt x="755" y="452" on="1"/>
      </contour>
      <contour>
        <pt x="628" y="461" on="1"/>
        <pt x="613" y="482" on="0"/>
        <pt x="576" y="506" on="0"/>
        <pt x="540" y="519" on="0"/>
        <pt x="510" y="522" on="0"/>
        <pt x="502" y="522" on="1"/>
        <pt x="448" y="522" on="0"/>
        <pt x="373" y="435" on="0"/>
        <pt x="373" y="347" on="1"/>
        <pt x="373" y="259" on="0"/>
        <pt x="448" y="172" on="0"/>
        <pt x="502" y="172" on="1"/>
        <pt x="510" y="172" on="0"/>
        <pt x="540" y="175" on="0"/>
        <pt x="576" y="188" on="0"/>
        <pt x="613" y="212" on="0"/>
        <pt x="628" y="233" on="1"/>
      </contour>
    </TTGlyph>
    <TTGlyph name="b" xMin="55" yMin="-6" xMax="670" yMax="694">
      <contour>
        <pt x="242" y="405" on="1"/>
        <pt x="276" y="426" on="0"/>
        <pt x="359" y="450" on="0"/>
        <pt x="407" y="450" on="1"/>
        <pt x="472" y="450" on="0"/>
        <pt x="571" y="413" on="0"/>
        <pt x="637" y="351" on="0"/>
        <pt x="670" y="268" on="0"/>
        <pt x="670" y="223" on="1"/>
        <pt x="670" y="174" on="0"/>
        <pt x="632" y="90" on="0"/>
        <pt x="560" y="28" on="0"/>
        <pt x="458" y="-6" on="0"/>
        <pt x="393" y="-6" on="1"/>
        <pt x="381" y="-6" on="0"/>
        <pt x="345" y="-3" on="0"/>
        <pt x="301" y="9" on="0"/>
        <pt x="252" y="34" on="0"/>
        <pt x="227" y="55" on="1"/>
        <pt x="220" y="47" on="0"/>
        <pt x="196" y="13" on="0"/>
        <pt x="189" y="5" on="1"/>
        <pt x="185" y="2" on="0"/>
        <pt x="179" y="0" on="0"/>
        <pt x="167" y="0" on="1"/>
        <pt x="122" y="0" on="1"/>
        <pt x="122" y="591" on="1"/>
        <pt x="122" y="606" on="0"/>
        <pt x="118" y="621" on="0"/>
        <pt x="104" y="629" on="0"/>
        <pt x="77" y="630" on="0"/>
        <pt x="55" y="630" on="1"/>
        <pt x="55" y="686" on="1"/>
        <pt x="242" y="694" on="1"/>
      </contour>
      <contour>
        <pt x="249" y="112" on="1"/>
        <pt x="300" y="40" on="0"/>
        <pt x="381" y="40" on="1"/>
        <pt x="437" y="40" on="0"/>
        <pt x="498" y="80" on="0"/>
        <pt x="526" y="138" on="0"/>
        <pt x="531" y="202" on="0"/>
        <pt x="531" y="225" on="1"/>
        <pt x="531" y="248" on="0"/>
        <pt x="527" y="310" on="0"/>
        <pt x="501" y="365" on="0"/>
        <pt x="445" y="404" on="0"/>
        <pt x="393" y="404" on="1"/>
        <pt x="345" y="404" on="0"/>
        <pt x="270" y="367" on="0"/>
        <pt x="249" y="341" on="1"/>
      </contour>
    </TTGlyph>
    <TTGlyph name="bracketleft" xMin="144" yMin="-250" xMax="331" yMax="750">
      <contour>
        <pt x="217" y="677" on="1"/>
        <pt x="217" y="-177" on="1"/>
        <pt x="331" y="-177" on="1"/>
        <pt x="331" y="-250" on="1"/>
        <pt x="144" y="-250" on="1"/>
        <pt x="144" y="750" on="1"/>
        <pt x="331" y="750" on="1"/>
        <pt x="331" y="677" on="1"/>
      </contour>
    </TTGlyph>
    <TTGlyph name="bracketright" xMin="32" yMin="-250" xMax="219" yMax="750">
      <contour>
        <pt x="219" y="-250" on="1"/>
        <pt x="32" y="-250" on="1"/>
        <pt x="32" y="-177" on="1"/>
        <pt x="146" y="-177" on="1"/>
        <pt x="146" y="677" on="1"/>
        <pt x="32" y="677" on="1"/>
        <pt x="32" y="750" on="1"/>
        <pt x="219" y="750" on="1"/>
      </contour>
    </TTGlyph>
    <TTGlyph name="breve" xMin="123" yMin="503" xMax="523" yMax="694">
      <contour>
        <pt x="523" y="694" on="1"/>
        <pt x="522" y="649" on="0"/>
        <pt x="486" y="578" on="0"/>
        <pt x="430" y="529" on="0"/>
        <pt x="359" y="503" on="0"/>
        <pt x="323" y="503" on="1"/>
        <pt x="287" y="503" on="0"/>
        <pt x="216" y="529" on="0"/>
        <pt x="160" y="578" on="0"/>
        <pt x="124" y="649" on="0"/>
        <pt x="123" y="694" on="1"/>
        <pt x="169" y="694" on="1"/>
        <pt x="171" y="660" on="0"/>
        <pt x="203" y="615" on="0"/>
        <pt x="249" y="588" on="0"/>
        <pt x="302" y="576" on="0"/>
        <pt x="323" y="576" on="1"/>
        <pt x="344" y="576" on="0"/>
        <pt x="397" y="588" on="0"/>
        <pt x="443" y="615" on="0"/>
        <pt x="476" y="660" on="0"/>
        <pt x="477" y="694" on="1"/>
      </contour>
    </TTGlyph>
    <TTGlyph name="c" xMin="47" yMin="-6" xMax="535" yMax="453">
      <contour>
        <pt x="535" y="114" on="1"/>
        <pt x="535" y="112" on="0"/>
        <pt x="529" y="93" on="0"/>
        <pt x="512" y="67" on="0"/>
        <pt x="484" y="38" on="0"/>
        <pt x="463" y="25" on="1"/>
        <pt x="433" y="8" on="0"/>
        <pt x="360" y="-6" on="0"/>
        <pt x="323" y="-6" on="1"/>
        <pt x="252" y="-6" on="0"/>
        <pt x="148" y="32" on="0"/>
        <pt x="80" y="96" on="0"/>
        <pt x="47" y="178" on="0"/>
        <pt x="47" y="222" on="1"/>
        <pt x="47" y="257" on="0"/>
        <pt x="72" y="338" on="0"/>
        <pt x="136" y="407" on="0"/>
        <pt x="245" y="453" on="0"/>
        <pt x="329" y="453" on="1"/>
        <pt x="351" y="453" on="0"/>
        <pt x="416" y="449" on="0"/>
        <pt x="477" y="430" on="0"/>
        <pt x="521" y="390" on="0"/>
        <pt x="521" y="354" on="1"/>
        <pt x="521" y="322" on="0"/>
        <pt x="482" y="284" on="0"/>
        <pt x="451" y="284" on="1"/>
        <pt x="422" y="284" on="0"/>
        <pt x="382" y="322" on="0"/>
        <pt x="382" y="353" on="1"/>
        <pt x="382" y="370" on="0"/>
        <pt x="391" y="391" on="0"/>
        <pt x="393" y="393" on="1"/>
        <pt x="395" y="395" on="0"/>
        <pt x="395" y="397" on="1"/>
        <pt x="395" y="399" on="0"/>
        <pt x="377" y="400" on="0"/>
        <pt x="355" y="402" on="0"/>
        <pt x="334" y="402" on="0"/>
        <pt x="332" y="402" on="1"/>
        <pt x="282" y="402" on="0"/>
        <pt x="224" y="368" on="0"/>
        <pt x="194" y="316" on="0"/>
        <pt x="186" y="254" on="0"/>
        <pt x="186" y="226" on="1"/>
        <pt x="186" y="211" on="0"/>
        <pt x="191" y="150" on="0"/>
        <pt x="221" y="90" on="0"/>
        <pt x="287" y="45" on="0"/>
        <pt x="347" y="45" on="1"/>
        <pt x="376" y="45" on="0"/>
        <pt x="418" y="58" on="0"/>
        <pt x="447" y="78" on="0"/>
        <pt x="465" y="104" on="0"/>
        <pt x="471" y="116" on="1"/>
        <pt x="476" y="127" on="0"/>
        <pt x="486" y="132" on="0"/>
        <pt x="503" y="132" on="1"/>
        <pt x="514" y="132" on="0"/>
        <pt x="535" y="128" on="0"/>
      </contour>
    </TTGlyph>
    <TTGlyph name="caron" xMin="151" yMin="515" xMax="495" yMax="661">
      <contour>
        <pt x="469" y="661" on="1"/>
        <pt x="495" y="603" on="1"/>
        <pt x="323" y="515" on="1"/>
        <pt x="151" y="603" on="1"/>
        <pt x="177" y="661" on="1"/>
        <pt x="323" y="607" on="1"/>
      </contour>
    </TTGlyph>
    <TTGlyph name="cedilla" xMin="153" yMin="-205" xMax="493" yMax="-12">
      <contour>
        <pt x="387" y="-21" on="1"/>
        <pt x="402" y="-23" on="0"/>
        <pt x="438" y="-32" on="0"/>
        <pt x="471" y="-52" on="0"/>
        <pt x="493" y="-84" on="0"/>
        <pt x="493" y="-109" on="1"/>
        <pt x="493" y="-123" on="0"/>
        <pt x="479" y="-156" on="0"/>
        <pt x="424" y="-185" on="0"/>
        <pt x="313" y="-205" on="0"/>
        <pt x="216" y="-205" on="1"/>
        <pt x="153" y="-205" on="1"/>
        <pt x="153" y="-159" on="1"/>
        <pt x="198" y="-159" on="1"/>
        <pt x="213" y="-159" on="0"/>
        <pt x="269" y="-157" on="0"/>
        <pt x="325" y="-148" on="0"/>
        <pt x="366" y="-128" on="0"/>
        <pt x="366" y="-109" on="1"/>
        <pt x="366" y="-92" on="0"/>
        <pt x="343" y="-72" on="0"/>
        <pt x="310" y="-63" on="0"/>
        <pt x="274" y="-61" on="0"/>
        <pt x="260" y="-61" on="1"/>
        <pt x="260" y="-12" on="1"/>
        <pt x="387" y="-12" on="1"/>
      </contour>
    </TTGlyph>
    <TTGlyph name="circumflex" xMin="147" yMin="519" xMax="499" yMax="694">
      <contour>
        <pt x="499" y="572" on="1"/>
        <pt x="465" y="519" on="1"/>
        <pt x="323" y="601" on="1"/>
        <pt x="181" y="519" on="1"/>
        <pt x="147" y="572" on="1"/>
        <pt x="323" y="694" on="1"/>
      </contour>
    </TTGlyph>
    <TTGlyph name="colon" xMin="100" yMin="0" xMax="263" yMax="444">
      <contour>
        <pt x="263" y="362" on="1"/>
        <pt x="263" y="330" on="0"/>
        <pt x="217" y="281" on="0"/>
        <pt x="181" y="281" on="1"/>
        <pt x="149" y="281" on="0"/>
        <pt x="100" y="327" on="0"/>
        <pt x="100" y="363" on="1"/>
        <pt x="100" y="395" on="0"/>
        <pt x="146" y="444" on="0"/>
        <pt x="182" y="444" on="1"/>
        <pt x="214" y="444" on="0"/>
        <pt x="263" y="398" on="0"/>
      </contour>
      <contour>
        <pt x="263" y="81" on="1"/>
        <pt x="263" y="49" on="0"/>
        <pt x="217" y="0" on="0"/>
        <pt x="181" y="0" on="1"/>
        <pt x="149" y="0" on="0"/>
        <pt x="100" y="46" on="0"/>
        <pt x="100" y="82" on="1"/>
        <pt x="100" y="114" on="0"/>
        <pt x="146" y="163" on="0"/>
        <pt x="182" y="163" on="1"/>
        <pt x="214" y="163" on="0"/>
        <pt x="263" y="117" on="0"/>
      </contour>
    </TTGlyph>
    <TTGlyph name="comma" xMin="100" yMin="-194" xMax="277" yMax="163">
      <contour>
        <pt x="230" y="14" on="1"/>
        <pt x="222" y="8" on="0"/>
        <pt x="203" y="0" on="0"/>
        <pt x="182" y="0" on="1"/>
        <pt x="143" y="0" on="0"/>
        <pt x="100" y="50" on="0"/>
        <pt x="100" y="82" on="1"/>
        <pt x="100" y="114" on="0"/>
        <pt x="143" y="163" on="0"/>
        <pt x="181" y="163" on="1"/>
        <pt x="204" y="163" on="0"/>
        <pt x="239" y="142" on="0"/>
        <pt x="264" y="107" on="0"/>
        <pt x="277" y="60" on="0"/>
        <pt x="277" y="34" on="1"/>
        <pt x="277" y="-19" on="0"/>
        <pt x="242" y="-103" on="0"/>
        <pt x="198" y="-162" on="0"/>
        <pt x="156" y="-194" on="0"/>
        <pt x="150" y="-194" on="1"/>
        <pt x="142" y="-194" on="0"/>
        <pt x="125" y="-177" on="0"/>
        <pt x="125" y="-169" on="1"/>
        <pt x="125" y="-162" on="0"/>
        <pt x="132" y="-154" on="0"/>
        <pt x="136" y="-151" on="1"/>
        <pt x="145" y="-145" on="0"/>
        <pt x="173" y="-120" on="0"/>
        <pt x="201" y="-81" on="0"/>
        <pt x="226" y="-24" on="0"/>
      </contour>
    </TTGlyph>
    <TTGlyph name="d" xMin="47" yMin="-6" xMax="662" yMax="694">
      <contour>
        <pt x="595" y="694" on="1"/>
        <pt x="595" y="95" on="1"/>
        <pt x="595" y="80" on="0"/>
        <pt x="599" y="65" on="0"/>
        <pt x="613" y="57" on="0"/>
        <pt x="640" y="56" on="0"/>
        <pt x="662" y="56" on="1"/>
        <pt x="662" y="0" on="1"/>
        <pt x="468" y="-6" on="1"/>
        <pt x="468" y="42" on="1"/>
        <pt x="438" y="21" on="0"/>
        <pt x="359" y="-6" on="0"/>
        <pt x="311" y="-6" on="1"/>
        <pt x="247" y="-6" on="0"/>
        <pt x="148" y="30" on="0"/>
        <pt x="81" y="92" on="0"/>
        <pt x="47" y="175" on="0"/>
        <pt x="47" y="221" on="1"/>
        <pt x="47" y="269" on="0"/>
        <pt x="83" y="352" on="0"/>
        <pt x="154" y="414" on="0"/>
        <pt x="257" y="450" on="0"/>
        <pt x="324" y="450" on="1"/>
        <pt x="349" y="450" on="0"/>
        <pt x="428" y="437" on="0"/>
        <pt x="475" y="408" on="1"/>
        <pt x="475" y="591" on="1"/>
        <pt x="475" y="606" on="0"/>
        <pt x="471" y="621" on="0"/>
        <pt x="457" y="629" on="0"/>
        <pt x="430" y="630" on="0"/>
        <pt x="408" y="630" on="1"/>
        <pt x="408" y="686" on="1"/>
      </contour>
      <contour>
        <pt x="468" y="344" on="1"/>
        <pt x="467" y="346" on="0"/>
        <pt x="449" y="365" on="0"/>
        <pt x="416" y="386" on="0"/>
        <pt x="368" y="404" on="0"/>
        <pt x="336" y="404" on="1"/>
        <pt x="280" y="404" on="0"/>
        <pt x="219" y="364" on="0"/>
        <pt x="191" y="306" on="0"/>
        <pt x="186" y="242" on="0"/>
        <pt x="186" y="219" on="1"/>
        <pt x="186" y="197" on="0"/>
        <pt x="190" y="135" on="0"/>
        <pt x="216" y="79" on="0"/>
        <pt x="272" y="40" on="0"/>
        <pt x="323" y="40" on="1"/>
        <pt x="350" y="40" on="0"/>
        <pt x="396" y="54" on="0"/>
        <pt x="432" y="77" on="0"/>
        <pt x="459" y="104" on="0"/>
        <pt x="468" y="116" on="1"/>
      </contour>
    </TTGlyph>
    <TTGlyph name="dieresis" xMin="124" yMin="545" xMax="522" yMax="695">
      <contour>
        <pt x="274" y="620" on="1"/>
        <pt x="274" y="587" on="0"/>
        <pt x="229" y="545" on="0"/>
        <pt x="199" y="545" on="1"/>
        <pt x="168" y="545" on="0"/>
        <pt x="124" y="590" on="0"/>
        <pt x="124" y="620" on="1"/>
        <pt x="124" y="650" on="0"/>
        <pt x="168" y="695" on="0"/>
        <pt x="199" y="695" on="1"/>
        <pt x="229" y="695" on="0"/>
        <pt x="274" y="653" on="0"/>
      </contour>
      <contour>
        <pt x="522" y="620" on="1"/>
        <pt x="522" y="590" on="0"/>
        <pt x="478" y="545" on="0"/>
        <pt x="447" y="545" on="1"/>
        <pt x="417" y="545" on="0"/>
        <pt x="372" y="587" on="0"/>
        <pt x="372" y="620" on="1"/>
        <pt x="372" y="653" on="0"/>
        <pt x="417" y="695" on="0"/>
        <pt x="447" y="695" on="1"/>
        <pt x="478" y="695" on="0"/>
        <pt x="522" y="650" on="0"/>
      </contour>
    </TTGlyph>
    <TTGlyph name="dollar" xMin="75" yMin="-56" xMax="571" yMax="750">
      <contour>
        <pt x="351" y="432" on="1"/>
        <pt x="420" y="420" on="0"/>
        <pt x="506" y="367" on="0"/>
        <pt x="554" y="303" on="0"/>
        <pt x="571" y="236" on="0"/>
        <pt x="571" y="212" on="1"/>
        <pt x="571" y="181" on="0"/>
        <pt x="551" y="110" on="0"/>
        <pt x="500" y="47" on="0"/>
        <pt x="416" y="1" on="0"/>
        <pt x="351" y="-5" on="1"/>
        <pt x="351" y="-56" on="1"/>
        <pt x="295" y="-56" on="1"/>
        <pt x="295" y="-5" on="1"/>
        <pt x="236" y="-1" on="0"/>
        <pt x="153" y="34" on="0"/>
        <pt x="100" y="86" on="0"/>
        <pt x="75" y="153" on="0"/>
        <pt x="75" y="188" on="1"/>
        <pt x="75" y="209" on="0"/>
        <pt x="89" y="237" on="0"/>
        <pt x="110" y="254" on="0"/>
        <pt x="135" y="261" on="0"/>
        <pt x="145" y="261" on="1"/>
        <pt x="171" y="261" on="0"/>
        <pt x="214" y="226" on="0"/>
        <pt x="214" y="191" on="1"/>
        <pt x="214" y="186" on="0"/>
        <pt x="211" y="166" on="0"/>
        <pt x="199" y="145" on="0"/>
        <pt x="176" y="127" on="0"/>
        <pt x="155" y="123" on="1"/>
        <pt x="166" y="104" on="0"/>
        <pt x="200" y="77" on="0"/>
        <pt x="238" y="61" on="0"/>
        <pt x="277" y="53" on="0"/>
        <pt x="295" y="51" on="1"/>
        <pt x="295" y="289" on="1"/>
        <pt x="274" y="294" on="0"/>
        <pt x="235" y="303" on="0"/>
        <pt x="198" y="317" on="0"/>
        <pt x="160" y="338" on="0"/>
        <pt x="140" y="355" on="1"/>
        <pt x="136" y="359" on="0"/>
        <pt x="114" y="381" on="0"/>
        <pt x="92" y="417" on="0"/>
        <pt x="75" y="465" on="0"/>
        <pt x="75" y="495" on="1"/>
        <pt x="75" y="525" on="0"/>
        <pt x="96" y="593" on="0"/>
        <pt x="147" y="652" on="0"/>
        <pt x="231" y="694" on="0"/>
        <pt x="295" y="699" on="1"/>
        <pt x="295" y="750" on="1"/>
        <pt x="351" y="750" on="1"/>
        <pt x="351" y="699" on="1"/>
        <pt x="410" y="696" on="0"/>
        <pt x="493" y="665" on="0"/>
        <pt x="546" y="616" on="0"/>
        <pt x="571" y="554" on="0"/>
        <pt x="571" y="520" on="1"/>
        <pt x="571" y="499" on="0"/>
        <pt x="557" y="471" on="0"/>
        <pt x="536" y="454" on="0"/>
        <pt x="512" y="447" on="0"/>
        <pt x="501" y="447" on="1"/>
        <pt x="473" y="447" on="0"/>
        <pt x="432" y="484" on="0"/>
        <pt x="432" y="516" on="1"/>
        <pt x="432" y="537" on="0"/>
        <pt x="449" y="565" on="0"/>
        <pt x="469" y="580" on="0"/>
        <pt x="487" y="586" on="0"/>
        <pt x="487" y="586" on="1"/>
        <pt x="474" y="604" on="0"/>
        <pt x="437" y="625" on="0"/>
        <pt x="398" y="637" on="0"/>
        <pt x="363" y="642" on="0"/>
        <pt x="351" y="643" on="1"/>
      </contour>
      <contour>
        <pt x="295" y="643" on="1"/>
        <pt x="256" y="640" on="0"/>
        <pt x="205" y="617" on="0"/>
        <pt x="175" y="588" on="0"/>
        <pt x="164" y="557" on="0"/>
        <pt x="164" y="544" on="1"/>
        <pt x="164" y="506" on="0"/>
        <pt x="232" y="454" on="0"/>
        <pt x="295" y="443" on="1"/>
      </contour>
      <contour>
        <pt x="351" y="51" on="1"/>
        <pt x="413" y="56" on="0"/>
        <pt x="482" y="119" on="0"/>
        <pt x="482" y="164" on="1"/>
        <pt x="482" y="206" on="0"/>
        <pt x="413" y="269" on="0"/>
        <pt x="351" y="278" on="1"/>
      </contour>
    </TTGlyph>
    <TTGlyph name="dotaccent" xMin="99" yMin="532" xMax="263" yMax="695">
      <contour>
        <pt x="263" y="613" on="1"/>
        <pt x="263" y="597" on="0"/>
        <pt x="250" y="568" on="0"/>
        <pt x="228" y="545" on="0"/>
        <pt x="198" y="532" on="0"/>
        <pt x="181" y="532" on="1"/>
        <pt x="147" y="532" on="0"/>
        <pt x="99" y="579" on="0"/>
        <pt x="99" y="614" on="1"/>
        <pt x="99" y="630" on="0"/>
        <pt x="112" y="659" on="0"/>
        <pt x="134" y="682" on="0"/>
        <pt x="164" y="695" on="0"/>
        <pt x="181" y="695" on="1"/>
        <pt x="215" y="695" on="0"/>
        <pt x="263" y="648" on="0"/>
      </contour>
    </TTGlyph>
    <TTGlyph name="dotlessi" xMin="67" yMin="0" xMax="315" yMax="450">
      <contour>
        <pt x="254" y="56" on="1"/>
        <pt x="315" y="56" on="1"/>
        <pt x="315" y="0" on="1"/>
        <pt x="284" y="2" on="0"/>
        <pt x="224" y="4" on="0"/>
        <pt x="193" y="4" on="1"/>
        <pt x="176" y="4" on="0"/>
        <pt x="133" y="3" on="0"/>
        <pt x="95" y="1" on="0"/>
        <pt x="68" y="0" on="0"/>
        <pt x="67" y="0" on="1"/>
        <pt x="67" y="56" on="1"/>
        <pt x="134" y="56" on="1"/>
        <pt x="134" y="347" on="1"/>
        <pt x="134" y="362" on="0"/>
        <pt x="130" y="377" on="0"/>
        <pt x="117" y="385" on="0"/>
        <pt x="91" y="386" on="0"/>
        <pt x="70" y="386" on="1"/>
        <pt x="70" y="442" on="1"/>
        <pt x="254" y="450" on="1"/>
      </contour>
    </TTGlyph>
    <TTGlyph name="e" xMin="40" yMin="-6" xMax="551" yMax="453">
      <contour>
        <pt x="179" y="208" on="1"/>
        <pt x="180" y="191" on="0"/>
        <pt x="187" y="136" on="0"/>
        <pt x="219" y="83" on="0"/>
        <pt x="285" y="45" on="0"/>
        <pt x="344" y="45" on="1"/>
        <pt x="350" y="45" on="0"/>
        <pt x="387" y="47" on="0"/>
        <pt x="431" y="61" on="0"/>
        <pt x="475" y="91" on="0"/>
        <pt x="488" y="119" on="1"/>
        <pt x="494" y="131" on="0"/>
        <pt x="505" y="136" on="0"/>
        <pt x="519" y="136" on="1"/>
        <pt x="523" y="136" on="0"/>
        <pt x="534" y="135" on="0"/>
        <pt x="544" y="131" on="0"/>
        <pt x="551" y="122" on="0"/>
        <pt x="551" y="114" on="1"/>
        <pt x="551" y="110" on="0"/>
        <pt x="544" y="90" on="0"/>
        <pt x="526" y="65" on="0"/>
        <pt x="496" y="37" on="0"/>
        <pt x="474" y="25" on="1"/>
        <pt x="436" y="5" on="0"/>
        <pt x="357" y="-6" on="0"/>
        <pt x="330" y="-6" on="1"/>
        <pt x="256" y="-6" on="0"/>
        <pt x="147" y="33" on="0"/>
        <pt x="75" y="97" on="0"/>
        <pt x="40" y="180" on="0"/>
        <pt x="40" y="225" on="1"/>
        <pt x="40" y="269" on="0"/>
        <pt x="73" y="352" on="0"/>
        <pt x="141" y="415" on="0"/>
        <pt x="244" y="453" on="0"/>
        <pt x="313" y="453" on="1"/>
        <pt x="334" y="453" on="0"/>
        <pt x="381" y="449" on="0"/>
        <pt x="429" y="436" on="0"/>
        <pt x="476" y="411" on="0"/>
        <pt x="496" y="391" on="1"/>
        <pt x="514" y="373" on="0"/>
        <pt x="536" y="328" on="0"/>
        <pt x="547" y="286" on="0"/>
        <pt x="551" y="249" on="0"/>
        <pt x="551" y="238" on="1"/>
        <pt x="551" y="215" on="0"/>
        <pt x="532" y="208" on="0"/>
        <pt x="516" y="208" on="1"/>
      </contour>
      <contour>
        <pt x="452" y="250" on="1"/>
        <pt x="451" y="266" on="0"/>
        <pt x="444" y="319" on="0"/>
        <pt x="417" y="370" on="0"/>
        <pt x="362" y="407" on="0"/>
        <pt x="314" y="407" on="1"/>
        <pt x="266" y="407" on="0"/>
        <pt x="212" y="369" on="0"/>
        <pt x="185" y="317" on="0"/>
        <pt x="179" y="265" on="0"/>
        <pt x="179" y="250" on="1"/>
      </contour>
    </TTGlyph>
    <TTGlyph name="eight" xMin="57" yMin="-12" xMax="589" yMax="656">
      <contour>
        <pt x="448" y="369" on="1"/>
        <pt x="464" y="361" on="0"/>
        <pt x="512" y="333" on="0"/>
        <pt x="557" y="290" on="0"/>
        <pt x="589" y="230" on="0"/>
        <pt x="589" y="188" on="1"/>
        <pt x="589" y="146" on="0"/>
        <pt x="557" y="73" on="0"/>
        <pt x="491" y="19" on="0"/>
        <pt x="390" y="-12" on="0"/>
        <pt x="321" y="-12" on="1"/>
        <pt x="301" y="-12" on="0"/>
        <pt x="246" y="-8" on="0"/>
        <pt x="187" y="4" on="0"/>
        <pt x="130" y="27" on="0"/>
        <pt x="85" y="66" on="0"/>
        <pt x="57" y="123" on="0"/>
        <pt x="57" y="163" on="1"/>
        <pt x="57" y="226" on="0"/>
        <pt x="129" y="307" on="0"/>
        <pt x="189" y="330" on="1"/>
        <pt x="185" y="332" on="0"/>
        <pt x="154" y="353" on="0"/>
        <pt x="120" y="390" on="0"/>
        <pt x="93" y="443" on="0"/>
        <pt x="93" y="478" on="1"/>
        <pt x="93" y="514" on="0"/>
        <pt x="120" y="579" on="0"/>
        <pt x="177" y="628" on="0"/>
        <pt x="265" y="656" on="0"/>
        <pt x="326" y="656" on="1"/>
        <pt x="336" y="656" on="0"/>
        <pt x="377" y="655" on="0"/>
        <pt x="427" y="646" on="0"/>
        <pt x="481" y="628" on="0"/>
        <pt x="525" y="595" on="0"/>
        <pt x="553" y="544" on="0"/>
        <pt x="553" y="507" on="1"/>
        <pt x="553" y="464" on="0"/>
        <pt x="502" y="395" on="0"/>
      </contour>
      <contour>
        <pt x="390" y="399" on="1"/>
        <pt x="423" y="417" on="0"/>
        <pt x="465" y="468" on="0"/>
        <pt x="465" y="506" on="1"/>
        <pt x="465" y="557" on="0"/>
        <pt x="389" y="610" on="0"/>
        <pt x="320" y="610" on="1"/>
        <pt x="254" y="610" on="0"/>
        <pt x="181" y="575" on="0"/>
        <pt x="181" y="537" on="1"/>
        <pt x="181" y="522" on="0"/>
        <pt x="201" y="495" on="0"/>
        <pt x="227" y="481" on="1"/>
      </contour>
      <contour>
        <pt x="253" y="298" on="1"/>
        <pt x="209" y="276" on="0"/>
        <pt x="159" y="210" on="0"/>
        <pt x="159" y="163" on="1"/>
        <pt x="159" y="100" on="0"/>
        <pt x="253" y="39" on="0"/>
        <pt x="325" y="39" on="1"/>
        <pt x="353" y="39" on="0"/>
        <pt x="411" y="47" on="0"/>
        <pt x="457" y="68" on="0"/>
        <pt x="487" y="106" on="0"/>
        <pt x="487" y="135" on="1"/>
        <pt x="487" y="152" on="0"/>
        <pt x="473" y="177" on="0"/>
        <pt x="449" y="198" on="0"/>
        <pt x="415" y="217" on="0"/>
        <pt x="395" y="227" on="1"/>
      </contour>
    </TTGlyph>
    <TTGlyph name="emdash" xMin="8" yMin="251" xMax="1285" yMax="297">
      <contour>
        <pt x="8" y="251" on="1"/>
        <pt x="8" y="297" on="1"/>
        <pt x="1285" y="297" on="1"/>
        <pt x="1285" y="251" on="1"/>
      </contour>
    </TTGlyph>
    <TTGlyph name="endash" xMin="4" yMin="251" xMax="642" yMax="297">
      <contour>
        <pt x="4" y="251" on="1"/>
        <pt x="4" y="297" on="1"/>
        <pt x="642" y="297" on="1"/>
        <pt x="642" y="251" on="1"/>
      </contour>
    </TTGlyph>
    <TTGlyph name="equal" xMin="75" yMin="89" xMax="926" yMax="412">
      <contour>
        <pt x="121" y="339" on="1"/>
        <pt x="117" y="339" on="0"/>
        <pt x="101" y="340" on="0"/>
        <pt x="86" y="347" on="0"/>
        <pt x="75" y="362" on="0"/>
        <pt x="75" y="375" on="1"/>
        <pt x="75" y="389" on="0"/>
        <pt x="87" y="404" on="0"/>
        <pt x="104" y="411" on="0"/>
        <pt x="122" y="412" on="0"/>
        <pt x="127" y="412" on="1"/>
        <pt x="874" y="412" on="1"/>
        <pt x="879" y="412" on="0"/>
        <pt x="897" y="411" on="0"/>
        <pt x="914" y="404" on="0"/>
        <pt x="926" y="389" on="0"/>
        <pt x="926" y="375" on="1"/>
        <pt x="926" y="362" on="0"/>
        <pt x="915" y="347" on="0"/>
        <pt x="900" y="340" on="0"/>
        <pt x="884" y="339" on="0"/>
        <pt x="880" y="339" on="1"/>
      </contour>
      <contour>
        <pt x="127" y="89" on="1"/>
        <pt x="122" y="89" on="0"/>
        <pt x="104" y="90" on="0"/>
        <pt x="87" y="97" on="0"/>
        <pt x="75" y="112" on="0"/>
        <pt x="75" y="126" on="1"/>
        <pt x="75" y="140" on="0"/>
        <pt x="86" y="154" on="0"/>
        <pt x="101" y="161" on="0"/>
        <pt x="117" y="162" on="0"/>
        <pt x="121" y="162" on="1"/>
        <pt x="880" y="162" on="1"/>
        <pt x="884" y="162" on="0"/>
        <pt x="900" y="161" on="0"/>
        <pt x="915" y="154" on="0"/>
        <pt x="926" y="140" on="0"/>
        <pt x="926" y="126" on="1"/>
        <pt x="926" y="112" on="0"/>
        <pt x="914" y="97" on="0"/>
        <pt x="897" y="90" on="0"/>
        <pt x="879" y="89" on="0"/>
        <pt x="874" y="89" on="1"/>
      </contour>
    </TTGlyph>
    <TTGlyph name="exclam" xMin="117" yMin="0" xMax="280" yMax="706">
      <contour>
        <pt x="231" y="258" on="1"/>
        <pt x="229" y="241" on="0"/>
        <pt x="220" y="231" on="0"/>
        <pt x="199" y="231" on="1"/>
        <pt x="177" y="231" on="0"/>
        <pt x="168" y="241" on="0"/>
        <pt x="166" y="259" on="1"/>
        <pt x="120" y="604" on="1"/>
        <pt x="119" y="610" on="0"/>
        <pt x="117" y="627" on="0"/>
        <pt x="117" y="631" on="1"/>
        <pt x="117" y="649" on="0"/>
        <pt x="131" y="676" on="0"/>
        <pt x="154" y="696" on="0"/>
        <pt x="184" y="706" on="0"/>
        <pt x="199" y="706" on="1"/>
        <pt x="213" y="706" on="0"/>
        <pt x="242" y="696" on="0"/>
        <pt x="265" y="677" on="0"/>
        <pt x="280" y="649" on="0"/>
        <pt x="280" y="631" on="1"/>
        <pt x="280" y="627" on="0"/>
        <pt x="278" y="609" on="0"/>
        <pt x="277" y="604" on="1"/>
      </contour>
      <contour>
        <pt x="280" y="81" on="1"/>
        <pt x="280" y="49" on="0"/>
        <pt x="234" y="0" on="0"/>
        <pt x="198" y="0" on="1"/>
        <pt x="166" y="0" on="0"/>
        <pt x="117" y="46" on="0"/>
        <pt x="117" y="82" on="1"/>
        <pt x="117" y="114" on="0"/>
        <pt x="163" y="163" on="0"/>
        <pt x="199" y="163" on="1"/>
        <pt x="231" y="163" on="0"/>
        <pt x="280" y="117" on="0"/>
      </contour>
    </TTGlyph>
    <TTGlyph name="exclamdown" xMin="117" yMin="-206" xMax="280" yMax="500">
      <contour>
        <pt x="280" y="418" on="1"/>
        <pt x="280" y="386" on="0"/>
        <pt x="234" y="337" on="0"/>
        <pt x="198" y="337" on="1"/>
        <pt x="166" y="337" on="0"/>
        <pt x="117" y="383" on="0"/>
        <pt x="117" y="419" on="1"/>
        <pt x="117" y="451" on="0"/>
        <pt x="163" y="500" on="0"/>
        <pt x="199" y="500" on="1"/>
        <pt x="231" y="500" on="0"/>
        <pt x="280" y="454" on="0"/>
      </contour>
      <contour>
        <pt x="166" y="242" on="1"/>
        <pt x="168" y="259" on="0"/>
        <pt x="177" y="269" on="0"/>
        <pt x="198" y="269" on="1"/>
        <pt x="220" y="269" on="0"/>
        <pt x="229" y="259" on="0"/>
        <pt x="231" y="241" on="1"/>
        <pt x="277" y="-104" on="1"/>
        <pt x="278" y="-110" on="0"/>
        <pt x="280" y="-127" on="0"/>
        <pt x="280" y="-131" on="1"/>
        <pt x="280" y="-149" on="0"/>
        <pt x="266" y="-176" on="0"/>
        <pt x="243" y="-196" on="0"/>
        <pt x="213" y="-206" on="0"/>
        <pt x="198" y="-206" on="1"/>
        <pt x="184" y="-206" on="0"/>
        <pt x="155" y="-196" on="0"/>
        <pt x="132" y="-177" on="0"/>
        <pt x="117" y="-149" on="0"/>
        <pt x="117" y="-131" on="1"/>
        <pt x="117" y="-127" on="0"/>
        <pt x="119" y="-109" on="0"/>
        <pt x="120" y="-104" on="1"/>
      </contour>
    </TTGlyph>
    <TTGlyph name="f" xMin="52" yMin="0" xMax="491" yMax="700">
      <contour>
        <pt x="255" y="56" on="1"/>
        <pt x="339" y="56" on="1"/>
        <pt x="339" y="0" on="1"/>
        <pt x="336" y="0" on="0"/>
        <pt x="302" y="1" on="0"/>
        <pt x="257" y="3" on="0"/>
        <pt x="211" y="4" on="0"/>
        <pt x="196" y="4" on="1"/>
        <pt x="178" y="4" on="0"/>
        <pt x="135" y="3" on="0"/>
        <pt x="97" y="1" on="0"/>
        <pt x="70" y="0" on="0"/>
        <pt x="68" y="0" on="1"/>
        <pt x="68" y="56" on="1"/>
        <pt x="135" y="56" on="1"/>
        <pt x="135" y="388" on="1"/>
        <pt x="52" y="388" on="1"/>
        <pt x="52" y="444" on="1"/>
        <pt x="135" y="444" on="1"/>
        <pt x="135" y="540" on="1"/>
        <pt x="135" y="582" on="0"/>
        <pt x="174" y="643" on="0"/>
        <pt x="239" y="682" on="0"/>
        <pt x="322" y="700" on="0"/>
        <pt x="365" y="700" on="1"/>
        <pt x="397" y="700" on="0"/>
        <pt x="444" y="684" on="0"/>
        <pt x="476" y="657" on="0"/>
        <pt x="491" y="623" on="0"/>
        <pt x="491" y="606" on="1"/>
        <pt x="491" y="571" on="0"/>
        <pt x="447" y="537" on="0"/>
        <pt x="422" y="537" on="1"/>
        <pt x="411" y="537" on="0"/>
        <pt x="387" y="545" on="0"/>
        <pt x="367" y="562" on="0"/>
        <pt x="354" y="588" on="0"/>
        <pt x="354" y="606" on="1"/>
        <pt x="354" y="621" on="0"/>
        <pt x="363" y="642" on="0"/>
        <pt x="366" y="647" on="1"/>
        <pt x="369" y="650" on="0"/>
        <pt x="369" y="652" on="1"/>
        <pt x="369" y="653" on="0"/>
        <pt x="366" y="654" on="0"/>
        <pt x="358" y="654" on="1"/>
        <pt x="317" y="654" on="0"/>
        <pt x="272" y="623" on="0"/>
        <pt x="251" y="582" on="0"/>
        <pt x="248" y="544" on="0"/>
        <pt x="248" y="538" on="1"/>
        <pt x="248" y="444" on="1"/>
        <pt x="383" y="444" on="1"/>
        <pt x="383" y="388" on="1"/>
        <pt x="255" y="388" on="1"/>
      </contour>
    </TTGlyph>
    <TTGlyph name="f_f" xMin="39" yMin="0" xMax="841" yMax="700">
      <contour>
        <pt x="604" y="56" on="1"/>
        <pt x="688" y="56" on="1"/>
        <pt x="688" y="0" on="1"/>
        <pt x="685" y="0" on="0"/>
        <pt x="651" y="1" on="0"/>
        <pt x="606" y="3" on="0"/>
        <pt x="560" y="4" on="0"/>
        <pt x="545" y="4" on="1"/>
        <pt x="527" y="4" on="0"/>
        <pt x="484" y="3" on="0"/>
        <pt x="446" y="1" on="0"/>
        <pt x="419" y="0" on="0"/>
        <pt x="417" y="0" on="1"/>
        <pt x="417" y="56" on="1"/>
        <pt x="484" y="56" on="1"/>
        <pt x="484" y="388" on="1"/>
        <pt x="242" y="388" on="1"/>
        <pt x="242" y="56" on="1"/>
        <pt x="309" y="56" on="1"/>
        <pt x="309" y="0" on="1"/>
        <pt x="308" y="0" on="0"/>
        <pt x="282" y="1" on="0"/>
        <pt x="244" y="3" on="0"/>
        <pt x="200" y="4" on="0"/>
        <pt x="182" y="4" on="1"/>
        <pt x="165" y="4" on="0"/>
        <pt x="122" y="3" on="0"/>
        <pt x="83" y="1" on="0"/>
        <pt x="56" y="0" on="0"/>
        <pt x="55" y="0" on="1"/>
        <pt x="55" y="56" on="1"/>
        <pt x="122" y="56" on="1"/>
        <pt x="122" y="388" on="1"/>
        <pt x="39" y="388" on="1"/>
        <pt x="39" y="444" on="1"/>
        <pt x="122" y="444" on="1"/>
        <pt x="122" y="539" on="1"/>
        <pt x="122" y="586" on="0"/>
        <pt x="178" y="647" on="0"/>
        <pt x="266" y="685" on="0"/>
        <pt x="373" y="700" on="0"/>
        <pt x="424" y="700" on="1"/>
        <pt x="433" y="700" on="0"/>
        <pt x="464" y="699" on="0"/>
        <pt x="501" y="692" on="0"/>
        <pt x="541" y="678" on="0"/>
        <pt x="558" y="664" on="1"/>
        <pt x="578" y="675" on="0"/>
        <pt x="652" y="700" on="0"/>
        <pt x="714" y="700" on="1"/>
        <pt x="747" y="700" on="0"/>
        <pt x="795" y="683" on="0"/>
        <pt x="826" y="656" on="0"/>
        <pt x="841" y="623" on="0"/>
        <pt x="841" y="606" on="1"/>
        <pt x="841" y="571" on="0"/>
        <pt x="797" y="537" on="0"/>
        <pt x="772" y="537" on="1"/>
        <pt x="761" y="537" on="0"/>
        <pt x="737" y="545" on="0"/>
        <pt x="717" y="562" on="0"/>
        <pt x="704" y="588" on="0"/>
        <pt x="704" y="606" on="1"/>
        <pt x="704" y="621" on="0"/>
        <pt x="713" y="642" on="0"/>
        <pt x="716" y="647" on="1"/>
        <pt x="719" y="650" on="0"/>
        <pt x="719" y="652" on="1"/>
        <pt x="719" y="653" on="0"/>
        <pt x="716" y="654" on="0"/>
        <pt x="708" y="654" on="1"/>
        <pt x="666" y="654" on="0"/>
        <pt x="621" y="623" on="0"/>
        <pt x="600" y="582" on="0"/>
        <pt x="597" y="544" on="0"/>
        <pt x="597" y="538" on="1"/>
        <pt x="597" y="444" on="1"/>
        <pt x="733" y="444" on="1"/>
        <pt x="733" y="388" on="1"/>
        <pt x="604" y="388" on="1"/>
      </contour>
      <contour>
        <pt x="484" y="444" on="1"/>
        <pt x="484" y="537" on="1"/>
        <pt x="470" y="545" on="0"/>
        <pt x="456" y="576" on="0"/>
        <pt x="456" y="593" on="1"/>
        <pt x="456" y="606" on="0"/>
        <pt x="463" y="625" on="0"/>
        <pt x="471" y="639" on="0"/>
        <pt x="479" y="646" on="0"/>
        <pt x="479" y="646" on="1"/>
        <pt x="478" y="646" on="0"/>
        <pt x="442" y="654" on="0"/>
        <pt x="413" y="654" on="1"/>
        <pt x="379" y="654" on="0"/>
        <pt x="315" y="642" on="0"/>
        <pt x="265" y="615" on="0"/>
        <pt x="235" y="569" on="0"/>
        <pt x="235" y="536" on="1"/>
        <pt x="235" y="444" on="1"/>
      </contour>
    </TTGlyph>
    <TTGlyph name="f_f_i" xMin="39" yMin="0" xMax="1033" yMax="700">
      <contour>
        <pt x="966" y="454" on="1"/>
        <pt x="966" y="56" on="1"/>
        <pt x="1033" y="56" on="1"/>
        <pt x="1033" y="0" on="1"/>
        <pt x="1032" y="0" on="0"/>
        <pt x="1006" y="1" on="0"/>
        <pt x="968" y="3" on="0"/>
        <pt x="924" y="4" on="0"/>
        <pt x="906" y="4" on="1"/>
        <pt x="889" y="4" on="0"/>
        <pt x="846" y="3" on="0"/>
        <pt x="807" y="1" on="0"/>
        <pt x="780" y="0" on="0"/>
        <pt x="779" y="0" on="1"/>
        <pt x="779" y="56" on="1"/>
        <pt x="846" y="56" on="1"/>
        <pt x="846" y="353" on="1"/>
        <pt x="846" y="379" on="0"/>
        <pt x="834" y="388" on="0"/>
        <pt x="816" y="388" on="1"/>
        <pt x="604" y="388" on="1"/>
        <pt x="604" y="56" on="1"/>
        <pt x="671" y="56" on="1"/>
        <pt x="671" y="0" on="1"/>
        <pt x="670" y="0" on="0"/>
        <pt x="644" y="1" on="0"/>
        <pt x="606" y="3" on="0"/>
        <pt x="562" y="4" on="0"/>
        <pt x="544" y="4" on="1"/>
        <pt x="527" y="4" on="0"/>
        <pt x="484" y="3" on="0"/>
        <pt x="445" y="1" on="0"/>
        <pt x="418" y="0" on="0"/>
        <pt x="417" y="0" on="1"/>
        <pt x="417" y="56" on="1"/>
        <pt x="484" y="56" on="1"/>
        <pt x="484" y="388" on="1"/>
        <pt x="242" y="388" on="1"/>
        <pt x="242" y="56" on="1"/>
        <pt x="309" y="56" on="1"/>
        <pt x="309" y="0" on="1"/>
        <pt x="308" y="0" on="0"/>
        <pt x="282" y="1" on="0"/>
        <pt x="244" y="3" on="0"/>
        <pt x="200" y="4" on="0"/>
        <pt x="182" y="4" on="1"/>
        <pt x="165" y="4" on="0"/>
        <pt x="122" y="3" on="0"/>
        <pt x="83" y="1" on="0"/>
        <pt x="56" y="0" on="0"/>
        <pt x="55" y="0" on="1"/>
        <pt x="55" y="56" on="1"/>
        <pt x="122" y="56" on="1"/>
        <pt x="122" y="388" on="1"/>
        <pt x="39" y="388" on="1"/>
        <pt x="39" y="444" on="1"/>
        <pt x="122" y="444" on="1"/>
        <pt x="122" y="539" on="1"/>
        <pt x="122" y="585" on="0"/>
        <pt x="178" y="647" on="0"/>
        <pt x="265" y="684" on="0"/>
        <pt x="372" y="700" on="0"/>
        <pt x="423" y="700" on="1"/>
        <pt x="432" y="700" on="0"/>
        <pt x="464" y="699" on="0"/>
        <pt x="501" y="690" on="0"/>
        <pt x="542" y="671" on="0"/>
        <pt x="561" y="654" on="1"/>
        <pt x="607" y="680" on="0"/>
        <pt x="726" y="700" on="0"/>
        <pt x="789" y="700" on="1"/>
        <pt x="837" y="700" on="0"/>
        <pt x="903" y="677" on="0"/>
        <pt x="944" y="641" on="0"/>
        <pt x="962" y="598" on="0"/>
        <pt x="962" y="578" on="1"/>
        <pt x="962" y="546" on="0"/>
        <pt x="922" y="506" on="0"/>
        <pt x="890" y="506" on="1"/>
        <pt x="860" y="506" on="0"/>
        <pt x="819" y="546" on="0"/>
        <pt x="819" y="577" on="1"/>
        <pt x="819" y="603" on="0"/>
        <pt x="842" y="634" on="0"/>
        <pt x="853" y="639" on="1"/>
        <pt x="832" y="649" on="0"/>
        <pt x="796" y="654" on="0"/>
        <pt x="778" y="654" on="1"/>
        <pt x="769" y="654" on="0"/>
        <pt x="711" y="650" on="0"/>
        <pt x="647" y="628" on="0"/>
        <pt x="597" y="580" on="0"/>
        <pt x="597" y="536" on="1"/>
        <pt x="597" y="444" on="1"/>
        <pt x="779" y="444" on="1"/>
        <pt x="779" y="447" on="0"/>
        <pt x="780" y="448" on="1"/>
      </contour>
      <contour>
        <pt x="484" y="444" on="1"/>
        <pt x="484" y="516" on="1"/>
        <pt x="464" y="527" on="0"/>
        <pt x="450" y="563" on="0"/>
        <pt x="450" y="577" on="1"/>
        <pt x="450" y="600" on="0"/>
        <pt x="471" y="632" on="0"/>
        <pt x="485" y="640" on="1"/>
        <pt x="483" y="641" on="0"/>
        <pt x="444" y="654" on="0"/>
        <pt x="412" y="654" on="1"/>
        <pt x="403" y="654" on="0"/>
        <pt x="346" y="650" on="0"/>
        <pt x="284" y="628" on="0"/>
        <pt x="235" y="580" on="0"/>
        <pt x="235" y="536" on="1"/>
        <pt x="235" y="444" on="1"/>
      </contour>
    </TTGlyph>
    <TTGlyph name="f_f_l" xMin="39" yMin="0" xMax="1033" yMax="700">
      <contour>
        <pt x="966" y="56" on="1"/>
        <pt x="1033" y="56" on="1"/>
        <pt x="1033" y="0" on="1"/>
        <pt x="1032" y="0" on="0"/>
        <pt x="1006" y="1" on="0"/>
        <pt x="968" y="3" on="0"/>
        <pt x="924" y="4" on="0"/>
        <pt x="906" y="4" on="1"/>
        <pt x="889" y="4" on="0"/>
        <pt x="846" y="3" on="0"/>
        <pt x="807" y="1" on="0"/>
        <pt x="780" y="0" on="0"/>
        <pt x="779" y="0" on="1"/>
        <pt x="779" y="56" on="1"/>
        <pt x="846" y="56" on="1"/>
        <pt x="846" y="388" on="1"/>
        <pt x="604" y="388" on="1"/>
        <pt x="604" y="56" on="1"/>
        <pt x="671" y="56" on="1"/>
        <pt x="671" y="0" on="1"/>
        <pt x="670" y="0" on="0"/>
        <pt x="644" y="1" on="0"/>
        <pt x="606" y="3" on="0"/>
        <pt x="562" y="4" on="0"/>
        <pt x="544" y="4" on="1"/>
        <pt x="527" y="4" on="0"/>
        <pt x="484" y="3" on="0"/>
        <pt x="445" y="1" on="0"/>
        <pt x="418" y="0" on="0"/>
        <pt x="417" y="0" on="1"/>
        <pt x="417" y="56" on="1"/>
        <pt x="484" y="56" on="1"/>
        <pt x="484" y="388" on="1"/>
        <pt x="242" y="388" on="1"/>
        <pt x="242" y="56" on="1"/>
        <pt x="309" y="56" on="1"/>
        <pt x="309" y="0" on="1"/>
        <pt x="308" y="0" on="0"/>
        <pt x="282" y="1" on="0"/>
        <pt x="244" y="3" on="0"/>
        <pt x="200" y="4" on="0"/>
        <pt x="182" y="4" on="1"/>
        <pt x="165" y="4" on="0"/>
        <pt x="122" y="3" on="0"/>
        <pt x="83" y="1" on="0"/>
        <pt x="56" y="0" on="0"/>
        <pt x="55" y="0" on="1"/>
        <pt x="55" y="56" on="1"/>
        <pt x="122" y="56" on="1"/>
        <pt x="122" y="388" on="1"/>
        <pt x="39" y="388" on="1"/>
        <pt x="39" y="444" on="1"/>
        <pt x="122" y="444" on="1"/>
        <pt x="122" y="539" on="1"/>
        <pt x="122" y="585" on="0"/>
        <pt x="177" y="647" on="0"/>
        <pt x="264" y="684" on="0"/>
        <pt x="372" y="700" on="0"/>
        <pt x="424" y="700" on="1"/>
        <pt x="434" y="700" on="0"/>
        <pt x="469" y="698" on="0"/>
        <pt x="509" y="690" on="0"/>
        <pt x="550" y="673" on="0"/>
        <pt x="566" y="657" on="1"/>
        <pt x="591" y="671" on="0"/>
        <pt x="696" y="700" on="0"/>
        <pt x="788" y="700" on="1"/>
        <pt x="808" y="700" on="0"/>
        <pt x="846" y="698" on="0"/>
        <pt x="875" y="691" on="1"/>
        <pt x="880" y="689" on="0"/>
        <pt x="884" y="689" on="0"/>
        <pt x="889" y="689" on="1"/>
        <pt x="966" y="694" on="1"/>
      </contour>
      <contour>
        <pt x="484" y="444" on="1"/>
        <pt x="484" y="519" on="1"/>
        <pt x="484" y="531" on="0"/>
        <pt x="482" y="537" on="0"/>
        <pt x="479" y="540" on="1"/>
        <pt x="463" y="555" on="0"/>
        <pt x="456" y="585" on="0"/>
        <pt x="456" y="593" on="1"/>
        <pt x="456" y="606" on="0"/>
        <pt x="463" y="625" on="0"/>
        <pt x="467" y="632" on="1"/>
        <pt x="472" y="640" on="0"/>
        <pt x="478" y="646" on="1"/>
        <pt x="476" y="647" on="0"/>
        <pt x="441" y="654" on="0"/>
        <pt x="413" y="654" on="1"/>
        <pt x="381" y="654" on="0"/>
        <pt x="318" y="643" on="0"/>
        <pt x="267" y="616" on="0"/>
        <pt x="235" y="570" on="0"/>
        <pt x="235" y="536" on="1"/>
        <pt x="235" y="444" on="1"/>
      </contour>
      <contour>
        <pt x="846" y="444" on="1"/>
        <pt x="846" y="550" on="1"/>
        <pt x="828" y="563" on="0"/>
        <pt x="818" y="598" on="0"/>
        <pt x="818" y="606" on="1"/>
        <pt x="818" y="613" on="0"/>
        <pt x="822" y="634" on="0"/>
        <pt x="829" y="645" on="1"/>
        <pt x="831" y="647" on="0"/>
        <pt x="831" y="649" on="1"/>
        <pt x="831" y="651" on="0"/>
        <pt x="816" y="652" on="0"/>
        <pt x="797" y="654" on="0"/>
        <pt x="780" y="654" on="0"/>
        <pt x="778" y="654" on="1"/>
        <pt x="748" y="654" on="0"/>
        <pt x="684" y="644" on="0"/>
        <pt x="631" y="618" on="0"/>
        <pt x="597" y="572" on="0"/>
        <pt x="597" y="536" on="1"/>
        <pt x="597" y="444" on="1"/>
      </contour>
    </TTGlyph>
    <TTGlyph name="fi" xMin="39" yMin="0" xMax="670" yMax="700">
      <contour>
        <pt x="603" y="454" on="1"/>
        <pt x="603" y="56" on="1"/>
        <pt x="670" y="56" on="1"/>
        <pt x="670" y="0" on="1"/>
        <pt x="669" y="0" on="0"/>
        <pt x="643" y="1" on="0"/>
        <pt x="605" y="3" on="0"/>
        <pt x="561" y="4" on="0"/>
        <pt x="543" y="4" on="1"/>
        <pt x="526" y="4" on="0"/>
        <pt x="483" y="3" on="0"/>
        <pt x="444" y="1" on="0"/>
        <pt x="417" y="0" on="0"/>
        <pt x="416" y="0" on="1"/>
        <pt x="416" y="56" on="1"/>
        <pt x="483" y="56" on="1"/>
        <pt x="483" y="353" on="1"/>
        <pt x="483" y="379" on="0"/>
        <pt x="471" y="388" on="0"/>
        <pt x="453" y="388" on="1"/>
        <pt x="242" y="388" on="1"/>
        <pt x="242" y="56" on="1"/>
        <pt x="309" y="56" on="1"/>
        <pt x="309" y="0" on="1"/>
        <pt x="308" y="0" on="0"/>
        <pt x="282" y="1" on="0"/>
        <pt x="244" y="3" on="0"/>
        <pt x="200" y="4" on="0"/>
        <pt x="182" y="4" on="1"/>
        <pt x="165" y="4" on="0"/>
        <pt x="122" y="3" on="0"/>
        <pt x="83" y="1" on="0"/>
        <pt x="56" y="0" on="0"/>
        <pt x="55" y="0" on="1"/>
        <pt x="55" y="56" on="1"/>
        <pt x="122" y="56" on="1"/>
        <pt x="122" y="388" on="1"/>
        <pt x="39" y="388" on="1"/>
        <pt x="39" y="444" on="1"/>
        <pt x="122" y="444" on="1"/>
        <pt x="122" y="539" on="1"/>
        <pt x="122" y="586" on="0"/>
        <pt x="180" y="648" on="0"/>
        <pt x="270" y="685" on="0"/>
        <pt x="377" y="700" on="0"/>
        <pt x="426" y="700" on="1"/>
        <pt x="474" y="700" on="0"/>
        <pt x="541" y="677" on="0"/>
        <pt x="581" y="641" on="0"/>
        <pt x="599" y="598" on="0"/>
        <pt x="599" y="578" on="1"/>
        <pt x="599" y="546" on="0"/>
        <pt x="559" y="506" on="0"/>
        <pt x="527" y="506" on="1"/>
        <pt x="497" y="506" on="0"/>
        <pt x="456" y="546" on="0"/>
        <pt x="456" y="577" on="1"/>
        <pt x="456" y="603" on="0"/>
        <pt x="479" y="634" on="0"/>
        <pt x="490" y="639" on="1"/>
        <pt x="467" y="650" on="0"/>
        <pt x="424" y="654" on="0"/>
        <pt x="415" y="654" on="1"/>
        <pt x="409" y="654" on="0"/>
        <pt x="378" y="653" on="0"/>
        <pt x="338" y="646" on="0"/>
        <pt x="294" y="632" on="0"/>
        <pt x="258" y="605" on="0"/>
        <pt x="235" y="565" on="0"/>
        <pt x="235" y="536" on="1"/>
        <pt x="235" y="444" on="1"/>
        <pt x="416" y="444" on="1"/>
        <pt x="416" y="447" on="0"/>
        <pt x="417" y="448" on="1"/>
      </contour>
    </TTGlyph>
    <TTGlyph name="five" xMin="68" yMin="-12" xMax="578" yMax="656">
      <contour>
        <pt x="189" y="377" on="1"/>
        <pt x="225" y="398" on="0"/>
        <pt x="299" y="410" on="0"/>
        <pt x="328" y="410" on="1"/>
        <pt x="393" y="410" on="0"/>
        <pt x="487" y="375" on="0"/>
        <pt x="548" y="316" on="0"/>
        <pt x="578" y="241" on="0"/>
        <pt x="578" y="201" on="1"/>
        <pt x="578" y="159" on="0"/>
        <pt x="542" y="81" on="0"/>
        <pt x="471" y="23" on="0"/>
        <pt x="364" y="-12" on="0"/>
        <pt x="293" y="-12" on="1"/>
        <pt x="242" y="-12" on="0"/>
        <pt x="159" y="15" on="0"/>
        <pt x="100" y="61" on="0"/>
        <pt x="68" y="123" on="0"/>
        <pt x="68" y="157" on="1"/>
        <pt x="68" y="195" on="0"/>
        <pt x="115" y="232" on="0"/>
        <pt x="142" y="232" on="1"/>
        <pt x="155" y="232" on="0"/>
        <pt x="181" y="223" on="0"/>
        <pt x="202" y="204" on="0"/>
        <pt x="215" y="176" on="0"/>
        <pt x="215" y="158" on="1"/>
        <pt x="215" y="152" on="0"/>
        <pt x="212" y="133" on="0"/>
        <pt x="201" y="112" on="0"/>
        <pt x="180" y="93" on="0"/>
        <pt x="161" y="88" on="1"/>
        <pt x="183" y="63" on="0"/>
        <pt x="254" y="39" on="0"/>
        <pt x="289" y="39" on="1"/>
        <pt x="341" y="39" on="0"/>
        <pt x="397" y="72" on="0"/>
        <pt x="423" y="122" on="0"/>
        <pt x="427" y="180" on="0"/>
        <pt x="427" y="205" on="1"/>
        <pt x="427" y="232" on="0"/>
        <pt x="424" y="288" on="0"/>
        <pt x="404" y="335" on="0"/>
        <pt x="362" y="364" on="0"/>
        <pt x="323" y="364" on="1"/>
        <pt x="287" y="364" on="0"/>
        <pt x="237" y="351" on="0"/>
        <pt x="201" y="332" on="0"/>
        <pt x="179" y="311" on="0"/>
        <pt x="172" y="303" on="1"/>
        <pt x="166" y="297" on="0"/>
        <pt x="155" y="295" on="0"/>
        <pt x="147" y="295" on="1"/>
        <pt x="125" y="295" on="0"/>
        <pt x="118" y="314" on="0"/>
        <pt x="118" y="329" on="1"/>
        <pt x="118" y="625" on="1"/>
        <pt x="118" y="636" on="0"/>
        <pt x="122" y="656" on="0"/>
        <pt x="136" y="656" on="1"/>
        <pt x="138" y="656" on="0"/>
        <pt x="143" y="655" on="0"/>
        <pt x="154" y="651" on="1"/>
        <pt x="204" y="634" on="0"/>
        <pt x="292" y="624" on="0"/>
        <pt x="323" y="624" on="1"/>
        <pt x="358" y="624" on="0"/>
        <pt x="444" y="635" on="0"/>
        <pt x="494" y="652" on="1"/>
        <pt x="503" y="655" on="0"/>
        <pt x="508" y="656" on="0"/>
        <pt x="510" y="656" on="1"/>
        <pt x="517" y="656" on="0"/>
        <pt x="524" y="650" on="0"/>
        <pt x="527" y="642" on="0"/>
        <pt x="528" y="635" on="0"/>
        <pt x="528" y="633" on="1"/>
        <pt x="528" y="622" on="0"/>
        <pt x="506" y="593" on="0"/>
        <pt x="474" y="565" on="0"/>
        <pt x="441" y="541" on="0"/>
        <pt x="430" y="535" on="1"/>
        <pt x="402" y="519" on="0"/>
        <pt x="350" y="501" on="0"/>
        <pt x="306" y="492" on="0"/>
        <pt x="272" y="491" on="0"/>
        <pt x="263" y="491" on="1"/>
        <pt x="254" y="491" on="0"/>
        <pt x="216" y="492" on="0"/>
        <pt x="189" y="496" on="1"/>
      </contour>
    </TTGlyph>
    <TTGlyph name="fl" xMin="39" yMin="0" xMax="670" yMax="700">
      <contour>
        <pt x="603" y="56" on="1"/>
        <pt x="670" y="56" on="1"/>
        <pt x="670" y="0" on="1"/>
        <pt x="669" y="0" on="0"/>
        <pt x="643" y="1" on="0"/>
        <pt x="605" y="3" on="0"/>
        <pt x="561" y="4" on="0"/>
        <pt x="543" y="4" on="1"/>
        <pt x="526" y="4" on="0"/>
        <pt x="483" y="3" on="0"/>
        <pt x="444" y="1" on="0"/>
        <pt x="417" y="0" on="0"/>
        <pt x="416" y="0" on="1"/>
        <pt x="416" y="56" on="1"/>
        <pt x="483" y="56" on="1"/>
        <pt x="483" y="388" on="1"/>
        <pt x="242" y="388" on="1"/>
        <pt x="242" y="56" on="1"/>
        <pt x="309" y="56" on="1"/>
        <pt x="309" y="0" on="1"/>
        <pt x="308" y="0" on="0"/>
        <pt x="282" y="1" on="0"/>
        <pt x="244" y="3" on="0"/>
        <pt x="200" y="4" on="0"/>
        <pt x="182" y="4" on="1"/>
        <pt x="165" y="4" on="0"/>
        <pt x="122" y="3" on="0"/>
        <pt x="83" y="1" on="0"/>
        <pt x="56" y="0" on="0"/>
        <pt x="55" y="0" on="1"/>
        <pt x="55" y="56" on="1"/>
        <pt x="122" y="56" on="1"/>
        <pt x="122" y="388" on="1"/>
        <pt x="39" y="388" on="1"/>
        <pt x="39" y="444" on="1"/>
        <pt x="122" y="444" on="1"/>
        <pt x="122" y="539" on="1"/>
        <pt x="122" y="585" on="0"/>
        <pt x="176" y="647" on="0"/>
        <pt x="263" y="684" on="0"/>
        <pt x="371" y="700" on="0"/>
        <pt x="425" y="700" on="1"/>
        <pt x="445" y="700" on="0"/>
        <pt x="483" y="698" on="0"/>
        <pt x="512" y="691" on="1"/>
        <pt x="517" y="689" on="0"/>
        <pt x="521" y="689" on="0"/>
        <pt x="526" y="689" on="1"/>
        <pt x="603" y="694" on="1"/>
      </contour>
      <contour>
        <pt x="483" y="444" on="1"/>
        <pt x="483" y="550" on="1"/>
        <pt x="465" y="563" on="0"/>
        <pt x="455" y="598" on="0"/>
        <pt x="455" y="606" on="1"/>
        <pt x="455" y="613" on="0"/>
        <pt x="459" y="634" on="0"/>
        <pt x="466" y="645" on="1"/>
        <pt x="468" y="647" on="0"/>
        <pt x="468" y="649" on="1"/>
        <pt x="468" y="651" on="0"/>
        <pt x="453" y="652" on="0"/>
        <pt x="434" y="654" on="0"/>
        <pt x="417" y="654" on="0"/>
        <pt x="415" y="654" on="1"/>
        <pt x="386" y="654" on="0"/>
        <pt x="322" y="644" on="0"/>
        <pt x="269" y="618" on="0"/>
        <pt x="235" y="572" on="0"/>
        <pt x="235" y="536" on="1"/>
        <pt x="235" y="444" on="1"/>
      </contour>
    </TTGlyph>
    <TTGlyph name="four" xMin="40" yMin="0" xMax="606" yMax="662">
      <contour>
        <pt x="497" y="154" on="1"/>
        <pt x="497" y="56" on="1"/>
        <pt x="606" y="56" on="1"/>
        <pt x="606" y="0" on="1"/>
        <pt x="597" y="1" on="0"/>
        <pt x="545" y="2" on="0"/>
        <pt x="486" y="3" on="0"/>
        <pt x="435" y="4" on="0"/>
        <pt x="427" y="4" on="1"/>
        <pt x="408" y="4" on="0"/>
        <pt x="357" y="4" on="0"/>
        <pt x="304" y="3" on="0"/>
        <pt x="254" y="2" on="0"/>
        <pt x="236" y="0" on="1"/>
        <pt x="236" y="56" on="1"/>
        <pt x="360" y="56" on="1"/>
        <pt x="360" y="154" on="1"/>
        <pt x="40" y="154" on="1"/>
        <pt x="40" y="210" on="1"/>
        <pt x="407" y="647" on="1"/>
        <pt x="417" y="658" on="0"/>
        <pt x="433" y="662" on="0"/>
        <pt x="447" y="662" on="1"/>
        <pt x="462" y="662" on="1"/>
        <pt x="485" y="662" on="0"/>
        <pt x="497" y="650" on="0"/>
        <pt x="497" y="627" on="1"/>
        <pt x="497" y="210" on="1"/>
        <pt x="606" y="210" on="1"/>
        <pt x="606" y="154" on="1"/>
      </contour>
      <contour>
        <pt x="109" y="210" on="1"/>
        <pt x="373" y="210" on="1"/>
        <pt x="373" y="524" on="1"/>
      </contour>
    </TTGlyph>
    <TTGlyph name="g" xMin="40" yMin="-201" xMax="624" yMax="456">
      <contour>
        <pt x="292" y="89" on="1"/>
        <pt x="330" y="89" on="0"/>
        <pt x="394" y="88" on="0"/>
        <pt x="449" y="83" on="0"/>
        <pt x="498" y="72" on="0"/>
        <pt x="520" y="62" on="1"/>
        <pt x="551" y="47" on="0"/>
        <pt x="586" y="8" on="0"/>
        <pt x="602" y="-30" on="0"/>
        <pt x="606" y="-62" on="0"/>
        <pt x="606" y="-69" on="1"/>
        <pt x="606" y="-129" on="0"/>
        <pt x="462" y="-201" on="0"/>
        <pt x="323" y="-201" on="1"/>
        <pt x="243" y="-201" on="0"/>
        <pt x="135" y="-178" on="0"/>
        <pt x="69" y="-140" on="0"/>
        <pt x="40" y="-95" on="0"/>
        <pt x="40" y="-72" on="1"/>
        <pt x="40" y="-53" on="0"/>
        <pt x="58" y="-23" on="0"/>
        <pt x="85" y="-3" on="0"/>
        <pt x="117" y="10" on="0"/>
        <pt x="130" y="13" on="1"/>
        <pt x="90" y="53" on="0"/>
        <pt x="90" y="109" on="1"/>
        <pt x="90" y="132" on="0"/>
        <pt x="105" y="176" on="0"/>
        <pt x="122" y="197" on="1"/>
        <pt x="115" y="203" on="0"/>
        <pt x="97" y="221" on="0"/>
        <pt x="81" y="246" on="0"/>
        <pt x="69" y="280" on="0"/>
        <pt x="69" y="301" on="1"/>
        <pt x="69" y="325" on="0"/>
        <pt x="91" y="378" on="0"/>
        <pt x="142" y="421" on="0"/>
        <pt x="226" y="450" on="0"/>
        <pt x="287" y="450" on="1"/>
        <pt x="296" y="450" on="0"/>
        <pt x="327" y="449" on="0"/>
        <pt x="366" y="443" on="0"/>
        <pt x="411" y="430" on="0"/>
        <pt x="433" y="418" on="1"/>
        <pt x="456" y="435" on="0"/>
        <pt x="518" y="456" on="0"/>
        <pt x="549" y="456" on="1"/>
        <pt x="568" y="456" on="0"/>
        <pt x="596" y="444" on="0"/>
        <pt x="615" y="424" on="0"/>
        <pt x="624" y="401" on="0"/>
        <pt x="624" y="389" on="1"/>
        <pt x="624" y="363" on="0"/>
        <pt x="590" y="338" on="0"/>
        <pt x="573" y="338" on="1"/>
        <pt x="558" y="338" on="0"/>
        <pt x="523" y="362" on="0"/>
        <pt x="523" y="389" on="1"/>
        <pt x="523" y="394" on="0"/>
        <pt x="524" y="404" on="0"/>
        <pt x="526" y="408" on="1"/>
        <pt x="510" y="406" on="0"/>
        <pt x="478" y="398" on="0"/>
        <pt x="466" y="393" on="1"/>
        <pt x="469" y="390" on="0"/>
        <pt x="483" y="375" on="0"/>
        <pt x="496" y="351" on="0"/>
        <pt x="506" y="319" on="0"/>
        <pt x="506" y="300" on="1"/>
        <pt x="506" y="277" on="0"/>
        <pt x="485" y="225" on="0"/>
        <pt x="435" y="180" on="0"/>
        <pt x="350" y="151" on="0"/>
        <pt x="287" y="151" on="1"/>
        <pt x="279" y="151" on="0"/>
        <pt x="251" y="152" on="0"/>
        <pt x="215" y="156" on="0"/>
        <pt x="176" y="167" on="0"/>
        <pt x="156" y="176" on="1"/>
        <pt x="151" y="169" on="0"/>
        <pt x="149" y="155" on="0"/>
        <pt x="149" y="150" on="1"/>
        <pt x="149" y="132" on="0"/>
        <pt x="164" y="109" on="0"/>
        <pt x="172" y="103" on="1"/>
        <pt x="185" y="92" on="0"/>
        <pt x="212" y="89" on="0"/>
        <pt x="238" y="89" on="1"/>
      </contour>
      <contour>
        <pt x="287" y="197" on="1"/>
        <pt x="325" y="197" on="0"/>
        <pt x="365" y="218" on="0"/>
        <pt x="384" y="249" on="0"/>
        <pt x="387" y="286" on="0"/>
        <pt x="387" y="301" on="1"/>
        <pt x="387" y="316" on="0"/>
        <pt x="384" y="352" on="0"/>
        <pt x="365" y="383" on="0"/>
        <pt x="325" y="404" on="0"/>
        <pt x="287" y="404" on="1"/>
        <pt x="250" y="404" on="0"/>
        <pt x="210" y="383" on="0"/>
        <pt x="191" y="351" on="0"/>
        <pt x="188" y="315" on="0"/>
        <pt x="188" y="300" on="1"/>
        <pt x="188" y="285" on="0"/>
        <pt x="191" y="250" on="0"/>
        <pt x="210" y="218" on="0"/>
        <pt x="250" y="197" on="0"/>
      </contour>
      <contour>
        <pt x="220" y="-19" on="1"/>
        <pt x="215" y="-19" on="0"/>
        <pt x="188" y="-21" on="0"/>
        <pt x="160" y="-30" on="0"/>
        <pt x="138" y="-52" on="0"/>
        <pt x="138" y="-71" on="1"/>
        <pt x="138" y="-85" on="0"/>
        <pt x="157" y="-115" on="0"/>
        <pt x="201" y="-139" on="0"/>
        <pt x="272" y="-155" on="0"/>
        <pt x="323" y="-155" on="1"/>
        <pt x="377" y="-155" on="0"/>
        <pt x="448" y="-138" on="0"/>
        <pt x="490" y="-113" on="0"/>
        <pt x="508" y="-84" on="0"/>
        <pt x="508" y="-72" on="1"/>
        <pt x="508" y="-52" on="0"/>
        <pt x="467" y="-31" on="0"/>
        <pt x="413" y="-21" on="0"/>
        <pt x="362" y="-19" on="0"/>
        <pt x="353" y="-19" on="1"/>
      </contour>
    </TTGlyph>
    <TTGlyph name="germandbls" xMin="55" yMin="-6" xMax="628" yMax="700">
      <contour>
        <pt x="472" y="419" on="1"/>
        <pt x="517" y="399" on="0"/>
        <pt x="577" y="342" on="0"/>
        <pt x="613" y="277" on="0"/>
        <pt x="628" y="210" on="0"/>
        <pt x="628" y="180" on="1"/>
        <pt x="628" y="138" on="0"/>
        <pt x="594" y="69" on="0"/>
        <pt x="533" y="20" on="0"/>
        <pt x="448" y="-6" on="0"/>
        <pt x="397" y="-6" on="1"/>
        <pt x="367" y="-6" on="0"/>
        <pt x="323" y="11" on="0"/>
        <pt x="294" y="37" on="0"/>
        <pt x="279" y="70" on="0"/>
        <pt x="279" y="86" on="1"/>
        <pt x="279" y="111" on="0"/>
        <pt x="309" y="143" on="0"/>
        <pt x="335" y="143" on="1"/>
        <pt x="359" y="143" on="0"/>
        <pt x="391" y="113" on="0"/>
        <pt x="391" y="87" on="1"/>
        <pt x="391" y="66" on="0"/>
        <pt x="374" y="45" on="0"/>
        <pt x="373" y="44" on="1"/>
        <pt x="384" y="40" on="0"/>
        <pt x="395" y="40" on="1"/>
        <pt x="434" y="40" on="0"/>
        <pt x="475" y="75" on="0"/>
        <pt x="495" y="121" on="0"/>
        <pt x="498" y="167" on="0"/>
        <pt x="498" y="179" on="1"/>
        <pt x="498" y="189" on="0"/>
        <pt x="497" y="228" on="0"/>
        <pt x="488" y="275" on="0"/>
        <pt x="469" y="324" on="0"/>
        <pt x="434" y="366" on="0"/>
        <pt x="381" y="395" on="0"/>
        <pt x="342" y="398" on="1"/>
        <pt x="328" y="399" on="0"/>
        <pt x="313" y="405" on="0"/>
        <pt x="313" y="421" on="1"/>
        <pt x="313" y="438" on="0"/>
        <pt x="328" y="443" on="0"/>
        <pt x="341" y="444" on="1"/>
        <pt x="396" y="446" on="0"/>
        <pt x="463" y="500" on="0"/>
        <pt x="463" y="560" on="1"/>
        <pt x="463" y="576" on="0"/>
        <pt x="456" y="610" on="0"/>
        <pt x="433" y="637" on="0"/>
        <pt x="390" y="654" on="0"/>
        <pt x="355" y="654" on="1"/>
        <pt x="313" y="654" on="0"/>
        <pt x="267" y="631" on="0"/>
        <pt x="246" y="599" on="0"/>
        <pt x="242" y="564" on="0"/>
        <pt x="242" y="553" on="1"/>
        <pt x="242" y="0" on="1"/>
        <pt x="232" y="2" on="0"/>
        <pt x="219" y="3" on="0"/>
        <pt x="206" y="4" on="0"/>
        <pt x="190" y="4" on="0"/>
        <pt x="177" y="4" on="1"/>
        <pt x="162" y="4" on="0"/>
        <pt x="120" y="3" on="0"/>
        <pt x="82" y="1" on="0"/>
        <pt x="55" y="0" on="0"/>
        <pt x="55" y="0" on="1"/>
        <pt x="55" y="56" on="1"/>
        <pt x="122" y="56" on="1"/>
        <pt x="122" y="388" on="1"/>
        <pt x="55" y="388" on="1"/>
        <pt x="55" y="444" on="1"/>
        <pt x="122" y="444" on="1"/>
        <pt x="122" y="554" on="1"/>
        <pt x="122" y="623" on="0"/>
        <pt x="245" y="700" on="0"/>
        <pt x="356" y="700" on="1"/>
        <pt x="422" y="700" on="0"/>
        <pt x="513" y="674" on="0"/>
        <pt x="568" y="634" on="0"/>
        <pt x="593" y="584" on="0"/>
        <pt x="593" y="560" on="1"/>
        <pt x="593" y="542" on="0"/>
        <pt x="581" y="503" on="0"/>
        <pt x="552" y="464" on="0"/>
        <pt x="506" y="431" on="0"/>
      </contour>
    </TTGlyph>
    <TTGlyph name="grave" xMin="134" yMin="501" xMax="378" yMax="703">
      <contour>
        <pt x="175" y="577" on="1"/>
        <pt x="164" y="582" on="0"/>
        <pt x="134" y="609" on="0"/>
        <pt x="134" y="634" on="1"/>
        <pt x="134" y="644" on="0"/>
        <pt x="143" y="668" on="0"/>
        <pt x="160" y="689" on="0"/>
        <pt x="184" y="703" on="0"/>
        <pt x="200" y="703" on="1"/>
        <pt x="205" y="703" on="0"/>
        <pt x="224" y="700" on="0"/>
        <pt x="236" y="691" on="1"/>
        <pt x="237" y="690" on="0"/>
        <pt x="240" y="688" on="0"/>
        <pt x="248" y="681" on="0"/>
        <pt x="262" y="668" on="0"/>
        <pt x="274" y="656" on="1"/>
        <pt x="378" y="553" on="1"/>
        <pt x="343" y="501" on="1"/>
      </contour>
    </TTGlyph>
    <TTGlyph name="h" xMin="64" yMin="0" xMax="679" yMax="694">
      <contour>
        <pt x="612" y="56" on="1"/>
        <pt x="679" y="56" on="1"/>
        <pt x="679" y="0" on="1"/>
        <pt x="679" y="0" on="0"/>
        <pt x="651" y="1" on="0"/>
        <pt x="612" y="3" on="0"/>
        <pt x="566" y="4" on="0"/>
        <pt x="548" y="4" on="1"/>
        <pt x="530" y="4" on="0"/>
        <pt x="485" y="3" on="0"/>
        <pt x="446" y="1" on="0"/>
        <pt x="418" y="0" on="0"/>
        <pt x="418" y="0" on="1"/>
        <pt x="418" y="56" on="1"/>
        <pt x="485" y="56" on="1"/>
        <pt x="485" y="309" on="1"/>
        <pt x="485" y="363" on="0"/>
        <pt x="455" y="404" on="0"/>
        <pt x="422" y="404" on="1"/>
        <pt x="400" y="404" on="0"/>
        <pt x="343" y="388" on="0"/>
        <pt x="292" y="352" on="0"/>
        <pt x="258" y="293" on="0"/>
        <pt x="258" y="249" on="1"/>
        <pt x="258" y="56" on="1"/>
        <pt x="325" y="56" on="1"/>
        <pt x="325" y="0" on="1"/>
        <pt x="325" y="0" on="0"/>
        <pt x="297" y="1" on="0"/>
        <pt x="258" y="3" on="0"/>
        <pt x="212" y="4" on="0"/>
        <pt x="194" y="4" on="1"/>
        <pt x="176" y="4" on="0"/>
        <pt x="131" y="3" on="0"/>
        <pt x="92" y="1" on="0"/>
        <pt x="64" y="0" on="0"/>
        <pt x="64" y="0" on="1"/>
        <pt x="64" y="56" on="1"/>
        <pt x="131" y="56" on="1"/>
        <pt x="131" y="591" on="1"/>
        <pt x="131" y="606" on="0"/>
        <pt x="127" y="621" on="0"/>
        <pt x="113" y="629" on="0"/>
        <pt x="86" y="630" on="0"/>
        <pt x="64" y="630" on="1"/>
        <pt x="64" y="686" on="1"/>
        <pt x="251" y="694" on="1"/>
        <pt x="251" y="356" on="1"/>
        <pt x="260" y="369" on="0"/>
        <pt x="290" y="401" on="0"/>
        <pt x="336" y="430" on="0"/>
        <pt x="399" y="450" on="0"/>
        <pt x="441" y="450" on="1"/>
        <pt x="476" y="450" on="0"/>
        <pt x="538" y="438" on="0"/>
        <pt x="584" y="405" on="0"/>
        <pt x="612" y="347" on="0"/>
        <pt x="612" y="301" on="1"/>
      </contour>
    </TTGlyph>
    <TTGlyph name="hungarumlaut" xMin="156" yMin="508" xMax="549" yMax="711">
      <contour>
        <pt x="207" y="508" on="1"/>
        <pt x="156" y="546" on="1"/>
        <pt x="207" y="668" on="1"/>
        <pt x="209" y="673" on="0"/>
        <pt x="217" y="687" on="0"/>
        <pt x="231" y="701" on="0"/>
        <pt x="251" y="711" on="0"/>
        <pt x="264" y="711" on="1"/>
        <pt x="276" y="711" on="0"/>
        <pt x="302" y="700" on="0"/>
        <pt x="323" y="682" on="0"/>
        <pt x="336" y="657" on="0"/>
        <pt x="336" y="643" on="1"/>
        <pt x="336" y="622" on="0"/>
        <pt x="315" y="598" on="0"/>
        <pt x="307" y="591" on="1"/>
      </contour>
      <contour>
        <pt x="420" y="668" on="1"/>
        <pt x="422" y="673" on="0"/>
        <pt x="430" y="687" on="0"/>
        <pt x="444" y="701" on="0"/>
        <pt x="464" y="711" on="0"/>
        <pt x="477" y="711" on="1"/>
        <pt x="489" y="711" on="0"/>
        <pt x="515" y="700" on="0"/>
        <pt x="536" y="682" on="0"/>
        <pt x="549" y="657" on="0"/>
        <pt x="549" y="643" on="1"/>
        <pt x="549" y="622" on="0"/>
        <pt x="528" y="598" on="0"/>
        <pt x="520" y="591" on="1"/>
        <pt x="420" y="508" on="1"/>
        <pt x="369" y="546" on="1"/>
      </contour>
    </TTGlyph>
    <TTGlyph name="hyphen" xMin="18" yMin="167" xMax="358" yMax="278">
      <contour>
        <pt x="358" y="167" on="1"/>
        <pt x="18" y="167" on="1"/>
        <pt x="18" y="278" on="1"/>
        <pt x="358" y="278" on="1"/>
      </contour>
    </TTGlyph>
    <TTGlyph name="i" xMin="67" yMin="0" xMax="315" yMax="695">
      <contour>
        <pt x="262" y="613" on="1"/>
        <pt x="262" y="581" on="0"/>
        <pt x="216" y="532" on="0"/>
        <pt x="180" y="532" on="1"/>
        <pt x="148" y="532" on="0"/>
        <pt x="99" y="578" on="0"/>
        <pt x="99" y="614" on="1"/>
        <pt x="99" y="646" on="0"/>
        <pt x="145" y="695" on="0"/>
        <pt x="181" y="695" on="1"/>
        <pt x="213" y="695" on="0"/>
        <pt x="262" y="649" on="0"/>
      </contour>
      <contour>
        <pt x="254" y="450" on="1"/>
        <pt x="254" y="56" on="1"/>
        <pt x="315" y="56" on="1"/>
        <pt x="315" y="0" on="1"/>
        <pt x="284" y="2" on="0"/>
        <pt x="224" y="4" on="0"/>
        <pt x="193" y="4" on="1"/>
        <pt x="176" y="4" on="0"/>
        <pt x="133" y="3" on="0"/>
        <pt x="95" y="1" on="0"/>
        <pt x="68" y="0" on="0"/>
        <pt x="67" y="0" on="1"/>
        <pt x="67" y="56" on="1"/>
        <pt x="134" y="56" on="1"/>
        <pt x="134" y="347" on="1"/>
        <pt x="134" y="362" on="0"/>
        <pt x="130" y="377" on="0"/>
        <pt x="117" y="385" on="0"/>
        <pt x="91" y="386" on="0"/>
        <pt x="70" y="386" on="1"/>
        <pt x="70" y="442" on="1"/>
      </contour>
    </TTGlyph>
    <TTGlyph name="j" xMin="-55" yMin="-200" xMax="304" yMax="695">
      <contour>
        <pt x="304" y="613" on="1"/>
        <pt x="304" y="581" on="0"/>
        <pt x="258" y="532" on="0"/>
        <pt x="222" y="532" on="1"/>
        <pt x="190" y="532" on="0"/>
        <pt x="141" y="578" on="0"/>
        <pt x="141" y="614" on="1"/>
        <pt x="141" y="646" on="0"/>
        <pt x="187" y="695" on="0"/>
        <pt x="223" y="695" on="1"/>
        <pt x="255" y="695" on="0"/>
        <pt x="304" y="649" on="0"/>
      </contour>
      <contour>
        <pt x="304" y="450" on="1"/>
        <pt x="304" y="-38" on="1"/>
        <pt x="304" y="-81" on="0"/>
        <pt x="267" y="-142" on="0"/>
        <pt x="208" y="-181" on="0"/>
        <pt x="137" y="-200" on="0"/>
        <pt x="103" y="-200" on="1"/>
        <pt x="71" y="-200" on="0"/>
        <pt x="14" y="-188" on="0"/>
        <pt x="-30" y="-164" on="0"/>
        <pt x="-55" y="-127" on="0"/>
        <pt x="-55" y="-101" on="1"/>
        <pt x="-55" y="-72" on="0"/>
        <pt x="-17" y="-32" on="0"/>
        <pt x="15" y="-32" on="1"/>
        <pt x="44" y="-32" on="0"/>
        <pt x="84" y="-70" on="0"/>
        <pt x="84" y="-101" on="1"/>
        <pt x="84" y="-118" on="0"/>
        <pt x="74" y="-139" on="0"/>
        <pt x="72" y="-141" on="1"/>
        <pt x="68" y="-147" on="0"/>
        <pt x="68" y="-149" on="1"/>
        <pt x="68" y="-150" on="0"/>
        <pt x="78" y="-152" on="0"/>
        <pt x="90" y="-153" on="0"/>
        <pt x="101" y="-154" on="0"/>
        <pt x="102" y="-154" on="1"/>
        <pt x="142" y="-154" on="0"/>
        <pt x="184" y="-87" on="0"/>
        <pt x="184" y="-36" on="1"/>
        <pt x="184" y="346" on="1"/>
        <pt x="184" y="361" on="0"/>
        <pt x="179" y="377" on="0"/>
        <pt x="164" y="385" on="0"/>
        <pt x="135" y="386" on="0"/>
        <pt x="110" y="386" on="1"/>
        <pt x="110" y="442" on="1"/>
      </contour>
    </TTGlyph>
    <TTGlyph name="k" xMin="55" yMin="0" xMax="656" yMax="694">
      <contour>
        <pt x="425" y="373" on="1"/>
        <pt x="427" y="375" on="0"/>
        <pt x="435" y="380" on="0"/>
        <pt x="437" y="382" on="1"/>
        <pt x="434" y="384" on="0"/>
        <pt x="427" y="388" on="0"/>
        <pt x="417" y="388" on="1"/>
        <pt x="417" y="444" on="1"/>
        <pt x="419" y="444" on="0"/>
        <pt x="447" y="443" on="0"/>
        <pt x="486" y="441" on="0"/>
        <pt x="530" y="440" on="0"/>
        <pt x="546" y="440" on="1"/>
        <pt x="566" y="440" on="0"/>
        <pt x="608" y="442" on="0"/>
        <pt x="628" y="444" on="1"/>
        <pt x="628" y="388" on="1"/>
        <pt x="601" y="388" on="0"/>
        <pt x="569" y="386" on="0"/>
        <pt x="551" y="383" on="0"/>
        <pt x="541" y="378" on="0"/>
        <pt x="536" y="374" on="1"/>
        <pt x="393" y="272" on="1"/>
        <pt x="575" y="74" on="1"/>
        <pt x="584" y="65" on="0"/>
        <pt x="591" y="60" on="0"/>
        <pt x="596" y="59" on="1"/>
        <pt x="603" y="57" on="0"/>
        <pt x="633" y="56" on="0"/>
        <pt x="656" y="56" on="1"/>
        <pt x="656" y="0" on="1"/>
        <pt x="629" y="2" on="0"/>
        <pt x="576" y="4" on="0"/>
        <pt x="549" y="4" on="1"/>
        <pt x="517" y="4" on="0"/>
        <pt x="451" y="2" on="0"/>
        <pt x="419" y="0" on="1"/>
        <pt x="419" y="56" on="1"/>
        <pt x="425" y="56" on="0"/>
        <pt x="440" y="57" on="0"/>
        <pt x="440" y="62" on="1"/>
        <pt x="440" y="63" on="0"/>
        <pt x="437" y="66" on="0"/>
        <pt x="431" y="73" on="1"/>
        <pt x="305" y="210" on="1"/>
        <pt x="236" y="161" on="1"/>
        <pt x="236" y="56" on="1"/>
        <pt x="303" y="56" on="1"/>
        <pt x="303" y="0" on="1"/>
        <pt x="303" y="0" on="0"/>
        <pt x="277" y="1" on="0"/>
        <pt x="240" y="3" on="0"/>
        <pt x="197" y="4" on="0"/>
        <pt x="179" y="4" on="1"/>
        <pt x="163" y="4" on="0"/>
        <pt x="122" y="3" on="0"/>
        <pt x="84" y="1" on="0"/>
        <pt x="57" y="0" on="0"/>
        <pt x="55" y="0" on="1"/>
        <pt x="55" y="56" on="1"/>
        <pt x="122" y="56" on="1"/>
        <pt x="122" y="589" on="1"/>
        <pt x="122" y="604" on="0"/>
        <pt x="118" y="621" on="0"/>
        <pt x="105" y="629" on="0"/>
        <pt x="78" y="630" on="0"/>
        <pt x="55" y="630" on="1"/>
        <pt x="55" y="686" on="1"/>
        <pt x="242" y="694" on="1"/>
        <pt x="242" y="242" on="1"/>
      </contour>
    </TTGlyph>
    <TTGlyph name="l" xMin="67" yMin="0" xMax="321" yMax="694">
      <contour>
        <pt x="254" y="56" on="1"/>
        <pt x="321" y="56" on="1"/>
        <pt x="321" y="0" on="1"/>
        <pt x="320" y="0" on="0"/>
        <pt x="294" y="1" on="0"/>
        <pt x="256" y="3" on="0"/>
        <pt x="212" y="4" on="0"/>
        <pt x="194" y="4" on="1"/>
        <pt x="177" y="4" on="0"/>
        <pt x="134" y="3" on="0"/>
        <pt x="95" y="1" on="0"/>
        <pt x="68" y="0" on="0"/>
        <pt x="67" y="0" on="1"/>
        <pt x="67" y="56" on="1"/>
        <pt x="134" y="56" on="1"/>
        <pt x="134" y="591" on="1"/>
        <pt x="134" y="606" on="0"/>
        <pt x="130" y="621" on="0"/>
        <pt x="116" y="629" on="0"/>
        <pt x="89" y="630" on="0"/>
        <pt x="67" y="630" on="1"/>
        <pt x="67" y="686" on="1"/>
        <pt x="254" y="694" on="1"/>
      </contour>
    </TTGlyph>
    <TTGlyph name="m" xMin="64" yMin="0" xMax="1035" yMax="450">
      <contour>
        <pt x="968" y="56" on="1"/>
        <pt x="1035" y="56" on="1"/>
        <pt x="1035" y="0" on="1"/>
        <pt x="1035" y="0" on="0"/>
        <pt x="1007" y="1" on="0"/>
        <pt x="968" y="3" on="0"/>
        <pt x="922" y="4" on="0"/>
        <pt x="904" y="4" on="1"/>
        <pt x="886" y="4" on="0"/>
        <pt x="841" y="3" on="0"/>
        <pt x="802" y="1" on="0"/>
        <pt x="774" y="0" on="0"/>
        <pt x="774" y="0" on="1"/>
        <pt x="774" y="56" on="1"/>
        <pt x="841" y="56" on="1"/>
        <pt x="841" y="308" on="1"/>
        <pt x="841" y="364" on="0"/>
        <pt x="811" y="404" on="0"/>
        <pt x="777" y="404" on="1"/>
        <pt x="756" y="404" on="0"/>
        <pt x="699" y="389" on="0"/>
        <pt x="648" y="353" on="0"/>
        <pt x="613" y="293" on="0"/>
        <pt x="613" y="249" on="1"/>
        <pt x="613" y="56" on="1"/>
        <pt x="680" y="56" on="1"/>
        <pt x="680" y="0" on="1"/>
        <pt x="680" y="0" on="0"/>
        <pt x="652" y="1" on="0"/>
        <pt x="613" y="3" on="0"/>
        <pt x="567" y="4" on="0"/>
        <pt x="549" y="4" on="1"/>
        <pt x="531" y="4" on="0"/>
        <pt x="486" y="3" on="0"/>
        <pt x="447" y="1" on="0"/>
        <pt x="419" y="0" on="0"/>
        <pt x="419" y="0" on="1"/>
        <pt x="419" y="56" on="1"/>
        <pt x="486" y="56" on="1"/>
        <pt x="486" y="308" on="1"/>
        <pt x="486" y="364" on="0"/>
        <pt x="456" y="404" on="0"/>
        <pt x="422" y="404" on="1"/>
        <pt x="401" y="404" on="0"/>
        <pt x="344" y="389" on="0"/>
        <pt x="293" y="353" on="0"/>
        <pt x="258" y="293" on="0"/>
        <pt x="258" y="249" on="1"/>
        <pt x="258" y="56" on="1"/>
        <pt x="325" y="56" on="1"/>
        <pt x="325" y="0" on="1"/>
        <pt x="325" y="0" on="0"/>
        <pt x="297" y="1" on="0"/>
        <pt x="258" y="3" on="0"/>
        <pt x="212" y="4" on="0"/>
        <pt x="194" y="4" on="1"/>
        <pt x="176" y="4" on="0"/>
        <pt x="131" y="3" on="0"/>
        <pt x="92" y="1" on="0"/>
        <pt x="64" y="0" on="0"/>
        <pt x="64" y="0" on="1"/>
        <pt x="64" y="56" on="1"/>
        <pt x="131" y="56" on="1"/>
        <pt x="131" y="347" on="1"/>
        <pt x="131" y="362" on="0"/>
        <pt x="127" y="377" on="0"/>
        <pt x="113" y="385" on="0"/>
        <pt x="86" y="386" on="0"/>
        <pt x="64" y="386" on="1"/>
        <pt x="64" y="442" on="1"/>
        <pt x="245" y="450" on="1"/>
        <pt x="245" y="346" on="1"/>
        <pt x="253" y="359" on="0"/>
        <pt x="282" y="394" on="0"/>
        <pt x="330" y="427" on="0"/>
        <pt x="397" y="450" on="0"/>
        <pt x="442" y="450" on="1"/>
        <pt x="462" y="450" on="0"/>
        <pt x="512" y="445" on="0"/>
        <pt x="559" y="426" on="0"/>
        <pt x="598" y="389" on="0"/>
        <pt x="607" y="356" on="1"/>
        <pt x="632" y="393" on="0"/>
        <pt x="725" y="450" on="0"/>
        <pt x="797" y="450" on="1"/>
        <pt x="830" y="450" on="0"/>
        <pt x="892" y="439" on="0"/>
        <pt x="939" y="406" on="0"/>
        <pt x="968" y="348" on="0"/>
        <pt x="968" y="301" on="1"/>
      </contour>
    </TTGlyph>
    <TTGlyph name="macron" xMin="93" yMin="556" xMax="553" yMax="618">
      <contour>
        <pt x="93" y="556" on="1"/>
        <pt x="93" y="618" on="1"/>
        <pt x="553" y="618" on="1"/>
        <pt x="553" y="556" on="1"/>
      </contour>
    </TTGlyph>
    <TTGlyph name="n" xMin="64" yMin="0" xMax="679" yMax="450">
      <contour>
        <pt x="612" y="56" on="1"/>
        <pt x="679" y="56" on="1"/>
        <pt x="679" y="0" on="1"/>
        <pt x="679" y="0" on="0"/>
        <pt x="651" y="1" on="0"/>
        <pt x="612" y="3" on="0"/>
        <pt x="566" y="4" on="0"/>
        <pt x="548" y="4" on="1"/>
        <pt x="530" y="4" on="0"/>
        <pt x="485" y="3" on="0"/>
        <pt x="446" y="1" on="0"/>
        <pt x="418" y="0" on="0"/>
        <pt x="418" y="0" on="1"/>
        <pt x="418" y="56" on="1"/>
        <pt x="485" y="56" on="1"/>
        <pt x="485" y="309" on="1"/>
        <pt x="485" y="363" on="0"/>
        <pt x="455" y="404" on="0"/>
        <pt x="422" y="404" on="1"/>
        <pt x="400" y="404" on="0"/>
        <pt x="343" y="388" on="0"/>
        <pt x="292" y="352" on="0"/>
        <pt x="258" y="293" on="0"/>
        <pt x="258" y="249" on="1"/>
        <pt x="258" y="56" on="1"/>
        <pt x="325" y="56" on="1"/>
        <pt x="325" y="0" on="1"/>
        <pt x="325" y="0" on="0"/>
        <pt x="297" y="1" on="0"/>
        <pt x="258" y="3" on="0"/>
        <pt x="212" y="4" on="0"/>
        <pt x="194" y="4" on="1"/>
        <pt x="176" y="4" on="0"/>
        <pt x="131" y="3" on="0"/>
        <pt x="92" y="1" on="0"/>
        <pt x="64" y="0" on="0"/>
        <pt x="64" y="0" on="1"/>
        <pt x="64" y="56" on="1"/>
        <pt x="131" y="56" on="1"/>
        <pt x="131" y="347" on="1"/>
        <pt x="131" y="362" on="0"/>
        <pt x="127" y="377" on="0"/>
        <pt x="113" y="385" on="0"/>
        <pt x="86" y="386" on="0"/>
        <pt x="64" y="386" on="1"/>
        <pt x="64" y="442" on="1"/>
        <pt x="245" y="450" on="1"/>
        <pt x="245" y="346" on="1"/>
        <pt x="252" y="358" on="0"/>
        <pt x="281" y="394" on="0"/>
        <pt x="328" y="427" on="0"/>
        <pt x="396" y="450" on="0"/>
        <pt x="441" y="450" on="1"/>
        <pt x="476" y="450" on="0"/>
        <pt x="538" y="438" on="0"/>
        <pt x="584" y="405" on="0"/>
        <pt x="612" y="347" on="0"/>
        <pt x="612" y="301" on="1"/>
      </contour>
    </TTGlyph>
    <TTGlyph name="nine" xMin="57" yMin="-12" xMax="589" yMax="656">
      <contour>
        <pt x="442" y="302" on="1"/>
        <pt x="423" y="273" on="0"/>
        <pt x="381" y="242" on="0"/>
        <pt x="342" y="227" on="0"/>
        <pt x="311" y="225" on="0"/>
        <pt x="302" y="225" on="1"/>
        <pt x="249" y="225" on="0"/>
        <pt x="159" y="255" on="0"/>
        <pt x="94" y="310" on="0"/>
        <pt x="57" y="390" on="0"/>
        <pt x="57" y="440" on="1"/>
        <pt x="57" y="489" on="0"/>
        <pt x="95" y="568" on="0"/>
        <pt x="165" y="625" on="0"/>
        <pt x="264" y="656" on="0"/>
        <pt x="325" y="656" on="1"/>
        <pt x="406" y="656" on="0"/>
        <pt x="508" y="598" on="0"/>
        <pt x="567" y="505" on="0"/>
        <pt x="589" y="387" on="0"/>
        <pt x="589" y="328" on="1"/>
        <pt x="589" y="241" on="0"/>
        <pt x="537" y="113" on="0"/>
        <pt x="448" y="29" on="0"/>
        <pt x="333" y="-12" on="0"/>
        <pt x="270" y="-12" on="1"/>
        <pt x="221" y="-12" on="0"/>
        <pt x="152" y="10" on="0"/>
        <pt x="108" y="47" on="0"/>
        <pt x="89" y="95" on="0"/>
        <pt x="89" y="120" on="1"/>
        <pt x="89" y="152" on="0"/>
        <pt x="128" y="191" on="0"/>
        <pt x="159" y="191" on="1"/>
        <pt x="191" y="191" on="0"/>
        <pt x="228" y="151" on="0"/>
        <pt x="228" y="122" on="1"/>
        <pt x="228" y="76" on="0"/>
        <pt x="187" y="58" on="1"/>
        <pt x="199" y="51" on="0"/>
        <pt x="224" y="43" on="0"/>
        <pt x="247" y="40" on="0"/>
        <pt x="265" y="39" on="0"/>
        <pt x="268" y="39" on="1"/>
        <pt x="311" y="39" on="0"/>
        <pt x="386" y="75" on="0"/>
        <pt x="409" y="112" on="1"/>
        <pt x="431" y="147" on="0"/>
        <pt x="442" y="250" on="0"/>
      </contour>
      <contour>
        <pt x="313" y="271" on="1"/>
        <pt x="340" y="271" on="0"/>
        <pt x="386" y="293" on="0"/>
        <pt x="420" y="335" on="0"/>
        <pt x="440" y="396" on="0"/>
        <pt x="440" y="435" on="1"/>
        <pt x="440" y="435" on="0"/>
        <pt x="439" y="463" on="0"/>
        <pt x="436" y="501" on="0"/>
        <pt x="429" y="540" on="0"/>
        <pt x="423" y="552" on="1"/>
        <pt x="419" y="559" on="0"/>
        <pt x="405" y="579" on="0"/>
        <pt x="382" y="597" on="0"/>
        <pt x="349" y="610" on="0"/>
        <pt x="326" y="610" on="1"/>
        <pt x="280" y="610" on="0"/>
        <pt x="231" y="581" on="0"/>
        <pt x="208" y="534" on="0"/>
        <pt x="204" y="472" on="0"/>
        <pt x="204" y="439" on="1"/>
        <pt x="204" y="405" on="0"/>
        <pt x="207" y="343" on="0"/>
        <pt x="228" y="298" on="0"/>
        <pt x="272" y="271" on="0"/>
      </contour>
    </TTGlyph>
    <TTGlyph name="numbersign" xMin="75" yMin="-194" xMax="997" yMax="694">
      <contour>
        <pt x="686" y="162" on="1"/>
        <pt x="951" y="162" on="1"/>
        <pt x="955" y="162" on="0"/>
        <pt x="971" y="161" on="0"/>
        <pt x="986" y="154" on="0"/>
        <pt x="997" y="140" on="0"/>
        <pt x="997" y="126" on="1"/>
        <pt x="997" y="112" on="0"/>
        <pt x="985" y="97" on="0"/>
        <pt x="968" y="90" on="0"/>
        <pt x="950" y="89" on="0"/>
        <pt x="945" y="89" on="1"/>
        <pt x="660" y="89" on="1"/>
        <pt x="574" y="-162" on="1"/>
        <pt x="573" y="-165" on="0"/>
        <pt x="568" y="-176" on="0"/>
        <pt x="560" y="-186" on="0"/>
        <pt x="547" y="-194" on="0"/>
        <pt x="537" y="-194" on="1"/>
        <pt x="520" y="-194" on="0"/>
        <pt x="500" y="-172" on="0"/>
        <pt x="500" y="-158" on="1"/>
        <pt x="500" y="-156" on="0"/>
        <pt x="504" y="-143" on="0"/>
        <pt x="509" y="-126" on="0"/>
        <pt x="515" y="-108" on="0"/>
        <pt x="517" y="-101" on="1"/>
        <pt x="583" y="89" on="1"/>
        <pt x="377" y="89" on="1"/>
        <pt x="291" y="-162" on="1"/>
        <pt x="290" y="-165" on="0"/>
        <pt x="285" y="-176" on="0"/>
        <pt x="277" y="-186" on="0"/>
        <pt x="264" y="-194" on="0"/>
        <pt x="254" y="-194" on="1"/>
        <pt x="237" y="-194" on="0"/>
        <pt x="217" y="-172" on="0"/>
        <pt x="217" y="-158" on="1"/>
        <pt x="217" y="-156" on="0"/>
        <pt x="221" y="-143" on="0"/>
        <pt x="226" y="-126" on="0"/>
        <pt x="232" y="-108" on="0"/>
        <pt x="234" y="-101" on="1"/>
        <pt x="300" y="89" on="1"/>
        <pt x="127" y="89" on="1"/>
        <pt x="122" y="89" on="0"/>
        <pt x="104" y="90" on="0"/>
        <pt x="87" y="97" on="0"/>
        <pt x="75" y="112" on="0"/>
        <pt x="75" y="126" on="1"/>
        <pt x="75" y="140" on="0"/>
        <pt x="86" y="154" on="0"/>
        <pt x="101" y="161" on="0"/>
        <pt x="117" y="162" on="0"/>
        <pt x="121" y="162" on="1"/>
        <pt x="326" y="162" on="1"/>
        <pt x="387" y="339" on="1"/>
        <pt x="121" y="339" on="1"/>
        <pt x="117" y="339" on="0"/>
        <pt x="101" y="340" on="0"/>
        <pt x="86" y="347" on="0"/>
        <pt x="75" y="362" on="0"/>
        <pt x="75" y="375" on="1"/>
        <pt x="75" y="389" on="0"/>
        <pt x="87" y="404" on="0"/>
        <pt x="104" y="411" on="0"/>
        <pt x="122" y="412" on="0"/>
        <pt x="127" y="412" on="1"/>
        <pt x="413" y="412" on="1"/>
        <pt x="498" y="662" on="1"/>
        <pt x="500" y="669" on="0"/>
        <pt x="516" y="694" on="0"/>
        <pt x="535" y="694" on="1"/>
        <pt x="552" y="694" on="0"/>
        <pt x="572" y="672" on="0"/>
        <pt x="572" y="658" on="1"/>
        <pt x="572" y="656" on="0"/>
        <pt x="571" y="647" on="0"/>
        <pt x="567" y="636" on="1"/>
        <pt x="490" y="412" on="1"/>
        <pt x="696" y="412" on="1"/>
        <pt x="781" y="662" on="1"/>
        <pt x="783" y="669" on="0"/>
        <pt x="799" y="694" on="0"/>
        <pt x="818" y="694" on="1"/>
        <pt x="835" y="694" on="0"/>
        <pt x="855" y="672" on="0"/>
        <pt x="855" y="658" on="1"/>
        <pt x="855" y="656" on="0"/>
        <pt x="854" y="647" on="0"/>
        <pt x="850" y="636" on="1"/>
        <pt x="773" y="412" on="1"/>
        <pt x="945" y="412" on="1"/>
        <pt x="950" y="412" on="0"/>
        <pt x="968" y="411" on="0"/>
        <pt x="985" y="404" on="0"/>
        <pt x="997" y="389" on="0"/>
        <pt x="997" y="375" on="1"/>
        <pt x="997" y="362" on="0"/>
        <pt x="986" y="347" on="0"/>
        <pt x="971" y="340" on="0"/>
        <pt x="955" y="339" on="0"/>
        <pt x="951" y="339" on="1"/>
        <pt x="747" y="339" on="1"/>
      </contour>
      <contour>
        <pt x="403" y="162" on="1"/>
        <pt x="609" y="162" on="1"/>
        <pt x="670" y="339" on="1"/>
        <pt x="464" y="339" on="1"/>
      </contour>
    </TTGlyph>
    <TTGlyph name="o" xMin="40" yMin="-6" xMax="606" yMax="453">
      <contour>
        <pt x="606" y="218" on="1"/>
        <pt x="606" y="175" on="0"/>
        <pt x="572" y="94" on="0"/>
        <pt x="503" y="31" on="0"/>
        <pt x="396" y="-6" on="0"/>
        <pt x="323" y="-6" on="1"/>
        <pt x="250" y="-6" on="0"/>
        <pt x="144" y="31" on="0"/>
        <pt x="74" y="93" on="0"/>
        <pt x="40" y="174" on="0"/>
        <pt x="40" y="218" on="1"/>
        <pt x="40" y="262" on="0"/>
        <pt x="73" y="347" on="0"/>
        <pt x="142" y="413" on="0"/>
        <pt x="249" y="453" on="0"/>
        <pt x="323" y="453" on="1"/>
        <pt x="397" y="453" on="0"/>
        <pt x="503" y="413" on="0"/>
        <pt x="573" y="347" on="0"/>
        <pt x="606" y="263" on="0"/>
      </contour>
      <contour>
        <pt x="323" y="45" on="1"/>
        <pt x="377" y="45" on="0"/>
        <pt x="436" y="79" on="0"/>
        <pt x="463" y="132" on="0"/>
        <pt x="467" y="198" on="0"/>
        <pt x="467" y="230" on="1"/>
        <pt x="467" y="260" on="0"/>
        <pt x="463" y="323" on="0"/>
        <pt x="436" y="374" on="0"/>
        <pt x="377" y="407" on="0"/>
        <pt x="323" y="407" on="1"/>
        <pt x="269" y="407" on="0"/>
        <pt x="211" y="374" on="0"/>
        <pt x="184" y="323" on="0"/>
        <pt x="179" y="260" on="0"/>
        <pt x="179" y="230" on="1"/>
        <pt x="179" y="198" on="0"/>
        <pt x="184" y="132" on="0"/>
        <pt x="211" y="79" on="0"/>
        <pt x="269" y="45" on="0"/>
      </contour>
    </TTGlyph>
</ttFont>
